<?xml version="1.0" encoding="UTF-8" standalone="no"?>
<!-- Created with Inkscape (http://www.inkscape.org/) -->

<svg
   version="1.1"
   id="svg1"
   width="510.71997"
   height="337.28"
   viewBox="0 0 510.71997 337.28"
   sodipodi:docname="DDPM.pdf"
   xmlns:inkscape="http://www.inkscape.org/namespaces/inkscape"
   xmlns:sodipodi="http://sodipodi.sourceforge.net/DTD/sodipodi-0.dtd"
   xmlns="http://www.w3.org/2000/svg"
   xmlns:svg="http://www.w3.org/2000/svg">
  <defs
     id="defs1">
    <clipPath
       clipPathUnits="userSpaceOnUse"
       id="clipPath2">
      <path
         d="M 0,0 H 510.71873 V 337.59999 H 0 Z"
         clip-rule="evenodd"
         id="path2" />
    </clipPath>
  </defs>
  <sodipodi:namedview
     id="namedview1"
     pagecolor="#ffffff"
     bordercolor="#000000"
     borderopacity="0.25"
     inkscape:showpageshadow="2"
     inkscape:pageopacity="0.0"
     inkscape:pagecheckerboard="0"
     inkscape:deskcolor="#d1d1d1">
    <inkscape:page
       x="0"
       y="0"
       inkscape:label="1"
       id="page1"
       width="510.71997"
       height="337.28"
       margin="0"
       bleed="0" />
  </sodipodi:namedview>
  <g
     id="g1"
     inkscape:groupmode="layer"
     inkscape:label="1">
    <path
       id="path1"
       d="M 0,0 H 511 V 338 H 0 Z"
       style="fill:#ffffff;fill-opacity:1;fill-rule:nonzero;stroke:none"
       clip-path="url(#clipPath2)" />
    <path
       id="path3"
       d="m 72.5,40 h 415 c 1.71945,4e-6 3.43478,0.08427 5.14594,0.252804 1.71115,0.168537 3.40991,0.420524 5.09628,0.755966 1.6864,0.335449 3.35229,0.752735 4.99771,1.251862 1.64542,0.499126 3.26236,1.07769 4.85089,1.735691 1.58856,0.658004 3.14105,1.392273 4.65747,2.202808 1.51642,0.810543 2.98944,1.693447 4.41907,2.648712 1.42969,0.955273 2.80908,1.978306 4.13824,3.069107 1.32917,1.090801 2.60163,2.244118 3.81745,3.459942 1.21588,1.215828 2.3692,2.488312 3.45996,3.817455 1.09082,1.329144 2.11383,2.708546 3.06909,4.138207 0.95526,1.429668 1.8382,2.902706 2.64874,4.419117 0.81055,1.516411 1.5448,3.068893 2.20276,4.657448 0.65802,1.588554 1.23663,3.205536 1.73578,4.850944 0.49908,1.645401 0.91638,3.311302 1.25183,4.997696 0.33545,1.686401 0.58746,3.385185 0.75598,5.096344 C 539.91571,89.065262 540,90.780563 540,92.5 v 245 c 0,1.71945 -0.0843,3.43472 -0.25281,5.14587 -0.16852,1.71116 -0.42053,3.40995 -0.75598,5.09632 -0.33545,1.68643 -0.75275,3.35232 -1.25183,4.99774 -0.49915,1.64535 -1.07776,3.26233 -1.73578,4.85086 -0.65796,1.58856 -1.39221,3.14105 -2.20276,4.65747 -0.81054,1.51639 -1.69348,2.98944 -2.64874,4.4191 -0.95526,1.42969 -1.97827,2.80908 -3.06909,4.13821 -1.09076,1.32917 -2.24408,2.60166 -3.45996,3.81748 -1.21582,1.21582 -2.48828,2.36914 -3.81745,3.45993 -1.32916,1.09079 -2.70855,2.11383 -4.13824,3.06912 -1.42963,0.95529 -2.90265,1.8382 -4.41907,2.64874 -1.51642,0.81052 -3.06891,1.54477 -4.65747,2.20276 -1.58853,0.65802 -3.20547,1.2366 -4.85089,1.73575 -1.64542,0.49911 -3.31131,0.91641 -4.99771,1.25186 -1.68637,0.33545 -3.38513,0.58743 -5.09628,0.75598 C 490.93478,389.91574 489.21945,390 487.5,390 h -415 c -1.719437,0 -3.434738,-0.0843 -5.145897,-0.25281 -1.711159,-0.16855 -3.409943,-0.42053 -5.096348,-0.75598 -1.686401,-0.33545 -3.352302,-0.75275 -4.997707,-1.25186 -1.645397,-0.49915 -3.262379,-1.07773 -4.850937,-1.73575 -1.588554,-0.65799 -3.141037,-1.39227 -4.657448,-2.20279 -1.516411,-0.81051 -2.989448,-1.69342 -4.419109,-2.64871 -1.429661,-0.95529 -2.809059,-1.97833 -4.138203,-3.06912 -1.329143,-1.09079 -2.601627,-2.24411 -3.817459,-3.45993 -1.215824,-1.21582 -2.369141,-2.48831 -3.459942,-3.81745 -1.090803,-1.32913 -2.113838,-2.70855 -3.069109,-4.13824 -0.955269,-1.42966 -1.838173,-2.90268 -2.64871,-4.41907 -0.810537,-1.51645 -1.544807,-3.06894 -2.20281,-4.6575 -0.657999,-1.58853 -1.236563,-3.20551 -1.735689,-4.85089 -0.499129,-1.64539 -0.916415,-3.31128 -1.251862,-4.99771 -0.335445,-1.68637 -0.587435,-3.38516 -0.755968,-5.09632 C 20.084269,340.93472 20.000002,339.21945 20,337.5 v -245 c 2e-6,-1.719437 0.08427,-3.434738 0.252802,-5.145897 0.168533,-1.711159 0.420523,-3.409943 0.755968,-5.096344 0.335447,-1.686394 0.752733,-3.352295 1.251862,-4.997696 0.499126,-1.645408 1.07769,-3.26239 1.735689,-4.850944 0.658003,-1.588555 1.392273,-3.141037 2.20281,-4.657448 0.810537,-1.516411 1.693441,-2.989449 2.64871,-4.419117 0.955271,-1.429661 1.978306,-2.809063 3.069109,-4.138207 1.090801,-1.329143 2.244118,-2.601627 3.459942,-3.817455 1.215832,-1.215824 2.488316,-2.369141 3.817459,-3.459942 1.329144,-1.090801 2.708542,-2.113834 4.138203,-3.069107 1.429661,-0.955265 2.902698,-1.838169 4.419113,-2.648708 1.516407,-0.810536 3.06889,-1.544808 4.657444,-2.202812 1.588558,-0.658001 3.20554,-1.236565 4.850937,-1.735691 1.645405,-0.499127 3.311306,-0.916413 4.997707,-1.251862 1.686405,-0.335442 3.385189,-0.587429 5.096348,-0.755966 C 69.065262,40.08427 70.780563,40.000004 72.5,40 Z"
       style="fill:#ffffff;fill-opacity:1;fill-rule:nonzero;stroke:#000000;stroke-width:1;stroke-linecap:butt;stroke-linejoin:miter;stroke-miterlimit:10;stroke-dasharray:none;stroke-opacity:1"
       transform="matrix(0.9238918,0,0,0.9238918,-7.5435507,-30.031779)" />
    <path
       id="path4"
       d="M 120,200 H 223.63"
       style="fill:none;stroke:#000000;stroke-width:1;stroke-linecap:butt;stroke-linejoin:miter;stroke-miterlimit:10;stroke-dasharray:none;stroke-opacity:1"
       transform="matrix(0.9238918,0,0,0.9238918,-7.5435507,-30.031779)" />
    <path
       id="path5"
       d="m 228.88,200 -7,3.5 1.75,-3.5 -1.75,-3.5 z"
       style="fill:#000000;fill-opacity:1;fill-rule:nonzero;stroke:#000000;stroke-width:1;stroke-linecap:butt;stroke-linejoin:miter;stroke-miterlimit:10;stroke-dasharray:none;stroke-opacity:1"
       transform="matrix(0.9238918,0,0,0.9238918,-7.5435507,-30.031779)" />
    <path
       id="path6"
       d="m 40,160 h 80 v 80 H 40 Z"
       style="fill:#dae8fc;fill-opacity:1;fill-rule:nonzero;stroke:#6c8ebf;stroke-width:1;stroke-linecap:butt;stroke-linejoin:miter;stroke-miterlimit:10;stroke-dasharray:none;stroke-opacity:1"
       transform="matrix(0.9238918,0,0,0.9238918,-7.5435507,-30.031779)" />
    <g
       id="g6" />
    <text
       id="text6"
       xml:space="preserve"
       transform="matrix(0.9238918,0,0,0.9238918,36.630026,151.51296)"><tspan
         id="tspan6"
         style="font-variant:normal;font-weight:normal;font-size:12px;font-family:Arial;writing-mode:lr-tb;fill:#000000;fill-opacity:1;fill-rule:nonzero;stroke:none"
         x="0"
         y="0">Input Image</tspan></text>
    <path
       id="path7"
       d="m 333,-241 c 0,4 -1,5 -11,15 -105,111 -155,263 -155,476 0,213 50,365 155,476 10,10 11,11 11,15 0,2 -1,4 -3,6 -3,3 -3,3 -15,3 H 302 L 274,726 C 205,663 153,575 123,473 103,403 94,342 94,250 94,39 160,-122 274,-226 l 28,-24 h 13 c 13,0 18,1 18,9 z"
       style="fill:#000000;fill-opacity:1;fill-rule:nonzero;stroke:#000000;stroke-width:1;stroke-linecap:butt;stroke-linejoin:miter;stroke-miterlimit:10;stroke-dasharray:none;stroke-opacity:0.0292"
       transform="matrix(0.01299223,0,0,-0.01299223,53.902907,164.95269)" />
    <path
       id="path8"
       d="m 58,278 h 14 c 19,0 18,1 21,12 15,53 59,114 124,114 31,0 49,-20 49,-52 0,-11 -2,-23 -5,-39 C 251,282 215,107 194,71 177,42 155,26 132,26 c -7,0 -19,2 -26,5 -5,2 -15,8 -15,9 0,0 2,1 3,1 2,1 8,3 13,6 19,9 35,28 35,54 0,28 -17,42 -43,42 -39,0 -64,-34 -64,-72 0,-14 3,-28 10,-40 14,-24 40,-41 82,-41 15,0 17,0 26,2 29,10 55,31 74,60 20,-35 53,-63 106,-63 43,0 71,15 99,37 31,27 58,65 70,108 1,5 2,8 2,11 0,7 -5,8 -19,8 -17,0 -18,0 -22,-13 C 449,89 401,26 341,26 c -31,0 -51,20 -51,52 0,9 1,20 3,30 3,16 53,217 57,228 11,31 34,57 56,66 6,2 8,2 19,2 13,0 21,-1 29,-6 6,-3 11,-6 11,-7 -26,-9 -50,-28 -50,-63 0,-24 17,-40 43,-40 39,0 64,33 64,73 0,44 -36,81 -92,81 -31,0 -61,-15 -85,-42 -8,-8 -11,-14 -16,-21 -17,35 -59,63 -107,63 -7,0 -14,-1 -21,-2 -45,-7 -88,-37 -118,-82 -13,-20 -29,-55 -31,-69 0,-6 3,-8 6,-11 z"
       style="fill:#000000;fill-opacity:1;fill-rule:nonzero;stroke:#000000;stroke-width:1;stroke-linecap:butt;stroke-linejoin:miter;stroke-miterlimit:10;stroke-dasharray:none;stroke-opacity:0.0292"
       transform="matrix(0.01299223,0,0,-0.01299223,58.956881,164.95269)" />
    <path
       id="path9"
       d="M 96,585 C 53,516 39,442 39,320 39,210 51,142 82,83 112,24 167,-22 250,-22 c 29,0 57,7 85,21 37,18 62,43 82,84 31,59 43,127 43,237 0,103 -11,170 -37,228 -13,29 -27,50 -46,68 -35,32 -81,50 -128,50 -67,0 -120,-33 -153,-81 m 225,12 c 29,-30 37,-62 40,-170 0,-18 1,-55 1,-94 0,-55 -1,-115 -2,-134 C 355,106 347,76 318,46 301,27 282,16 250,16 c -32,0 -52,11 -69,30 -29,30 -37,60 -42,153 -1,19 -2,79 -2,134 0,39 1,76 1,94 3,108 11,140 40,170 20,21 46,32 72,32 31,0 53,-12 71,-32 z"
       style="fill:#000000;fill-opacity:1;fill-rule:nonzero;stroke:#000000;stroke-width:1;stroke-linecap:butt;stroke-linejoin:miter;stroke-miterlimit:10;stroke-dasharray:none;stroke-opacity:0.0207"
       transform="matrix(0.00918551,0,0,-0.00918551,66.817181,166.90152)" />
    <path
       id="path10"
       d="m 60,749 c -3,-2 -5,-7 -5,-11 1,-1 6,-7 11,-13 C 172,615 221,462 221,250 221,38 172,-115 66,-225 c -5,-6 -10,-12 -11,-13 0,-11 4,-12 19,-12 h 12 l 28,24 c 69,63 121,151 151,254 20,68 29,131 29,222 0,211 -66,372 -180,476 L 86,750 H 74 c -8,0 -12,-1 -14,-1 z"
       style="fill:#000000;fill-opacity:1;fill-rule:nonzero;stroke:#000000;stroke-width:1;stroke-linecap:butt;stroke-linejoin:miter;stroke-miterlimit:10;stroke-dasharray:none;stroke-opacity:0.0292"
       transform="matrix(0.01299223,0,0,-0.01299223,72.060848,164.95269)" />
    <path
       id="path11"
       d="m 120,120 h 40 v 80 h 63.63"
       style="fill:none;stroke:#000000;stroke-width:1;stroke-linecap:butt;stroke-linejoin:miter;stroke-miterlimit:10;stroke-dasharray:none;stroke-opacity:1"
       transform="matrix(0.9238918,0,0,0.9238918,-7.5435507,-30.031779)" />
    <path
       id="path12"
       d="m 228.88,200 -7,3.5 1.75,-3.5 -1.75,-3.5 z"
       style="fill:#000000;fill-opacity:1;fill-rule:nonzero;stroke:#000000;stroke-width:1;stroke-linecap:butt;stroke-linejoin:miter;stroke-miterlimit:10;stroke-dasharray:none;stroke-opacity:1"
       transform="matrix(0.9238918,0,0,0.9238918,-7.5435507,-30.031779)" />
    <path
       id="path13"
       d="M 80,90 V 70 h 250 v 130 h 23.63"
       style="fill:none;stroke:#000000;stroke-width:1;stroke-linecap:butt;stroke-linejoin:miter;stroke-miterlimit:10;stroke-dasharray:none;stroke-opacity:1"
       transform="matrix(0.9238918,0,0,0.9238918,-7.5435507,-30.031779)" />
    <path
       id="path14"
       d="m 358.88,200 -7,3.5 1.75,-3.5 -1.75,-3.5 z"
       style="fill:#000000;fill-opacity:1;fill-rule:nonzero;stroke:#000000;stroke-width:1;stroke-linecap:butt;stroke-linejoin:miter;stroke-miterlimit:10;stroke-dasharray:none;stroke-opacity:1"
       transform="matrix(0.9238918,0,0,0.9238918,-7.5435507,-30.031779)" />
    <path
       id="path15"
       d="m 120,120 c 0,0.98254 -0.0642,1.96271 -0.19262,2.94051 -0.12841,0.97781 -0.3204,1.94854 -0.57598,2.91218 -0.25558,0.96366 -0.57351,1.91561 -0.9538,2.85584 -0.38028,0.94023 -0.82109,1.86422 -1.32243,2.77195 -0.50134,0.90775 -1.06078,1.79488 -1.67832,2.6614 -0.61756,0.86653 -1.29025,1.70826 -2.01808,2.5252 -0.72782,0.81696 -1.50727,1.6052 -2.33836,2.36472 -0.83108,0.75951 -1.7098,1.48665 -2.63615,2.1814 -0.92634,0.69476 -1.89586,1.3538 -2.90854,1.97711 -1.01268,0.6233 -2.06365,1.2079 -3.15293,1.75377 -1.08926,0.54586 -2.21157,1.05038 -3.366932,1.51355 -1.155358,0.46315 -2.338204,0.88273 -3.548531,1.25874 -1.210327,0.37601 -2.442306,0.70662 -3.695945,0.99184 -1.25364,0.2852 -2.522904,0.52365 -3.807778,0.71533 -1.284874,0.19169 -2.579185,0.33569 -3.882919,0.432 C 82.616951,149.95184 81.310051,150 80,150 c -1.310051,0 -2.616943,-0.0482 -3.920685,-0.14446 -1.303741,-0.0963 -2.598053,-0.24031 -3.882927,-0.432 -1.284874,-0.19168 -2.554138,-0.43013 -3.807777,-0.71533 -1.253639,-0.28522 -2.485619,-0.61583 -3.695954,-0.99184 -1.210327,-0.37601 -2.393169,-0.79559 -3.54853,-1.25874 -1.155361,-0.46317 -2.277676,-0.96769 -3.366943,-1.51355 -1.089264,-0.54587 -2.140236,-1.13047 -3.152916,-1.75377 -1.012684,-0.62331 -1.982197,-1.28235 -2.908543,-1.97711 -0.926342,-0.69475 -1.805058,-1.42189 -2.636147,-2.1814 -0.831089,-0.75952 -1.610546,-1.54776 -2.338371,-2.36472 -0.727821,-0.81694 -1.400509,-1.65867 -2.018059,-2.5252 -0.617553,-0.86652 -1.176998,-1.75365 -1.678337,-2.6614 -0.501331,-0.90773 -0.942138,-1.83171 -1.322426,-2.77194 -0.380287,-0.94024 -0.698219,-1.89219 -0.9538,-2.85585 -0.255573,-0.96364 -0.447567,-1.93437 -0.575973,-2.91218 C 40.064205,121.96271 40.000004,120.98254 40,120 c 4e-6,-0.98253 0.06421,-1.9627 0.192612,-2.94051 0.128406,-0.9778 0.3204,-1.94854 0.575973,-2.9122 0.255581,-0.96366 0.573513,-1.9156 0.9538,-2.85582 0.380288,-0.94024 0.821095,-1.86422 1.322426,-2.77198 0.501339,-0.90773 1.060784,-1.79486 1.678337,-2.66139 0.61755,-0.86651 1.290238,-1.70825 2.018059,-2.52521 0.727825,-0.81694 1.507282,-1.60517 2.338371,-2.36467 0.831089,-0.75952 1.709805,-1.48666 2.636147,-2.181423 0.926346,-0.694756 1.895859,-1.353791 2.908539,-1.977105 1.012684,-0.623321 2.063656,-1.207916 3.15292,-1.753791 1.089267,-0.545861 2.211582,-1.050377 3.366943,-1.513543 1.155361,-0.463157 2.338203,-0.882743 3.54853,-1.258751 1.210335,-0.375999 2.442315,-0.706604 3.695954,-0.991813 1.253639,-0.28521 2.522903,-0.523667 3.807777,-0.715355 1.284874,-0.191673 2.579186,-0.335671 3.882927,-0.431976 C 77.383057,90.048157 78.689949,90 80,90 c 1.310051,0 2.616951,0.04816 3.920685,0.144463 1.303734,0.09631 2.598045,0.240303 3.882919,0.431976 1.284874,0.191688 2.554138,0.430145 3.807778,0.715355 1.253639,0.285217 2.485618,0.615822 3.695945,0.991821 1.210327,0.376 2.393173,0.795586 3.548538,1.258743 1.155355,0.463173 2.277675,0.96769 3.366935,1.51355 1.08927,0.545876 2.14025,1.13047 3.15293,1.753784 1.01267,0.623314 1.98219,1.282349 2.90853,1.977105 0.92635,0.694763 1.80507,1.421893 2.63614,2.181413 0.8311,0.75951 1.61055,1.54774 2.33837,2.36468 0.72783,0.81696 1.40052,1.6587 2.01807,2.52522 0.61755,0.86652 1.17699,1.75365 1.67833,2.66138 0.50134,0.90776 0.94215,1.83174 1.32244,2.77197 0.38029,0.94023 0.69822,1.89217 0.9538,2.85582 0.25557,0.96367 0.44757,1.93441 0.57598,2.91221 C 119.9358,118.0373 120,119.01747 120,120 Z"
       style="fill:#ffe6cc;fill-opacity:1;fill-rule:nonzero;stroke:#d79b00;stroke-width:1;stroke-linecap:butt;stroke-linejoin:miter;stroke-miterlimit:10;stroke-dasharray:none;stroke-opacity:1"
       transform="matrix(0.9238918,0,0,0.9238918,-7.5435507,-30.031779)" />
    <g
       id="g15" />
    <text
       id="text15"
       xml:space="preserve"
       transform="matrix(0.9238918,0,0,0.9238918,43.313806,77.601614)"><tspan
         id="tspan15"
         style="font-variant:normal;font-weight:normal;font-size:12px;font-family:Arial;writing-mode:lr-tb;fill:#000000;fill-opacity:1;fill-rule:nonzero;stroke:none"
         x="0"
         dx="0 -0.44531247"
         y="0">Timestep</tspan></text>
    <path
       id="path16"
       d="m 333,-241 c 0,4 -1,5 -11,15 -105,111 -155,263 -155,476 0,213 50,365 155,476 10,10 11,11 11,15 0,2 -1,4 -3,6 -3,3 -3,3 -15,3 H 302 L 274,726 C 205,663 153,575 123,473 103,403 94,342 94,250 94,39 160,-122 274,-226 l 28,-24 h 13 c 13,0 18,1 18,9 z"
       style="fill:#000000;fill-opacity:1;fill-rule:nonzero;stroke:#000000;stroke-width:1;stroke-linecap:butt;stroke-linejoin:miter;stroke-miterlimit:10;stroke-dasharray:none;stroke-opacity:0.0292"
       transform="matrix(0.01299223,0,0,-0.01299223,58.521214,91.041353)" />
    <path
       id="path17"
       d="m 26,385 h 51 c 48,0 51,0 51,-2 -1,-1 -17,-65 -36,-142 L 57,101 V 83 c 0,-17 0,-19 2,-27 12,-39 46,-67 96,-67 32,0 58,12 79,28 32,24 70,72 85,116 2,5 4,9 4,12 0,7 -7,8 -20,8 -16,0 -17,-1 -20,-9 -4,-10 -12,-27 -18,-37 -26,-45 -59,-74 -91,-80 -5,-1 -9,-1 -12,-1 -22,0 -27,19 -27,42 0,5 0,10 1,15 1,7 15,64 38,157 l 36,145 h 107 c 4,4 13,23 13,35 0,5 -4,8 -7,11 h -51 c -47,0 -50,0 -50,2 0,0 39,148 39,163 0,18 -15,29 -32,30 -23,0 -39,-12 -46,-28 -3,-6 -8,-25 -24,-87 L 140,431 H 87 c -58,0 -57,0 -60,-6 -2,-2 -8,-25 -8,-30 0,-5 4,-7 7,-10 z"
       style="fill:#000000;fill-opacity:1;fill-rule:nonzero;stroke:#000000;stroke-width:1;stroke-linecap:butt;stroke-linejoin:miter;stroke-miterlimit:10;stroke-dasharray:none;stroke-opacity:0.0292"
       transform="matrix(0.01299223,0,0,-0.01299223,63.575181,91.041353)" />
    <path
       id="path18"
       d="m 60,749 c -3,-2 -5,-7 -5,-11 1,-1 6,-7 11,-13 C 172,615 221,462 221,250 221,38 172,-115 66,-225 c -5,-6 -10,-12 -11,-13 0,-11 4,-12 19,-12 h 12 l 28,24 c 69,63 121,151 151,254 20,68 29,131 29,222 0,211 -66,372 -180,476 L 86,750 H 74 c -8,0 -12,-1 -14,-1 z"
       style="fill:#000000;fill-opacity:1;fill-rule:nonzero;stroke:#000000;stroke-width:1;stroke-linecap:butt;stroke-linejoin:miter;stroke-miterlimit:10;stroke-dasharray:none;stroke-opacity:0.0292"
       transform="matrix(0.01299223,0,0,-0.01299223,68.265383,91.041353)" />
    <path
       id="path19"
       d="m 120,280 h 40 v -80 h 63.63"
       style="fill:none;stroke:#000000;stroke-width:1;stroke-linecap:butt;stroke-linejoin:miter;stroke-miterlimit:10;stroke-dasharray:none;stroke-opacity:1"
       transform="matrix(0.9238918,0,0,0.9238918,-7.5435507,-30.031779)" />
    <path
       id="path20"
       d="m 228.88,200 -7,3.5 1.75,-3.5 -1.75,-3.5 z"
       style="fill:#000000;fill-opacity:1;fill-rule:nonzero;stroke:#000000;stroke-width:1;stroke-linecap:butt;stroke-linejoin:miter;stroke-miterlimit:10;stroke-dasharray:none;stroke-opacity:1"
       transform="matrix(0.9238918,0,0,0.9238918,-7.5435507,-30.031779)" />
    <path
       id="path21"
       d="m 80,310 v 30 h 113.63"
       style="fill:none;stroke:#000000;stroke-width:1;stroke-linecap:butt;stroke-linejoin:miter;stroke-miterlimit:10;stroke-dasharray:none;stroke-opacity:1"
       transform="matrix(0.9238918,0,0,0.9238918,-7.5435507,-30.031779)" />
    <path
       id="path22"
       d="m 198.88,340 -7,3.5 1.75,-3.5 -1.75,-3.5 z"
       style="fill:#000000;fill-opacity:1;fill-rule:nonzero;stroke:#000000;stroke-width:1;stroke-linecap:butt;stroke-linejoin:miter;stroke-miterlimit:10;stroke-dasharray:none;stroke-opacity:1"
       transform="matrix(0.9238918,0,0,0.9238918,-7.5435507,-30.031779)" />
    <path
       id="path23"
       d="m 120,280 c 0,0.98251 -0.0642,1.96271 -0.19262,2.94052 -0.12841,0.97775 -0.3204,1.94849 -0.57598,2.91214 -0.25558,0.96369 -0.57351,1.91565 -0.9538,2.85587 -0.38028,0.94021 -0.82109,1.86419 -1.32243,2.77194 -0.50134,0.90774 -1.06078,1.79489 -1.67832,2.66141 -0.61756,0.86654 -1.29025,1.70828 -2.01808,2.5252 -0.72782,0.81696 -1.50727,1.6052 -2.33836,2.36472 -0.83108,0.75952 -1.7098,1.48666 -2.63615,2.1814 -0.92634,0.69476 -1.89586,1.35379 -2.90854,1.97711 -1.01268,0.62329 -2.06365,1.20785 -3.15293,1.75372 -1.08926,0.54587 -2.21157,1.05042 -3.366932,1.51358 -1.155358,0.46317 -2.338204,0.88275 -3.548531,1.25876 -1.210327,0.37601 -2.442306,0.70663 -3.695945,0.99185 -1.25364,0.28519 -2.522904,0.52365 -3.807778,0.71533 -1.284874,0.19168 -2.579185,0.3357 -3.882919,0.43201 C 82.616951,309.95184 81.310051,310 80,310 c -1.310051,0 -2.616943,-0.0482 -3.920685,-0.14444 -1.303741,-0.0963 -2.598053,-0.24033 -3.882927,-0.43201 -1.284874,-0.19168 -2.554138,-0.43011 -3.807777,-0.7153 -1.253639,-0.28525 -2.485619,-0.61587 -3.695954,-0.99188 -1.210327,-0.37601 -2.393169,-0.79559 -3.54853,-1.25876 -1.155361,-0.46316 -2.277676,-0.96771 -3.366943,-1.51358 -1.089264,-0.54587 -2.140236,-1.13043 -3.152916,-1.75372 -1.012684,-0.62332 -1.982197,-1.28235 -2.908543,-1.97711 -0.926342,-0.69474 -1.805058,-1.42188 -2.636147,-2.1814 -0.831089,-0.75952 -1.610546,-1.54776 -2.338371,-2.36472 -0.727821,-0.81692 -1.400509,-1.65866 -2.018059,-2.5252 -0.617553,-0.86652 -1.176998,-1.75367 -1.678337,-2.66141 -0.501331,-0.90775 -0.942138,-1.83173 -1.322426,-2.77194 -0.380287,-0.94022 -0.698219,-1.89218 -0.9538,-2.85587 -0.255573,-0.96365 -0.447567,-1.93439 -0.575973,-2.91214 C 40.064205,281.96271 40.000004,280.98251 40,280 c 4e-6,-0.98254 0.06421,-1.96271 0.192612,-2.94049 0.128406,-0.97781 0.3204,-1.94858 0.575973,-2.91226 0.255581,-0.96366 0.573513,-1.91559 0.9538,-2.85581 0.380288,-0.94024 0.821095,-1.86425 1.322426,-2.772 0.501339,-0.90775 1.060784,-1.79486 1.678337,-2.66138 0.61755,-0.86651 1.290238,-1.70825 2.018059,-2.5252 0.727825,-0.81693 1.507282,-1.60517 2.338371,-2.36469 0.831089,-0.75952 1.709805,-1.48666 2.636147,-2.1814 0.926346,-0.69473 1.895859,-1.35379 2.908539,-1.97711 1.012684,-0.62329 2.063656,-1.2079 3.15292,-1.75378 1.089267,-0.54585 2.211582,-1.05037 3.366943,-1.51354 1.155361,-0.46316 2.338203,-0.88275 3.54853,-1.25876 1.210335,-0.37597 2.442315,-0.70657 3.695954,-0.99177 1.253639,-0.28522 2.522903,-0.52367 3.807777,-0.71536 1.284874,-0.19168 2.579186,-0.33567 3.882927,-0.43196 C 77.383057,250.04819 78.689949,250.00002 80,250 c 1.310051,2e-5 2.616951,0.0482 3.920685,0.14449 1.303734,0.0963 2.598045,0.24028 3.882919,0.43196 1.284874,0.19169 2.554138,0.43014 3.807778,0.71536 1.253639,0.2852 2.485618,0.6158 3.695945,0.99177 1.210327,0.37601 2.393173,0.7956 3.548538,1.25876 1.155355,0.46317 2.277675,0.96769 3.366935,1.51354 1.08927,0.54588 2.14025,1.13049 3.15293,1.75378 1.01267,0.62332 1.98219,1.28238 2.90853,1.97711 0.92635,0.69474 1.80507,1.42188 2.63614,2.1814 0.8311,0.75952 1.61055,1.54776 2.33837,2.36469 0.72783,0.81695 1.40052,1.65869 2.01807,2.5252 0.61755,0.86652 1.17699,1.75363 1.67833,2.66138 0.50134,0.90775 0.94215,1.83176 1.32244,2.772 0.38029,0.94022 0.69822,1.89215 0.9538,2.85581 0.25557,0.96368 0.44757,1.93445 0.57598,2.91226 C 119.9358,278.03729 120,279.01746 120,280 Z"
       style="fill:#ffe6cc;fill-opacity:1;fill-rule:nonzero;stroke:#d79b00;stroke-width:1;stroke-linecap:butt;stroke-linejoin:miter;stroke-miterlimit:10;stroke-dasharray:none;stroke-opacity:1"
       transform="matrix(0.9238918,0,0,0.9238918,-7.5435507,-30.031779)" />
    <g
       id="g23" />
    <text
       id="text23"
       xml:space="preserve"
       transform="matrix(0.9238918,0,0,0.9238918,51.729883,225.4243)"><tspan
         id="tspan23"
         style="font-variant:normal;font-weight:normal;font-size:12px;font-family:Arial;writing-mode:lr-tb;fill:#000000;fill-opacity:1;fill-rule:nonzero;stroke:none"
         x="0"
         y="0">Noise</tspan></text>
    <path
       id="path24"
       d="m 333,-241 c 0,4 -1,5 -11,15 -105,111 -155,263 -155,476 0,213 50,365 155,476 10,10 11,11 11,15 0,2 -1,4 -3,6 -3,3 -3,3 -15,3 H 302 L 274,726 C 205,663 153,575 123,473 103,403 94,342 94,250 94,39 160,-122 274,-226 l 28,-24 h 13 c 13,0 18,1 18,9 z"
       style="fill:#000000;fill-opacity:1;fill-rule:nonzero;stroke:#000000;stroke-width:1;stroke-linecap:butt;stroke-linejoin:miter;stroke-miterlimit:10;stroke-dasharray:none;stroke-opacity:0.0292"
       transform="matrix(0.01299223,0,0,-0.01299223,58.517601,238.86405)" />
    <path
       id="path25"
       d="m 138,217 v 2 h 182 c 12,5 20,15 20,27 0,10 -6,14 -13,19 H 150 l 4,12 c 21,62 66,100 129,107 4,1 24,1 42,1 20,0 35,0 37,1 10,3 19,13 20,23 0,13 -6,18 -15,22 h -38 c -21,0 -40,0 -42,-1 C 200,423 129,377 87,322 55,281 40,242 40,174 40,88 87,28 153,3 c 23,-9 46,-14 74,-14 29,0 56,6 85,19 18,8 42,22 45,27 3,3 2,5 -2,18 -3,11 -4,15 -12,15 -1,0 -7,-3 -13,-7 -27,-18 -49,-28 -71,-32 -9,-2 -19,-3 -28,-3 -21,0 -40,5 -56,16 -32,20 -47,50 -47,101 0,27 4,54 10,74 z"
       style="fill:#000000;fill-opacity:1;fill-rule:nonzero;stroke:#000000;stroke-width:1;stroke-linecap:butt;stroke-linejoin:miter;stroke-miterlimit:10;stroke-dasharray:none;stroke-opacity:0.0292"
       transform="matrix(0.01299223,0,0,-0.01299223,63.571575,238.86405)" />
    <path
       id="path26"
       d="m 60,749 c -3,-2 -5,-7 -5,-11 1,-1 6,-7 11,-13 C 172,615 221,462 221,250 221,38 172,-115 66,-225 c -5,-6 -10,-12 -11,-13 0,-11 4,-12 19,-12 h 12 l 28,24 c 69,63 121,151 151,254 20,68 29,131 29,222 0,211 -66,372 -180,476 L 86,750 H 74 c -8,0 -12,-1 -14,-1 z"
       style="fill:#000000;fill-opacity:1;fill-rule:nonzero;stroke:#000000;stroke-width:1;stroke-linecap:butt;stroke-linejoin:miter;stroke-miterlimit:10;stroke-dasharray:none;stroke-opacity:0.0292"
       transform="matrix(0.01299223,0,0,-0.01299223,68.846423,238.86405)" />
    <path
       id="path27"
       d="m 310,200 h 43.63"
       style="fill:none;stroke:#000000;stroke-width:1;stroke-linecap:butt;stroke-linejoin:miter;stroke-miterlimit:10;stroke-dasharray:none;stroke-opacity:1"
       transform="matrix(0.9238918,0,0,0.9238918,-7.5435507,-30.031779)" />
    <path
       id="path28"
       d="m 358.88,200 -7,3.5 1.75,-3.5 -1.75,-3.5 z"
       style="fill:#000000;fill-opacity:1;fill-rule:nonzero;stroke:#000000;stroke-width:1;stroke-linecap:butt;stroke-linejoin:miter;stroke-miterlimit:10;stroke-dasharray:none;stroke-opacity:1"
       transform="matrix(0.9238918,0,0,0.9238918,-7.5435507,-30.031779)" />
    <path
       id="path29"
       d="m 230,160 h 80 v 80 h -80 z"
       style="fill:#dae8fc;fill-opacity:1;fill-rule:nonzero;stroke:#6c8ebf;stroke-width:1;stroke-linecap:butt;stroke-linejoin:miter;stroke-miterlimit:10;stroke-dasharray:none;stroke-opacity:1"
       transform="matrix(0.9238918,0,0,0.9238918,-7.5435507,-30.031779)" />
    <g
       id="g29" />
    <text
       id="text29"
       xml:space="preserve"
       transform="matrix(0.9238918,0,0,0.9238918,210.62484,151.51296)"><tspan
         id="tspan29"
         style="font-variant:normal;font-weight:normal;font-size:12px;font-family:Arial;writing-mode:lr-tb;fill:#000000;fill-opacity:1;fill-rule:nonzero;stroke:none"
         x="0"
         y="0">Noisy Image</tspan></text>
    <path
       id="path30"
       d="m 333,-241 c 0,4 -1,5 -11,15 -105,111 -155,263 -155,476 0,213 50,365 155,476 10,10 11,11 11,15 0,2 -1,4 -3,6 -3,3 -3,3 -15,3 H 302 L 274,726 C 205,663 153,575 123,473 103,403 94,342 94,250 94,39 160,-122 274,-226 l 28,-24 h 13 c 13,0 18,1 18,9 z"
       style="fill:#000000;fill-opacity:1;fill-rule:nonzero;stroke:#000000;stroke-width:1;stroke-linecap:butt;stroke-linejoin:miter;stroke-miterlimit:10;stroke-dasharray:none;stroke-opacity:0.0292"
       transform="matrix(0.01299223,0,0,-0.01299223,230.36964,164.95269)" />
    <path
       id="path31"
       d="m 58,278 h 14 c 19,0 18,1 21,12 15,53 59,114 124,114 31,0 49,-20 49,-52 0,-11 -2,-23 -5,-39 C 251,282 215,107 194,71 177,42 155,26 132,26 c -7,0 -19,2 -26,5 -5,2 -15,8 -15,9 0,0 2,1 3,1 2,1 8,3 13,6 19,9 35,28 35,54 0,28 -17,42 -43,42 -39,0 -64,-34 -64,-72 0,-14 3,-28 10,-40 14,-24 40,-41 82,-41 15,0 17,0 26,2 29,10 55,31 74,60 20,-35 53,-63 106,-63 43,0 71,15 99,37 31,27 58,65 70,108 1,5 2,8 2,11 0,7 -5,8 -19,8 -17,0 -18,0 -22,-13 C 449,89 401,26 341,26 c -31,0 -51,20 -51,52 0,9 1,20 3,30 3,16 53,217 57,228 11,31 34,57 56,66 6,2 8,2 19,2 13,0 21,-1 29,-6 6,-3 11,-6 11,-7 -26,-9 -50,-28 -50,-63 0,-24 17,-40 43,-40 39,0 64,33 64,73 0,44 -36,81 -92,81 -31,0 -61,-15 -85,-42 -8,-8 -11,-14 -16,-21 -17,35 -59,63 -107,63 -7,0 -14,-1 -21,-2 -45,-7 -88,-37 -118,-82 -13,-20 -29,-55 -31,-69 0,-6 3,-8 6,-11 z"
       style="fill:#000000;fill-opacity:1;fill-rule:nonzero;stroke:#000000;stroke-width:1;stroke-linecap:butt;stroke-linejoin:miter;stroke-miterlimit:10;stroke-dasharray:none;stroke-opacity:0.0292"
       transform="matrix(0.01299223,0,0,-0.01299223,235.4236,164.95269)" />
    <path
       id="path32"
       d="m 26,385 h 51 c 48,0 51,0 51,-2 -1,-1 -17,-65 -36,-142 L 57,101 V 83 c 0,-17 0,-19 2,-27 12,-39 46,-67 96,-67 32,0 58,12 79,28 32,24 70,72 85,116 2,5 4,9 4,12 0,7 -7,8 -20,8 -16,0 -17,-1 -20,-9 -4,-10 -12,-27 -18,-37 -26,-45 -59,-74 -91,-80 -5,-1 -9,-1 -12,-1 -22,0 -27,19 -27,42 0,5 0,10 1,15 1,7 15,64 38,157 l 36,145 h 107 c 4,4 13,23 13,35 0,5 -4,8 -7,11 h -51 c -47,0 -50,0 -50,2 0,0 39,148 39,163 0,18 -15,29 -32,30 -23,0 -39,-12 -46,-28 -3,-6 -8,-25 -24,-87 L 140,431 H 87 c -58,0 -57,0 -60,-6 -2,-2 -8,-25 -8,-30 0,-5 4,-7 7,-10 z"
       style="fill:#000000;fill-opacity:1;fill-rule:nonzero;stroke:#000000;stroke-width:1;stroke-linecap:butt;stroke-linejoin:miter;stroke-miterlimit:10;stroke-dasharray:none;stroke-opacity:0.0207"
       transform="matrix(0.00918551,0,0,-0.00918551,243.28392,166.90152)" />
    <path
       id="path33"
       d="m 60,749 c -3,-2 -5,-7 -5,-11 1,-1 6,-7 11,-13 C 172,615 221,462 221,250 221,38 172,-115 66,-225 c -5,-6 -10,-12 -11,-13 0,-11 4,-12 19,-12 h 12 l 28,24 c 69,63 121,151 151,254 20,68 29,131 29,222 0,211 -66,372 -180,476 L 86,750 H 74 c -8,0 -12,-1 -14,-1 z"
       style="fill:#000000;fill-opacity:1;fill-rule:nonzero;stroke:#000000;stroke-width:1;stroke-linecap:butt;stroke-linejoin:miter;stroke-miterlimit:10;stroke-dasharray:none;stroke-opacity:0.0292"
       transform="matrix(0.01299223,0,0,-0.01299223,247.25044,164.95269)" />
    <path
       id="path34"
       d="m 262,-192 c 39,0 77,0 108,-2 h 13 c 6,6 6,5 10,19 5,21 3,19 -3,27 h -25 c -27,1 -45,0 -45,9 0,3 22,92 71,288 62,248 69,279 69,285 0,5 -7,8 -10,8 -4,0 -32,-14 -46,-24 -15,-9 -24,-21 -32,-29 -19,28 -49,52 -92,52 -47,0 -87,-18 -122,-45 C 97,350 44,267 34,179 c -1,-6 -1,-14 -1,-22 0,-48 9,-81 30,-112 24,-31 55,-55 109,-55 10,0 19,0 25,1 25,6 53,20 75,38 5,3 7,5 7,3 -4,-4 -36,-164 -49,-173 -6,-4 -28,-7 -58,-7 -22,0 -22,0 -27,-22 -1,-7 -3,-11 -3,-15 0,-6 4,-8 15,-8 33,0 67,1 105,1 M 352,326 298,109 290,98 C 265,67 223,26 179,26 c -42,0 -61,34 -61,80 0,8 1,16 1,23 5,36 27,126 41,164 18,50 59,112 117,112 44,0 63,-36 75,-79 z"
       style="fill:#000000;fill-opacity:1;fill-rule:nonzero;stroke:#000000;stroke-width:1;stroke-linecap:butt;stroke-linejoin:miter;stroke-miterlimit:10;stroke-dasharray:none;stroke-opacity:0.0292"
       transform="matrix(0.01299223,0,0,-0.01299223,149.99935,144.62709)" />
    <path
       id="path35"
       d="m 333,-241 c 0,4 -1,5 -11,15 -105,111 -155,263 -155,476 0,213 50,365 155,476 10,10 11,11 11,15 0,2 -1,4 -3,6 -3,3 -3,3 -15,3 H 302 L 274,726 C 205,663 153,575 123,473 103,403 94,342 94,250 94,39 160,-122 274,-226 l 28,-24 h 13 c 13,0 18,1 18,9 z"
       style="fill:#000000;fill-opacity:1;fill-rule:nonzero;stroke:#000000;stroke-width:1;stroke-linecap:butt;stroke-linejoin:miter;stroke-miterlimit:10;stroke-dasharray:none;stroke-opacity:0.0292"
       transform="matrix(0.01299223,0,0,-0.01299223,155.97578,144.62709)" />
    <path
       id="path36"
       d="m 58,278 h 14 c 19,0 18,1 21,12 15,53 59,114 124,114 31,0 49,-20 49,-52 0,-11 -2,-23 -5,-39 C 251,282 215,107 194,71 177,42 155,26 132,26 c -7,0 -19,2 -26,5 -5,2 -15,8 -15,9 0,0 2,1 3,1 2,1 8,3 13,6 19,9 35,28 35,54 0,28 -17,42 -43,42 -39,0 -64,-34 -64,-72 0,-14 3,-28 10,-40 14,-24 40,-41 82,-41 15,0 17,0 26,2 29,10 55,31 74,60 20,-35 53,-63 106,-63 43,0 71,15 99,37 31,27 58,65 70,108 1,5 2,8 2,11 0,7 -5,8 -19,8 -17,0 -18,0 -22,-13 C 449,89 401,26 341,26 c -31,0 -51,20 -51,52 0,9 1,20 3,30 3,16 53,217 57,228 11,31 34,57 56,66 6,2 8,2 19,2 13,0 21,-1 29,-6 6,-3 11,-6 11,-7 -26,-9 -50,-28 -50,-63 0,-24 17,-40 43,-40 39,0 64,33 64,73 0,44 -36,81 -92,81 -31,0 -61,-15 -85,-42 -8,-8 -11,-14 -16,-21 -17,35 -59,63 -107,63 -7,0 -14,-1 -21,-2 -45,-7 -88,-37 -118,-82 -13,-20 -29,-55 -31,-69 0,-6 3,-8 6,-11 z"
       style="fill:#000000;fill-opacity:1;fill-rule:nonzero;stroke:#000000;stroke-width:1;stroke-linecap:butt;stroke-linejoin:miter;stroke-miterlimit:10;stroke-dasharray:none;stroke-opacity:0.0292"
       transform="matrix(0.01299223,0,0,-0.01299223,161.02975,144.62709)" />
    <path
       id="path37"
       d="m 26,385 h 51 c 48,0 51,0 51,-2 -1,-1 -17,-65 -36,-142 L 57,101 V 83 c 0,-17 0,-19 2,-27 12,-39 46,-67 96,-67 32,0 58,12 79,28 32,24 70,72 85,116 2,5 4,9 4,12 0,7 -7,8 -20,8 -16,0 -17,-1 -20,-9 -4,-10 -12,-27 -18,-37 -26,-45 -59,-74 -91,-80 -5,-1 -9,-1 -12,-1 -22,0 -27,19 -27,42 0,5 0,10 1,15 1,7 15,64 38,157 l 36,145 h 107 c 4,4 13,23 13,35 0,5 -4,8 -7,11 h -51 c -47,0 -50,0 -50,2 0,0 39,148 39,163 0,18 -15,29 -32,30 -23,0 -39,-12 -46,-28 -3,-6 -8,-25 -24,-87 L 140,431 H 87 c -58,0 -57,0 -60,-6 -2,-2 -8,-25 -8,-30 0,-5 4,-7 7,-10 z"
       style="fill:#000000;fill-opacity:1;fill-rule:nonzero;stroke:#000000;stroke-width:1;stroke-linecap:butt;stroke-linejoin:miter;stroke-miterlimit:10;stroke-dasharray:none;stroke-opacity:0.0207"
       transform="matrix(0.00918551,0,0,-0.00918551,168.89005,146.5759)" />
    <path
       id="path38"
       d="m 139,-249 c 11,0 16,6 20,14 v 970 c -4,8 -10,15 -20,15 -10,0 -15,-8 -19,-13 l -1,-486 v -486 c 4,-8 9,-14 20,-14 z"
       style="fill:#000000;fill-opacity:1;fill-rule:nonzero;stroke:#000000;stroke-width:1;stroke-linecap:butt;stroke-linejoin:miter;stroke-miterlimit:10;stroke-dasharray:none;stroke-opacity:0.0292"
       transform="matrix(0.01299223,0,0,-0.01299223,172.85658,144.63357)" />
    <path
       id="path39"
       d="m 58,278 h 14 c 19,0 18,1 21,12 15,53 59,114 124,114 31,0 49,-20 49,-52 0,-11 -2,-23 -5,-39 C 251,282 215,107 194,71 177,42 155,26 132,26 c -7,0 -19,2 -26,5 -5,2 -15,8 -15,9 0,0 2,1 3,1 2,1 8,3 13,6 19,9 35,28 35,54 0,28 -17,42 -43,42 -39,0 -64,-34 -64,-72 0,-14 3,-28 10,-40 14,-24 40,-41 82,-41 15,0 17,0 26,2 29,10 55,31 74,60 20,-35 53,-63 106,-63 43,0 71,15 99,37 31,27 58,65 70,108 1,5 2,8 2,11 0,7 -5,8 -19,8 -17,0 -18,0 -22,-13 C 449,89 401,26 341,26 c -31,0 -51,20 -51,52 0,9 1,20 3,30 3,16 53,217 57,228 11,31 34,57 56,66 6,2 8,2 19,2 13,0 21,-1 29,-6 6,-3 11,-6 11,-7 -26,-9 -50,-28 -50,-63 0,-24 17,-40 43,-40 39,0 64,33 64,73 0,44 -36,81 -92,81 -31,0 -61,-15 -85,-42 -8,-8 -11,-14 -16,-21 -17,35 -59,63 -107,63 -7,0 -14,-1 -21,-2 -45,-7 -88,-37 -118,-82 -13,-20 -29,-55 -31,-69 0,-6 3,-8 6,-11 z"
       style="fill:#000000;fill-opacity:1;fill-rule:nonzero;stroke:#000000;stroke-width:1;stroke-linecap:butt;stroke-linejoin:miter;stroke-miterlimit:10;stroke-dasharray:none;stroke-opacity:0.0292"
       transform="matrix(0.01299223,0,0,-0.01299223,176.46841,144.62709)" />
    <path
       id="path40"
       d="M 96,585 C 53,516 39,442 39,320 39,210 51,142 82,83 112,24 167,-22 250,-22 c 29,0 57,7 85,21 37,18 62,43 82,84 31,59 43,127 43,237 0,103 -11,170 -37,228 -13,29 -27,50 -46,68 -35,32 -81,50 -128,50 -67,0 -120,-33 -153,-81 m 225,12 c 29,-30 37,-62 40,-170 0,-18 1,-55 1,-94 0,-55 -1,-115 -2,-134 C 355,106 347,76 318,46 301,27 282,16 250,16 c -32,0 -52,11 -69,30 -29,30 -37,60 -42,153 -1,19 -2,79 -2,134 0,39 1,76 1,94 3,108 11,140 40,170 20,21 46,32 72,32 31,0 53,-12 71,-32 z"
       style="fill:#000000;fill-opacity:1;fill-rule:nonzero;stroke:#000000;stroke-width:1;stroke-linecap:butt;stroke-linejoin:miter;stroke-miterlimit:10;stroke-dasharray:none;stroke-opacity:0.0207"
       transform="matrix(0.00918551,0,0,-0.00918551,184.3287,146.5759)" />
    <path
       id="path41"
       d="m 60,749 c -3,-2 -5,-7 -5,-11 1,-1 6,-7 11,-13 C 172,615 221,462 221,250 221,38 172,-115 66,-225 c -5,-6 -10,-12 -11,-13 0,-11 4,-12 19,-12 h 12 l 28,24 c 69,63 121,151 151,254 20,68 29,131 29,222 0,211 -66,372 -180,476 L 86,750 H 74 c -8,0 -12,-1 -14,-1 z"
       style="fill:#000000;fill-opacity:1;fill-rule:nonzero;stroke:#000000;stroke-width:1;stroke-linecap:butt;stroke-linejoin:miter;stroke-miterlimit:10;stroke-dasharray:none;stroke-opacity:0.0292"
       transform="matrix(0.01299223,0,0,-0.01299223,189.57109,144.62709)" />
    <path
       id="path42"
       d="m 440,250 v 48.63"
       style="fill:none;stroke:#000000;stroke-width:1;stroke-linecap:butt;stroke-linejoin:miter;stroke-miterlimit:10;stroke-dasharray:none;stroke-opacity:1"
       transform="matrix(0.9238918,0,0,0.9238918,-7.5435507,-30.031779)" />
    <path
       id="path43"
       d="m 440,303.88 -3.5,-7 3.5,1.75 3.5,-1.75 z"
       style="fill:#000000;fill-opacity:1;fill-rule:nonzero;stroke:#000000;stroke-width:1;stroke-linecap:butt;stroke-linejoin:miter;stroke-miterlimit:10;stroke-dasharray:none;stroke-opacity:1"
       transform="matrix(0.9238918,0,0,0.9238918,-7.5435507,-30.031779)" />
    <path
       id="path44"
       d="M 360,150 H 520 V 250 H 360 Z"
       style="fill:#f5f5f5;fill-opacity:1;fill-rule:nonzero;stroke:#666666;stroke-width:1;stroke-linecap:butt;stroke-linejoin:miter;stroke-miterlimit:10;stroke-dasharray:none;stroke-opacity:1"
       transform="matrix(0.9238918,0,0,0.9238918,-7.5435507,-30.031779)" />
    <g
       id="g44" />
    <text
       id="text44"
       xml:space="preserve"
       transform="matrix(0.9238918,0,0,0.9238918,373.86497,161.67577)"><tspan
         id="tspan44"
         style="font-variant:normal;font-weight:700;font-size:20px;font-family:Arial;writing-mode:lr-tb;fill:#333333;fill-opacity:1;fill-rule:nonzero;stroke:none"
         x="0"
         y="0">U-Net</tspan></text>
    <g
       id="g45" />
    <text
       id="text45"
       xml:space="preserve"
       transform="matrix(0.9238918,0,0,0.9238918,153.54565,51.732644)"><tspan
         id="tspan45"
         style="font-variant:normal;font-weight:normal;font-size:12px;font-family:Arial;writing-mode:lr-tb;fill:#000000;fill-opacity:1;fill-rule:nonzero;stroke:none"
         x="0"
         dx="0 -0.44531247"
         y="0">Time Embedding</tspan></text>
    <path
       id="path45"
       d="M 385,340 H 286.37"
       style="fill:none;stroke:#000000;stroke-width:1;stroke-linecap:butt;stroke-linejoin:miter;stroke-miterlimit:10;stroke-dasharray:none;stroke-opacity:1"
       transform="matrix(0.9238918,0,0,0.9238918,-7.5435507,-30.031779)" />
    <path
       id="path46"
       d="m 281.12,340 7,-3.5 -1.75,3.5 1.75,3.5 z"
       style="fill:#000000;fill-opacity:1;fill-rule:nonzero;stroke:#000000;stroke-width:1;stroke-linecap:butt;stroke-linejoin:miter;stroke-miterlimit:10;stroke-dasharray:none;stroke-opacity:1"
       transform="matrix(0.9238918,0,0,0.9238918,-7.5435507,-30.031779)" />
    <path
       id="path47"
       d="m 495,340 c 0,1.14627 -0.0883,2.28979 -0.26486,3.43057 -0.17658,1.14078 -0.44058,2.27329 -0.79202,3.39756 -0.35141,1.12426 -0.78855,2.23486 -1.31147,3.33181 -0.52285,1.09696 -1.12899,2.17493 -1.81836,3.23395 -0.6893,1.05905 -1.45852,2.09403 -2.30764,3.10498 -0.84916,1.01096 -1.77408,1.99298 -2.77485,2.94608 -1.00076,0.95309 -2.07251,1.87271 -3.21524,2.75879 -1.14276,0.8861 -2.35101,1.73443 -3.62472,2.54498 -1.27371,0.81058 -2.60678,1.57944 -3.99924,2.30661 -1.39242,0.7272 -2.83752,1.40924 -4.3353,2.04605 -1.49771,0.63687 -3.04086,1.22546 -4.62948,1.76581 -1.58862,0.54037 -3.21506,1.02987 -4.87927,1.46853 -1.66419,0.43869 -3.35816,0.82444 -5.08191,1.15717 -1.72376,0.33273 -3.469,0.61093 -5.23572,0.83456 -1.76669,0.22367 -3.54636,0.39167 -5.33899,0.50403 C 443.5983,374.94382 441.80133,375 440,375 c -1.80133,0 -3.59833,-0.0562 -5.39096,-0.16855 -1.79263,-0.11236 -3.57233,-0.28036 -5.33905,-0.50403 -1.76669,-0.2236 -3.51193,-0.5018 -5.23569,-0.83453 -1.72375,-0.33273 -3.41772,-0.71845 -5.08194,-1.15714 -1.66418,-0.43862 -3.29059,-0.92813 -4.87921,-1.4685 -1.58862,-0.54038 -3.1318,-1.129 -4.62958,-1.76587 -1.49771,-0.63681 -2.94281,-1.31882 -4.33523,-2.04599 -1.39243,-0.7272 -2.72553,-1.49609 -3.99924,-2.30667 -1.27371,-0.81055 -2.48193,-1.65888 -3.62466,-2.54495 -1.14273,-0.88611 -2.21451,-1.80573 -3.21531,-2.75885 -1.00076,-0.9531 -1.92569,-1.93512 -2.77484,-2.94605 -0.84912,-1.01095 -1.61834,-2.04593 -2.30771,-3.10498 -0.6893,-1.05902 -1.29538,-2.13699 -1.81829,-3.23395 -0.52289,-1.09695 -0.96006,-2.20755 -1.3115,-3.33181 -0.35141,-1.12427 -0.61538,-2.25678 -0.79193,-3.39756 C 385.08832,342.28979 385.00003,341.14627 385,340 c 3e-5,-1.1463 0.0883,-2.28983 0.26486,-3.4306 0.17655,-1.14078 0.44052,-2.27329 0.7919,-3.39759 0.35144,-1.12423 0.78861,-2.23483 1.31153,-3.33178 0.52291,-1.09696 1.12899,-2.17493 1.81829,-3.23398 0.68937,-1.05905 1.45859,-2.09403 2.30774,-3.10495 0.84912,-1.01096 1.77405,-1.99298 2.77481,-2.94608 1.0008,-0.95306 2.07258,-1.87265 3.21531,-2.75876 1.14273,-0.8861 2.35095,-1.73443 3.62466,-2.54501 1.27371,-0.81052 2.60681,-1.57941 3.99924,-2.30661 1.39242,-0.7272 2.83752,-1.40921 4.33523,-2.04608 1.49778,-0.63684 3.04096,-1.22543 4.62958,-1.76581 1.58862,-0.54037 3.21503,-1.02988 4.87921,-1.46857 1.66422,-0.43866 3.35819,-0.82437 5.08194,-1.1571 1.72376,-0.33273 3.469,-0.61093 5.23569,-0.83456 1.76672,-0.22361 3.54642,-0.39161 5.33905,-0.50397 1.79263,-0.11234 3.58963,-0.16852 5.39096,-0.16855 1.80133,3e-5 3.59833,0.0562 5.39096,0.16855 1.7926,0.11236 3.57227,0.28036 5.33896,0.50397 1.76672,0.22363 3.51196,0.50183 5.23572,0.83456 1.72375,0.33273 3.41772,0.71844 5.08191,1.1571 1.66421,0.43869 3.29065,0.9282 4.87924,1.46857 1.58865,0.54038 3.1318,1.12897 4.62951,1.76581 1.49778,0.63687 2.94288,1.31888 4.33533,2.04608 1.39243,0.7272 2.7255,1.49609 3.99921,2.30661 1.27371,0.81058 2.48196,1.65891 3.62472,2.54501 1.14273,0.88611 2.21448,1.8057 3.21524,2.75876 1.00077,0.9531 1.92569,1.93512 2.77485,2.94608 0.84912,1.01092 1.61834,2.0459 2.30764,3.10495 0.68937,1.05905 1.29551,2.13705 1.81836,3.23401 0.52292,1.09692 0.96009,2.20752 1.3115,3.33175 0.35144,1.1243 0.61544,2.25681 0.79199,3.39759 C 494.91171,337.71017 495,338.8537 495,340 Z"
       style="fill:#dae8fc;fill-opacity:1;fill-rule:nonzero;stroke:#6c8ebf;stroke-width:1;stroke-linecap:butt;stroke-linejoin:miter;stroke-miterlimit:10;stroke-dasharray:none;stroke-opacity:1"
       transform="matrix(0.9238918,0,0,0.9238918,-7.5435507,-30.031779)" />
    <g
       id="g47" />
    <text
       id="text47"
       xml:space="preserve"
       transform="matrix(0.9238918,0,0,0.9238918,359.37142,280.85781)"><tspan
         id="tspan47"
         style="font-variant:normal;font-weight:normal;font-size:12px;font-family:Arial;writing-mode:lr-tb;fill:#000000;fill-opacity:1;fill-rule:nonzero;stroke:none"
         x="0"
         y="0">Predicted Noise</tspan></text>
    <path
       id="path48"
       d="m 333,-241 c 0,4 -1,5 -11,15 -105,111 -155,263 -155,476 0,213 50,365 155,476 10,10 11,11 11,15 0,2 -1,4 -3,6 -3,3 -3,3 -15,3 H 302 L 274,726 C 205,663 153,575 123,473 103,403 94,342 94,250 94,39 160,-122 274,-226 l 28,-24 h 13 c 13,0 18,1 18,9 z"
       style="fill:#000000;fill-opacity:1;fill-rule:nonzero;stroke:#000000;stroke-width:1;stroke-linecap:butt;stroke-linejoin:miter;stroke-miterlimit:10;stroke-dasharray:none;stroke-opacity:0.0292"
       transform="matrix(0.01299223,0,0,-0.01299223,388.35319,294.29757)" />
    <path
       id="path49"
       d="m 138,217 v 2 h 182 c 12,5 20,15 20,27 0,10 -6,14 -13,19 H 150 l 4,12 c 21,62 66,100 129,107 4,1 24,1 42,1 20,0 35,0 37,1 10,3 19,13 20,23 0,13 -6,18 -15,22 h -38 c -21,0 -40,0 -42,-1 C 200,423 129,377 87,322 55,281 40,242 40,174 40,88 87,28 153,3 c 23,-9 46,-14 74,-14 29,0 56,6 85,19 18,8 42,22 45,27 3,3 2,5 -2,18 -3,11 -4,15 -12,15 -1,0 -7,-3 -13,-7 -27,-18 -49,-28 -71,-32 -9,-2 -19,-3 -28,-3 -21,0 -40,5 -56,16 -32,20 -47,50 -47,101 0,27 4,54 10,74 z"
       style="fill:#000000;fill-opacity:1;fill-rule:nonzero;stroke:#000000;stroke-width:1;stroke-linecap:butt;stroke-linejoin:miter;stroke-miterlimit:10;stroke-dasharray:none;stroke-opacity:0.0292"
       transform="matrix(0.01299223,0,0,-0.01299223,393.40713,294.29757)" />
    <path
       id="path50"
       d="M 319,704 C 278,698 235,671 196,628 122,546 69,432 45,301 38,264 35,236 35,200 35,124 52,59 88,21 106,2 127,-10 161,-10 h 7 c 19,0 32,4 54,14 59,29 123,104 169,199 36,74 61,164 69,249 1,8 2,26 2,43 0,68 -14,123 -39,161 -21,31 -43,45 -84,49 -8,0 -17,-1 -20,-1 m 64,-138 c 0,-32 -5,-70 -14,-117 -3,-17 -17,-77 -18,-78 0,0 -49,-1 -97,-1 -48,0 -97,1 -97,1 0,1 14,55 20,74 24,80 51,137 85,180 23,28 46,43 68,43 38,0 53,-44 53,-102 M 335,307 C 308,203 284,141 250,91 221,48 192,26 166,26 c -14,0 -22,4 -29,12 -14,15 -24,50 -24,94 0,44 11,105 31,185 l 1,7 h 195 z"
       style="fill:#000000;fill-opacity:1;fill-rule:nonzero;stroke:#000000;stroke-width:1;stroke-linecap:butt;stroke-linejoin:miter;stroke-miterlimit:10;stroke-dasharray:none;stroke-opacity:0.0207"
       transform="matrix(0.00918551,0,0,-0.00918551,399.11076,296.24639)" />
    <path
       id="path51"
       d="m 60,749 c -3,-2 -5,-7 -5,-11 1,-1 6,-7 11,-13 C 172,615 221,462 221,250 221,38 172,-115 66,-225 c -5,-6 -10,-12 -11,-13 0,-11 4,-12 19,-12 h 12 l 28,24 c 69,63 121,151 151,254 20,68 29,131 29,222 0,211 -66,372 -180,476 L 86,750 H 74 c -8,0 -12,-1 -14,-1 z"
       style="fill:#000000;fill-opacity:1;fill-rule:nonzero;stroke:#000000;stroke-width:1;stroke-linecap:butt;stroke-linejoin:miter;stroke-miterlimit:10;stroke-dasharray:none;stroke-opacity:0.0292"
       transform="matrix(0.01299223,0,0,-0.01299223,404.06858,294.29757)" />
    <path
       id="path52"
       d="M 240,300 V 275 H 360 V 256.37"
       style="fill:none;stroke:#000000;stroke-width:1;stroke-linecap:butt;stroke-linejoin:miter;stroke-miterlimit:10;stroke-dasharray:none;stroke-opacity:1"
       transform="matrix(0.9238918,0,0,0.9238918,-7.5435507,-30.031779)" />
    <path
       id="path53"
       d="m 360,251.12 3.5,7 -3.5,-1.75 -3.5,1.75 z"
       style="fill:#000000;fill-opacity:1;fill-rule:nonzero;stroke:#000000;stroke-width:1;stroke-linecap:butt;stroke-linejoin:miter;stroke-miterlimit:10;stroke-dasharray:none;stroke-opacity:1"
       transform="matrix(0.9238918,0,0,0.9238918,-7.5435507,-30.031779)" />
    <path
       id="path54"
       d="m 240,300 40,40 -40,40 -40,-40 z"
       style="fill:#fff2cc;fill-opacity:1;fill-rule:nonzero;stroke:#d6b656;stroke-width:1;stroke-linecap:butt;stroke-linejoin:miter;stroke-miterlimit:10;stroke-dasharray:none;stroke-opacity:1"
       transform="matrix(0.9238918,0,0,0.9238918,-7.5435507,-30.031779)" />
    <g
       id="g54" />
    <text
       id="text54"
       xml:space="preserve"
       transform="matrix(0.9238918,0,0,0.9238918,202.00666,287.32505)"><tspan
         id="tspan54"
         style="font-variant:normal;font-weight:normal;font-size:12px;font-family:Arial;writing-mode:lr-tb;fill:#000000;fill-opacity:1;fill-rule:nonzero;stroke:none"
         x="0"
         y="0">Loss</tspan></text>
    <g
       id="g55" />
    <text
       id="text55"
       xml:space="preserve"
       transform="matrix(0.9238918,0,0,0.9238918,227.54361,239.28268)"><tspan
         id="tspan55"
         style="font-variant:normal;font-weight:normal;font-size:12px;font-family:Arial;writing-mode:lr-tb;fill:#000000;fill-opacity:1;fill-rule:nonzero;stroke:none"
         x="0"
         y="0">Backpropagation</tspan></text>
    <g
       id="g56" />
    <text
       id="text56"
       xml:space="preserve"
       transform="matrix(0.9238918,0,0,0.9238918,328.69532,36.026483)"><tspan
         id="tspan56"
         style="font-variant:normal;font-weight:700;font-size:16px;font-family:Arial;writing-mode:lr-tb;fill:#000000;fill-opacity:1;fill-rule:nonzero;stroke:none"
         x="0"
         y="0">Denoising Diffusion</tspan></text>
    <g
       id="g57" />
    <text
       id="text57"
       xml:space="preserve"
       transform="matrix(0.9238918,0,0,0.9238918,326.63101,53.580427)"><tspan
         id="tspan57"
         style="font-variant:normal;font-weight:700;font-size:16px;font-family:Arial;writing-mode:lr-tb;fill:#000000;fill-opacity:1;fill-rule:nonzero;stroke:none"
         x="0"
         y="0">Probabilistic Models</tspan></text>
    <g
       id="g58" />
    <text
       id="text58"
       xml:space="preserve"
       transform="matrix(0.9238918,0,0,0.9238918,371.81509,71.134371)"><tspan
         id="tspan58"
         style="font-variant:normal;font-weight:700;font-size:16px;font-family:Arial;writing-mode:lr-tb;fill:#000000;fill-opacity:1;fill-rule:nonzero;stroke:none"
         x="0"
         y="0">(DDPM)</tspan></text>
  </g>
</svg>
