<?xml version="1.0" encoding="UTF-8" standalone="no"?>
<!-- Created with Inkscape (http://www.inkscape.org/) -->

<svg
   version="1.1"
   id="svg1"
   width="894.71997"
   height="587.84003"
   viewBox="0 0 894.71997 587.84003"
   sodipodi:docname="GAN.pdf"
   xmlns:inkscape="http://www.inkscape.org/namespaces/inkscape"
   xmlns:sodipodi="http://sodipodi.sourceforge.net/DTD/sodipodi-0.dtd"
   xmlns="http://www.w3.org/2000/svg"
   xmlns:svg="http://www.w3.org/2000/svg">
  <defs
     id="defs1">
    <clipPath
       clipPathUnits="userSpaceOnUse"
       id="clipPath2">
      <path
         d="M 0,0 H 894.71871 V 588.15998 H 0 Z"
         clip-rule="evenodd"
         id="path2" />
    </clipPath>
    <linearGradient
       x1="0"
       y1="0"
       x2="0"
       y2="1"
       gradientUnits="userSpaceOnUse"
       gradientTransform="matrix(200,0,0,439.99999,320.00003,399.99999)"
       spreadMethod="pad"
       id="linearGradient7">
      <stop
         style="stop-opacity:1;stop-color:#fff2cc"
         offset="0"
         id="stop6" />
      <stop
         style="stop-opacity:1;stop-color:#ffd966"
         offset="1"
         id="stop7" />
    </linearGradient>
    <linearGradient
       x1="0"
       y1="0"
       x2="0"
       y2="1"
       gradientUnits="userSpaceOnUse"
       gradientTransform="matrix(200,0,0,439.99999,40.000001,399.99999)"
       spreadMethod="pad"
       id="linearGradient10">
      <stop
         style="stop-opacity:1;stop-color:#dae8fc"
         offset="0"
         id="stop9" />
      <stop
         style="stop-opacity:1;stop-color:#7ea6e0"
         offset="1"
         id="stop10" />
    </linearGradient>
    <linearGradient
       x1="0"
       y1="0"
       x2="0"
       y2="1"
       gradientUnits="userSpaceOnUse"
       gradientTransform="matrix(120.00001,0,0,80.000004,80.000008,480.00002)"
       spreadMethod="pad"
       id="linearGradient13">
      <stop
         style="stop-opacity:1;stop-color:#ffcd28"
         offset="0"
         id="stop12" />
      <stop
         style="stop-opacity:1;stop-color:#ffa500"
         offset="1"
         id="stop13" />
    </linearGradient>
    <linearGradient
       x1="0"
       y1="0"
       x2="0"
       y2="1"
       gradientUnits="userSpaceOnUse"
       gradientTransform="matrix(120.00001,0,0,60.000003,80.000008,599.99999)"
       spreadMethod="pad"
       id="linearGradient16">
      <stop
         style="stop-opacity:1;stop-color:#f5f5f5"
         offset="0"
         id="stop15" />
      <stop
         style="stop-opacity:1;stop-color:#b3b3b3"
         offset="1"
         id="stop16" />
    </linearGradient>
    <linearGradient
       x1="0"
       y1="0"
       x2="0"
       y2="1"
       gradientUnits="userSpaceOnUse"
       gradientTransform="matrix(120.00001,0,0,80.000004,80.000008,720.00002)"
       spreadMethod="pad"
       id="linearGradient19">
      <stop
         style="stop-opacity:1;stop-color:#f8cecc"
         offset="0"
         id="stop18" />
      <stop
         style="stop-opacity:1;stop-color:#ea6b66"
         offset="1"
         id="stop19" />
    </linearGradient>
    <linearGradient
       x1="0"
       y1="0"
       x2="0"
       y2="1"
       gradientUnits="userSpaceOnUse"
       gradientTransform="matrix(120.00001,0,0,80.000004,359.99998,480.00002)"
       spreadMethod="pad"
       id="linearGradient22">
      <stop
         style="stop-opacity:1;stop-color:#d5e8d4"
         offset="0"
         id="stop21" />
      <stop
         style="stop-opacity:1;stop-color:#97d077"
         offset="1"
         id="stop22" />
    </linearGradient>
    <linearGradient
       x1="0"
       y1="0"
       x2="0"
       y2="1"
       gradientUnits="userSpaceOnUse"
       gradientTransform="matrix(120.00001,0,0,60.000003,359.99998,599.99999)"
       spreadMethod="pad"
       id="linearGradient25">
      <stop
         style="stop-opacity:1;stop-color:#f5f5f5"
         offset="0"
         id="stop24" />
      <stop
         style="stop-opacity:1;stop-color:#b3b3b3"
         offset="1"
         id="stop25" />
    </linearGradient>
    <linearGradient
       x1="0"
       y1="0"
       x2="0"
       y2="1"
       gradientUnits="userSpaceOnUse"
       gradientTransform="matrix(120.00001,0,0,80.000004,359.99998,720.00002)"
       spreadMethod="pad"
       id="linearGradient27">
      <stop
         style="stop-opacity:1;stop-color:#e6d0de"
         offset="0"
         id="stop26" />
      <stop
         style="stop-opacity:1;stop-color:#d5739d"
         offset="1"
         id="stop27" />
    </linearGradient>
  </defs>
  <sodipodi:namedview
     id="namedview1"
     pagecolor="#ffffff"
     bordercolor="#000000"
     borderopacity="0.25"
     inkscape:showpageshadow="2"
     inkscape:pageopacity="0.0"
     inkscape:pagecheckerboard="0"
     inkscape:deskcolor="#d1d1d1">
    <inkscape:page
       x="0"
       y="0"
       inkscape:label="1"
       id="page1"
       width="894.71997"
       height="587.84003"
       margin="0"
       bleed="0" />
  </sodipodi:namedview>
  <g
     id="g1"
     inkscape:groupmode="layer"
     inkscape:label="1">
    <path
       id="path1"
       d="M 0,0 H 895 V 588 H 0 Z"
       style="fill:#ffffff;fill-opacity:1;fill-rule:nonzero;stroke:none"
       clip-path="url(#clipPath2)" />
    <path
       id="path3"
       d="m 91.5,310 h 747 c 1.4975,0 2.99402,0.0367 4.48969,0.11023 1.49566,0.0735 2.98858,0.18362 4.47888,0.33038 1.49017,0.14679 2.97589,0.33005 4.45715,0.54975 1.48126,0.21972 2.95624,0.47567 4.42493,0.76782 1.46869,0.29214 2.92932,0.62012 4.38195,0.98398 1.45258,0.36383 2.89539,0.76309 4.32844,1.19781 1.43298,0.43466 2.85443,0.90427 4.26434,1.40875 1.40991,0.50449 2.80658,1.04325 4.19006,1.61631 1.38349,0.57306 2.75208,1.17971 4.10578,1.81997 1.35369,0.64023 2.69085,1.31333 4.01147,2.01923 1.32068,0.7059 2.62323,1.44376 3.90759,2.21359 1.28449,0.76984 2.54926,1.57074 3.79431,2.40271 1.24512,0.83194 2.46906,1.69394 3.67182,2.58597 1.20282,0.89203 2.38299,1.81305 3.54059,2.76303 1.15753,0.94998 2.29107,1.9278 3.40063,2.93341 1.10956,1.00565 2.19373,2.0379 3.25263,3.09677 1.0589,1.05887 2.09112,2.14307 3.0968,3.25263 1.00561,1.10956 1.9834,2.2431 2.93341,3.40066 0.95001,1.15757 1.87097,2.33771 2.763,3.5405 0.89203,1.20276 1.75403,2.4267 2.58594,3.67178 0.83197,1.24509 1.63287,2.50986 2.40271,3.79428 0.76983,1.28443 1.50775,2.58698 2.21368,3.90763 0.70587,1.32065 1.37897,2.6578 2.01923,4.0115 0.64019,1.35367 1.24682,2.72226 1.81988,4.10575 0.57306,1.38348 1.11188,2.78018 1.61634,4.19012 0.50445,1.40994 0.97406,2.83139 1.40875,4.26437 0.43469,1.43299 0.83392,2.87577 1.19775,4.32837 0.36383,1.45258 0.69183,2.91321 0.98401,4.38193 0.29218,1.46866 0.5481,2.94363 0.76782,4.42493 0.21979,1.48123 0.40302,2.96701 0.54981,4.45727 0.14679,1.49024 0.25689,2.98319 0.33032,4.47885 0.0735,1.49567 0.11023,2.99225 0.11029,4.48972 v 427 c -6e-5,1.49744 -0.0368,2.99396 -0.11029,4.48962 -0.0734,1.49567 -0.18353,2.98859 -0.33032,4.47889 -0.14679,1.49023 -0.33002,2.97595 -0.54981,4.45721 -0.21972,1.48126 -0.47564,2.95624 -0.76782,4.42493 -0.29218,1.46869 -0.62018,2.92938 -0.98401,4.38195 -0.36383,1.45258 -0.76306,2.89539 -1.19775,4.32837 -0.43469,1.43299 -0.9043,2.85444 -1.40875,4.26435 -0.50446,1.40991 -1.04328,2.80664 -1.61634,4.19012 -0.57306,1.38349 -1.17969,2.75208 -1.81988,4.10578 -0.64026,1.35369 -1.31336,2.69091 -2.01929,4.01153 -0.70587,1.32062 -1.44379,2.62311 -2.21362,3.90753 -0.76984,1.28443 -1.57074,2.5492 -2.40271,3.79425 -0.83191,1.24512 -1.69391,2.46906 -2.58594,3.67182 -0.89203,1.20282 -1.81299,2.38305 -2.763,3.54059 -0.95001,1.15753 -1.9278,2.29107 -2.93341,3.40057 -1.00568,1.10956 -2.0379,2.19379 -3.0968,3.25269 -1.0589,1.05889 -2.14307,2.09112 -3.25257,3.0968 -1.10956,1.00567 -2.2431,1.98346 -3.40063,2.93347 -1.15759,0.94995 -2.33777,1.87091 -3.54059,2.76294 -1.20276,0.89203 -2.4267,1.75397 -3.67181,2.58594 -1.24512,0.83197 -2.50989,1.63287 -3.79432,2.40277 -1.28442,0.76983 -2.58691,1.50775 -3.90753,2.21362 -1.32062,0.70587 -2.65777,1.37897 -4.01147,2.01916 -1.35376,0.64026 -2.72235,1.24689 -4.10584,1.81995 -1.38348,0.573 -2.78021,1.11176 -4.19012,1.61633 -1.40991,0.50446 -2.83136,0.97406 -4.26434,1.40882 -1.43305,0.43463 -2.87586,0.83392 -4.32844,1.19775 -1.45263,0.36383 -2.91326,0.69183 -4.38195,0.98401 -1.46869,0.29218 -2.94367,0.5481 -4.42493,0.76788 -1.48126,0.21967 -2.96698,0.40296 -4.45715,0.54981 -1.4903,0.14673 -2.98322,0.25683 -4.47888,0.33032 C 841.49402,919.96326 839.9975,920 838.5,920 h -747 c -1.497475,0 -2.994041,-0.0367 -4.4897,-0.11023 -1.495659,-0.0735 -2.988617,-0.18359 -4.478875,-0.33038 -1.490257,-0.14679 -2.976013,-0.33008 -4.457267,-0.54981 -1.481255,-0.21972 -2.95623,-0.47564 -4.424927,-0.76782 -1.468689,-0.29218 -2.929329,-0.62012 -4.38192,-0.98395 -1.452583,-0.36389 -2.89537,-0.76318 -4.328354,-1.19781 -1.432987,-0.43476 -2.854446,-0.90436 -4.264377,-1.40882 -1.409935,-0.50457 -2.806641,-1.04333 -4.190121,-1.61633 -1.383476,-0.57306 -2.75206,-1.17969 -4.105755,-1.81995 -1.353691,-0.64019 -2.690861,-1.31329 -4.011509,-2.01916 -1.320652,-0.70587 -2.623184,-1.44379 -3.907604,-2.21368 -1.28442,-0.76984 -2.549175,-1.57074 -3.794273,-2.40271 -1.245099,-0.83197 -2.469033,-1.69391 -3.671811,-2.58594 -1.202777,-0.89203 -2.382942,-1.81305 -3.540496,-2.763 -1.157559,-0.94995 -2.29111,-1.92774 -3.400658,-2.93341 -1.109549,-1.00568 -2.193758,-2.03791 -3.252625,-3.0968 -1.058868,-1.0589 -2.091119,-2.14313 -3.096756,-3.25269 -1.005636,-1.10956 -1.983446,-2.2431 -2.933427,-3.40063 -0.949984,-1.15754 -1.870995,-2.33771 -2.763033,-3.54053 -0.892041,-1.20276 -1.754034,-2.4267 -2.585982,-3.67182 -0.831947,-1.24505 -1.632846,-2.50982 -2.402697,-3.79425 -0.769852,-1.28442 -1.507728,-2.58691 -2.213628,-3.90753 -0.705901,-1.32062 -1.3789759,-2.65784 -2.0192252,-4.01153 -0.6402502,-1.3537 -1.2469024,-2.72229 -1.8199577,-4.10578 -0.5730558,-1.38348 -1.111824,-2.78021 -1.6163049,-4.19012 -0.5044808,-1.40991 -0.9740667,-2.83136 -1.4087582,-4.26435 -0.4346916,-1.43298 -0.8339645,-2.87579 -1.1978189,-4.32843 -0.3638547,-1.45257 -0.6918524,-2.9132 -0.9839935,-4.38189 -0.292141,-1.46869 -0.5480736,-2.94367 -0.76779743,-4.42493 -0.21972388,-1.4812 -0.40297442,-2.96692 -0.5497517,-4.45715 C 0.29382014,835.97827 0.1836929,834.48535 0.11021575,832.98969 0.03673858,831.49402 0,829.99744 0,828.5 v -427 c 0,-1.49747 0.03673858,-2.99405 0.11021575,-4.48972 0.0734771,-1.49566 0.18360439,-2.98861 0.33038172,-4.47888 0.14677728,-1.49026 0.33002782,-2.97601 0.5497517,-4.45724 0.21972383,-1.4813 0.47565643,-2.95627 0.76779743,-4.42493 0.2921411,-1.46872 0.6201388,-2.92935 0.9839935,-4.38193 0.3638544,-1.4526 0.7631273,-2.89538 1.1978189,-4.32837 0.4346915,-1.43298 0.9042774,-2.85446 1.4087582,-4.2644 0.5044809,-1.40991 1.0432491,-2.80661 1.6163049,-4.19009 0.5730553,-1.38349 1.1797075,-2.75208 1.8199568,-4.10575 0.6402492,-1.3537 1.3133241,-2.69085 2.0192251,-4.0115 0.705899,-1.32065 1.443775,-2.6232 2.213627,-3.90763 0.769851,-1.28442 1.57075,-2.54919 2.402698,-3.79428 0.831947,-1.24508 1.693941,-2.46902 2.585981,-3.67178 0.892038,-1.20279 1.813049,-2.38293 2.763033,-3.5405 0.949981,-1.15756 1.927791,-2.2911 2.933428,-3.40066 1.005636,-1.10956 2.037889,-2.19376 3.096757,-3.25263 1.058867,-1.05887 2.143076,-2.09112 3.252625,-3.09677 1.109548,-1.00561 2.243099,-1.98343 3.400658,-2.93341 1.157554,-0.94998 2.337719,-1.871 3.540496,-2.76303 1.202778,-0.89206 2.426716,-1.75406 3.671814,-2.586 1.245098,-0.83194 2.509854,-1.63284 3.794274,-2.40271 1.28442,-0.76983 2.586956,-1.50769 3.907604,-2.21359 1.320648,-0.7059 2.657818,-1.37897 4.011509,-2.0192 1.353695,-0.64026 2.722278,-1.24691 4.105755,-1.81997 1.38348,-0.57306 2.780185,-1.11182 4.190117,-1.61631 1.409931,-0.50448 2.83139,-0.97409 4.264377,-1.40875 1.432984,-0.43472 2.875771,-0.83398 4.328354,-1.19781 1.452591,-0.36386 2.913231,-0.69184 4.38192,-0.98398 1.468697,-0.29215 2.943672,-0.5481 4.424927,-0.76782 1.481254,-0.2197 2.96701,-0.40296 4.457267,-0.54975 1.490258,-0.14676 2.983216,-0.25689 4.478875,-0.33038 C 88.505959,310.03674 90.002525,310 91.5,310 Z"
       style="fill:#ffffff;fill-opacity:1;fill-rule:nonzero;stroke:#000000;stroke-width:1;stroke-linecap:butt;stroke-linejoin:miter;stroke-miterlimit:10;stroke-dasharray:none;stroke-opacity:1"
       transform="matrix(0.938903,0,0,0.938903,10.940975,-283.12102)" />
    <path
       id="path4"
       d="m 420,840 c 0,40 -46.66666,60 -140,60 -93.33334,0 -140,-17.87665 -140,-53.63"
       style="fill:none;stroke:#000000;stroke-width:1;stroke-linecap:butt;stroke-linejoin:miter;stroke-miterlimit:10;stroke-dasharray:none;stroke-opacity:1"
       transform="matrix(0.938903,0,0,0.938903,10.940975,-283.12102)" />
    <path
       id="path5"
       d="m 140,841.12 3.5,7 -3.5,-1.75 -3.5,1.75 z"
       style="fill:#000000;fill-opacity:1;fill-rule:nonzero;stroke:#000000;stroke-width:1;stroke-linecap:butt;stroke-linejoin:miter;stroke-miterlimit:10;stroke-dasharray:none;stroke-opacity:1"
       transform="matrix(0.938903,0,0,0.938903,10.940975,-283.12102)" />
    <path
       id="path6"
       d="M 320,400 H 520 V 840 H 320 Z"
       style="fill:url(#linearGradient7);fill-opacity:1;fill-rule:nonzero;stroke:#d6b656;stroke-width:1;stroke-linecap:butt;stroke-linejoin:miter;stroke-miterlimit:10;stroke-dasharray:none;stroke-opacity:1"
       transform="matrix(0.938903,0,0,0.938903,10.940975,-283.12102)" />
    <g
       id="g7" />
    <text
       id="text7"
       xml:space="preserve"
       transform="matrix(0.938903,0,0,0.938903,334.90653,138.91587)"><tspan
         id="tspan7"
         style="font-variant:normal;font-weight:normal;font-size:20px;font-family:Arial;writing-mode:lr-tb;fill:#000000;fill-opacity:1;fill-rule:nonzero;stroke:none"
         x="0"
         y="0">Discrimicator (D)</tspan></text>
    <path
       id="path7"
       d="m 140,400 c 0,-40 46.66666,-60 140,-60 93.33334,0 140,17.87668 140,53.63"
       style="fill:none;stroke:#000000;stroke-width:1;stroke-linecap:butt;stroke-linejoin:miter;stroke-miterlimit:10;stroke-dasharray:none;stroke-opacity:1"
       transform="matrix(0.938903,0,0,0.938903,10.940975,-283.12102)" />
    <path
       id="path8"
       d="m 420,398.88 -3.5,-7 3.5,1.75 3.5,-1.75 z"
       style="fill:#000000;fill-opacity:1;fill-rule:nonzero;stroke:#000000;stroke-width:1;stroke-linecap:butt;stroke-linejoin:miter;stroke-miterlimit:10;stroke-dasharray:none;stroke-opacity:1"
       transform="matrix(0.938903,0,0,0.938903,10.940975,-283.12102)" />
    <path
       id="path9"
       d="M 40,400 H 240 V 840 H 40 Z"
       style="fill:url(#linearGradient10);fill-opacity:1;fill-rule:nonzero;stroke:#6c8ebf;stroke-width:1;stroke-linecap:butt;stroke-linejoin:miter;stroke-miterlimit:10;stroke-dasharray:none;stroke-opacity:1"
       transform="matrix(0.938903,0,0,0.938903,10.940975,-283.12102)" />
    <g
       id="g10" />
    <text
       id="text10"
       xml:space="preserve"
       transform="matrix(0.938903,0,0,0.938903,83.471233,138.91587)"><tspan
         id="tspan10"
         style="font-variant:normal;font-weight:normal;font-size:20px;font-family:Arial;writing-mode:lr-tb;fill:#000000;fill-opacity:1;fill-rule:nonzero;stroke:none"
         x="0"
         y="0">Generator (G)</tspan></text>
    <path
       id="path10"
       d="m 140,560 v 33.63"
       style="fill:none;stroke:#000000;stroke-width:1;stroke-linecap:butt;stroke-linejoin:miter;stroke-miterlimit:10;stroke-dasharray:none;stroke-opacity:1"
       transform="matrix(0.938903,0,0,0.938903,10.940975,-283.12102)" />
    <path
       id="path11"
       d="m 140,598.88 -3.5,-7 3.5,1.75 3.5,-1.75 z"
       style="fill:#000000;fill-opacity:1;fill-rule:nonzero;stroke:#000000;stroke-width:1;stroke-linecap:butt;stroke-linejoin:miter;stroke-miterlimit:10;stroke-dasharray:none;stroke-opacity:1"
       transform="matrix(0.938903,0,0,0.938903,10.940975,-283.12102)" />
    <path
       id="path12"
       d="m 200,520 c 0,1.31006 -0.0963,2.617 -0.28891,3.92078 -0.19261,1.30371 -0.48062,2.59796 -0.864,3.88281 -0.38334,1.28485 -0.86024,2.55414 -1.43068,3.8078 -0.57043,1.2536 -1.23166,2.48553 -1.98367,3.69586 -0.752,1.21039 -1.59116,2.39325 -2.51749,3.54858 -0.92631,1.15534 -1.93535,2.27765 -3.0271,3.36689 -1.09173,1.08929 -2.26092,2.14032 -3.50755,3.15301 -1.24663,1.0127 -2.5647,1.98218 -3.95421,2.90851 -1.38951,0.92633 -2.84376,1.80505 -4.36278,2.63617 -1.51904,0.83105 -3.09552,1.61047 -4.72941,2.33832 -1.6339,0.72784 -3.31735,1.40051 -5.0504,2.01806 -1.73305,0.61762 -3.50733,1.17707 -5.32282,1.67835 -1.81547,0.50134 -3.66345,0.9422 -5.54391,1.32251 -1.88045,0.38025 -3.78433,0.69818 -5.71166,0.95373 -1.9273,0.25568 -3.86877,0.4477 -5.82438,0.57605 C 143.92542,559.93579 141.96507,560 140,560 c -1.96507,0 -3.92542,-0.0642 -5.88103,-0.19257 -1.95561,-0.12835 -3.89708,-0.32037 -5.8244,-0.57605 -1.92731,-0.25555 -3.8312,-0.57348 -5.71165,-0.95379 -1.88046,-0.38031 -3.72844,-0.82111 -5.54394,-1.32245 -1.81548,-0.50128 -3.58975,-1.06073 -5.32279,-1.67835 -1.73304,-0.61755 -3.41651,-1.29022 -5.05042,-2.01806 -1.63389,-0.72785 -3.21036,-1.50727 -4.72938,-2.33832 -1.51902,-0.83112 -2.973286,-1.70984 -4.362804,-2.63617 -1.389519,-0.92633 -2.707589,-1.89581 -3.954216,-2.90851 -1.246636,-1.01269 -2.415818,-2.06372 -3.507554,-3.15301 -1.091735,-1.08924 -2.100769,-2.21149 -3.027099,-3.36682 -0.926331,-1.1554 -1.765496,-2.33826 -2.517502,-3.54865 -0.751991,-1.21033 -1.413208,-2.44226 -1.983643,-3.69586 -0.570427,-1.25366 -1.047325,-2.52295 -1.430694,-3.8078 -0.38337,-1.28485 -0.671356,-2.5791 -0.86396,-3.88281 C 80.096313,522.617 80.000008,521.31006 80,520 c 8e-6,-1.31006 0.09631,-2.61694 0.288918,-3.92072 0.192604,-1.30371 0.48059,-2.59802 0.86396,-3.88293 0.383369,-1.28485 0.860267,-2.55411 1.430694,-3.80774 0.570435,-1.25363 1.231652,-2.48566 1.983643,-3.69601 0.752006,-1.21033 1.591171,-2.39316 2.517502,-3.54853 0.926323,-1.15536 1.935356,-2.27768 3.027092,-3.36694 1.091743,-1.08926 2.260925,-2.1402 3.507561,-3.15286 1.246627,-1.0127 2.564697,-1.98221 3.954216,-2.90857 1.389518,-0.92633 2.843784,-1.80502 4.362804,-2.63611 1.51902,-0.83109 3.09549,-1.61057 4.72938,-2.33841 1.63391,-0.72781 3.31738,-1.40048 5.05042,-2.01804 1.73304,-0.61755 3.50731,-1.177 5.32279,-1.67834 1.8155,-0.50131 3.66347,-0.94211 5.54393,-1.32239 1.88046,-0.38028 3.78435,-0.69824 5.71166,-0.95386 1.92732,-0.25555 3.86879,-0.44754 5.8244,-0.57592 1.95561,-0.12839 3.91596,-0.1926 5.88103,-0.19263 1.96507,3e-5 3.92542,0.0642 5.88103,0.19263 1.95561,0.12841 3.89708,0.3204 5.82438,0.57596 1.92733,0.25558 3.83121,0.57354 5.71166,0.95382 1.88046,0.38028 3.72844,0.82105 5.54391,1.32236 1.81549,0.50134 3.58975,1.06079 5.3228,1.67837 1.73305,0.61756 3.41652,1.29023 5.05042,2.01804 1.63389,0.72784 3.21037,1.50729 4.7294,2.33838 1.51903,0.83108 2.97328,1.70981 4.36279,2.63614 1.38951,0.92636 2.70758,1.89587 3.95421,2.90857 1.24663,1.01266 2.41582,2.0636 3.50755,3.15286 1.09175,1.08926 2.10079,2.21161 3.0271,3.36697 0.92633,1.15537 1.76549,2.33823 2.51749,3.54853 0.75201,1.21035 1.41324,2.44235 1.98367,3.69598 0.57044,1.25363 1.04734,2.52289 1.43068,3.80774 0.38338,1.28491 0.67139,2.57922 0.864,3.88293 C 199.9037,517.38306 200,518.68994 200,520 Z"
       style="fill:url(#linearGradient13);fill-opacity:1;fill-rule:nonzero;stroke:#d79b00;stroke-width:1;stroke-linecap:butt;stroke-linejoin:miter;stroke-miterlimit:10;stroke-dasharray:none;stroke-opacity:1"
       transform="matrix(0.938903,0,0,0.938903,10.940975,-283.12102)" />
    <g
       id="g13" />
    <text
       id="text13"
       xml:space="preserve"
       transform="matrix(0.938903,0,0,0.938903,104.65523,208.39469)"><tspan
         id="tspan13"
         style="font-variant:normal;font-weight:normal;font-size:12px;font-family:Arial;writing-mode:lr-tb;fill:#000000;fill-opacity:1;fill-rule:nonzero;stroke:none"
         x="0"
         y="0">Random Noise</tspan></text>
    <path
       id="path13"
       d="m 140,660 v 53.63"
       style="fill:none;stroke:#000000;stroke-width:1;stroke-linecap:butt;stroke-linejoin:miter;stroke-miterlimit:10;stroke-dasharray:none;stroke-opacity:1"
       transform="matrix(0.938903,0,0,0.938903,10.940975,-283.12102)" />
    <path
       id="path14"
       d="m 140,718.88 -3.5,-7 3.5,1.75 3.5,-1.75 z"
       style="fill:#000000;fill-opacity:1;fill-rule:nonzero;stroke:#000000;stroke-width:1;stroke-linecap:butt;stroke-linejoin:miter;stroke-miterlimit:10;stroke-dasharray:none;stroke-opacity:1"
       transform="matrix(0.938903,0,0,0.938903,10.940975,-283.12102)" />
    <path
       id="path15"
       d="m 80,600 h 120 v 60 H 80 Z"
       style="fill:url(#linearGradient16);fill-opacity:1;fill-rule:nonzero;stroke:#666666;stroke-width:1;stroke-linecap:butt;stroke-linejoin:miter;stroke-miterlimit:10;stroke-dasharray:none;stroke-opacity:1"
       transform="matrix(0.938903,0,0,0.938903,10.940975,-283.12102)" />
    <g
       id="g16" />
    <text
       id="text16"
       xml:space="preserve"
       transform="matrix(0.938903,0,0,0.938903,88.67921,311.67402)"><tspan
         id="tspan16"
         style="font-variant:normal;font-weight:normal;font-size:12px;font-family:Arial;writing-mode:lr-tb;fill:#000000;fill-opacity:1;fill-rule:nonzero;stroke:none"
         x="0"
         y="0">Multilayer Perceptron</tspan></text>
    <path
       id="path16"
       d="m 200,760 h 30 L 330,630 h 23.63"
       style="fill:none;stroke:#000000;stroke-width:1;stroke-linecap:butt;stroke-linejoin:miter;stroke-miterlimit:10;stroke-dasharray:none;stroke-opacity:1"
       transform="matrix(0.938903,0,0,0.938903,10.940975,-283.12102)" />
    <path
       id="path17"
       d="m 358.88,630 -7,3.5 1.75,-3.5 -1.75,-3.5 z"
       style="fill:#000000;fill-opacity:1;fill-rule:nonzero;stroke:#000000;stroke-width:1;stroke-linecap:butt;stroke-linejoin:miter;stroke-miterlimit:10;stroke-dasharray:none;stroke-opacity:1"
       transform="matrix(0.938903,0,0,0.938903,10.940975,-283.12102)" />
    <path
       id="path18"
       d="m 200,760 c 0,1.31006 -0.0963,2.61694 -0.28891,3.92065 -0.19261,1.30378 -0.48062,2.59803 -0.864,3.88288 -0.38334,1.28485 -0.86024,2.55414 -1.43068,3.8078 -0.57043,1.25366 -1.23166,2.48565 -1.98367,3.69592 -0.752,1.21039 -1.59116,2.39319 -2.51749,3.54852 -0.92631,1.15534 -1.93535,2.27765 -3.0271,3.36695 -1.09173,1.08929 -2.26092,2.14026 -3.50755,3.15295 -1.24663,1.0127 -2.5647,1.98224 -3.95421,2.90857 -1.38951,0.92633 -2.84376,1.80505 -4.36278,2.63617 -1.51904,0.83105 -3.09552,1.61047 -4.72941,2.33826 -1.6339,0.72784 -3.31735,1.40051 -5.0504,2.01812 -1.73305,0.61756 -3.50733,1.17701 -5.32282,1.67829 -1.81547,0.5014 -3.66345,0.9422 -5.54391,1.32251 -1.88045,0.38025 -3.78433,0.69818 -5.71166,0.95373 -1.9273,0.25562 -3.86877,0.44764 -5.82438,0.57611 C 143.92542,799.93579 141.96507,800 140,800 c -1.96507,0 -3.92542,-0.0642 -5.88103,-0.19257 -1.95561,-0.12847 -3.89708,-0.32049 -5.8244,-0.57611 -1.92731,-0.25555 -3.8312,-0.57354 -5.71165,-0.95385 -1.88046,-0.38031 -3.72844,-0.82111 -5.54394,-1.32245 -1.81548,-0.50128 -3.58975,-1.06073 -5.32279,-1.67829 -1.73304,-0.61755 -3.41651,-1.29022 -5.05042,-2.01806 -1.63389,-0.72779 -3.21036,-1.50721 -4.72938,-2.33826 -1.51902,-0.83112 -2.973286,-1.70984 -4.362804,-2.63617 -1.389519,-0.92633 -2.707589,-1.89587 -3.954216,-2.90857 -1.246636,-1.01269 -2.415818,-2.06366 -3.507554,-3.15295 -1.091735,-1.0893 -2.100769,-2.21155 -3.027099,-3.36689 -0.926331,-1.15533 -1.765496,-2.33819 -2.517502,-3.54858 -0.751991,-1.21027 -1.413208,-2.44226 -1.983643,-3.69598 -0.570427,-1.2536 -1.047325,-2.52289 -1.430694,-3.80774 -0.38337,-1.28485 -0.671356,-2.5791 -0.86396,-3.88281 C 80.096313,762.61694 80.000008,761.31006 80,760 c 8e-6,-1.31 0.09631,-2.61688 0.288918,-3.92065 0.192604,-1.30378 0.48059,-2.59815 0.86396,-3.883 0.383369,-1.28485 0.860267,-2.55414 1.430694,-3.80774 0.570435,-1.2536 1.231652,-2.48559 1.983643,-3.69598 0.752006,-1.21027 1.591171,-2.39307 2.517502,-3.54853 0.926323,-1.15533 1.935356,-2.27764 3.027092,-3.36694 1.091743,-1.08929 2.260925,-2.14026 3.507561,-3.15295 1.246627,-1.01264 2.564697,-1.98218 3.954216,-2.90851 1.389518,-0.92633 2.843784,-1.80506 4.362804,-2.63611 1.51902,-0.83112 3.09549,-1.6106 4.72938,-2.33844 1.63391,-0.72784 3.31738,-1.40057 5.05042,-2.01807 1.73304,-0.61755 3.50731,-1.177 5.32279,-1.67834 1.8155,-0.50128 3.66347,-0.94208 5.54393,-1.32239 1.88046,-0.38025 3.78435,-0.69818 5.71166,-0.9538 1.92732,-0.25555 3.86879,-0.44751 5.8244,-0.57592 C 136.07458,720.06421 138.03493,720 140,720 c 1.96507,0 3.92542,0.0642 5.88103,0.19263 1.95561,0.12841 3.89708,0.32037 5.82438,0.57592 1.92733,0.25562 3.83121,0.57355 5.71166,0.95386 1.88046,0.38031 3.72844,0.82111 5.54391,1.32239 1.81549,0.50128 3.58975,1.06073 5.3228,1.67834 1.73305,0.61756 3.41652,1.29023 5.05042,2.01807 1.63389,0.72785 3.21037,1.50733 4.7294,2.33844 1.51903,0.83099 2.97328,1.70972 4.36279,2.63605 1.38951,0.92633 2.70758,1.89587 3.95421,2.90857 1.24663,1.01263 2.41582,2.0636 3.50755,3.15289 1.09175,1.0893 2.10079,2.21167 3.0271,3.36701 0.92633,1.15539 1.76549,2.33819 2.51749,3.54846 0.75201,1.21039 1.41324,2.44232 1.98367,3.69592 0.57044,1.25366 1.04734,2.52295 1.43068,3.8078 0.38338,1.28485 0.67139,2.57922 0.864,3.883 C 199.9037,757.38312 200,758.69 200,760 Z"
       style="fill:url(#linearGradient19);fill-opacity:1;fill-rule:nonzero;stroke:#b85450;stroke-width:1;stroke-linecap:butt;stroke-linejoin:miter;stroke-miterlimit:10;stroke-dasharray:none;stroke-opacity:1"
       transform="matrix(0.938903,0,0,0.938903,10.940975,-283.12102)" />
    <g
       id="g19" />
    <text
       id="text19"
       xml:space="preserve"
       transform="matrix(0.938903,0,0,0.938903,108.71892,433.73141)"><tspan
         id="tspan19"
         style="font-variant:normal;font-weight:normal;font-size:12px;font-family:Arial;writing-mode:lr-tb;fill:#000000;fill-opacity:1;fill-rule:nonzero;stroke:none"
         x="0"
         y="0">Fake Sample</tspan></text>
    <path
       id="path19"
       d="m 420,560 v 33.63"
       style="fill:none;stroke:#000000;stroke-width:1;stroke-linecap:butt;stroke-linejoin:miter;stroke-miterlimit:10;stroke-dasharray:none;stroke-opacity:1"
       transform="matrix(0.938903,0,0,0.938903,10.940975,-283.12102)" />
    <path
       id="path20"
       d="m 420,598.88 -3.5,-7 3.5,1.75 3.5,-1.75 z"
       style="fill:#000000;fill-opacity:1;fill-rule:nonzero;stroke:#000000;stroke-width:1;stroke-linecap:butt;stroke-linejoin:miter;stroke-miterlimit:10;stroke-dasharray:none;stroke-opacity:1"
       transform="matrix(0.938903,0,0,0.938903,10.940975,-283.12102)" />
    <path
       id="path21"
       d="m 480,520 c 0,1.31006 -0.0963,2.617 -0.28894,3.92078 -0.19263,1.30371 -0.48062,2.59796 -0.86401,3.88281 -0.38334,1.28485 -0.86023,2.55414 -1.43067,3.8078 -0.5704,1.2536 -1.23163,2.48553 -1.98367,3.69586 -0.75198,1.21039 -1.59113,2.39325 -2.51746,3.54858 -0.92636,1.15534 -1.93539,2.27765 -3.02713,3.36689 -1.0917,1.08929 -2.26089,2.14032 -3.5075,3.15301 -1.24662,1.0127 -2.5647,1.98218 -3.95423,2.90851 -1.38952,0.92633 -2.84381,1.80505 -4.36282,2.63617 -1.51904,0.83105 -3.09552,1.61047 -4.7294,2.33832 -1.63388,0.72784 -3.31735,1.40051 -5.05039,2.01806 -1.73306,0.61762 -3.50732,1.17707 -5.32281,1.67835 -1.81546,0.50134 -3.66345,0.9422 -5.54392,1.32251 -1.88046,0.38025 -3.78433,0.69818 -5.71167,0.95373 -1.92727,0.25568 -3.86874,0.4477 -5.82437,0.57605 C 423.92542,559.93579 421.96506,560 420,560 c -1.96506,0 -3.92538,-0.0642 -5.88101,-0.19257 -1.9556,-0.12835 -3.8971,-0.32037 -5.82443,-0.57605 -1.92728,-0.25555 -3.83118,-0.57348 -5.71164,-0.95379 -1.88047,-0.38031 -3.72843,-0.82111 -5.54395,-1.32245 -1.81549,-0.50128 -3.58975,-1.06073 -5.32278,-1.67835 -1.73304,-0.61755 -3.41651,-1.29022 -5.05042,-2.01806 -1.63388,-0.72785 -3.21036,-1.50727 -4.72937,-2.33832 -1.51901,-0.83112 -2.9733,-1.70984 -4.36282,-2.63617 -1.3895,-0.92633 -2.70758,-1.89581 -3.9542,-2.90851 -1.24664,-1.01269 -2.41583,-2.06372 -3.50756,-3.15301 -1.09174,-1.08924 -2.10077,-2.21149 -3.02713,-3.36682 -0.9263,-1.1554 -1.76545,-2.33826 -2.51749,-3.54865 -0.75198,-1.21033 -1.41318,-2.44226 -1.98364,-3.69586 -0.57041,-1.25366 -1.04727,-2.52295 -1.43067,-3.8078 -0.38333,-1.28485 -0.67132,-2.5791 -0.86395,-3.88281 C 360.09631,522.617 360,521.31006 360,520 c 0,-1.31006 0.0963,-2.61694 0.28891,-3.92072 0.19266,-1.30371 0.48065,-2.59802 0.86398,-3.88293 0.3834,-1.28485 0.86029,-2.55411 1.4307,-3.80774 0.57046,-1.25363 1.23166,-2.48566 1.98364,-3.69601 0.75201,-1.21033 1.59119,-2.39316 2.51752,-3.54853 0.92633,-1.15536 1.93536,-2.27768 3.02707,-3.36694 1.09173,-1.08926 2.26092,-2.1402 3.50756,-3.15286 1.24662,-1.0127 2.5647,-1.98221 3.9542,-2.90857 1.38952,-0.92633 2.84381,-1.80502 4.36282,-2.63611 1.51901,-0.83109 3.09549,-1.61057 4.72937,-2.33841 1.63391,-0.72781 3.31738,-1.40048 5.05042,-2.01804 1.73303,-0.61755 3.50729,-1.177 5.32278,-1.67834 1.81552,-0.50131 3.66348,-0.94211 5.54395,-1.32239 1.88049,-0.38028 3.78439,-0.69824 5.71167,-0.95386 1.92733,-0.25555 3.8688,-0.44754 5.8244,-0.57592 1.95563,-0.12839 3.91595,-0.1926 5.88101,-0.19263 1.96506,3e-5 3.92538,0.0642 5.88098,0.19263 1.95563,0.12841 3.8971,0.3204 5.82437,0.57596 1.92734,0.25558 3.83121,0.57354 5.71167,0.95382 1.88047,0.38028 3.72843,0.82105 5.54392,1.32236 1.81549,0.50134 3.58975,1.06079 5.32281,1.67837 1.73307,0.61756 3.41651,1.29023 5.05039,2.01804 1.63391,0.72784 3.21039,1.50729 4.7294,2.33838 1.51904,0.83108 2.97333,1.70981 4.36285,2.63614 1.38953,0.92636 2.70758,1.89587 3.95419,2.90857 1.24665,1.01266 2.41584,2.0636 3.50754,3.15286 1.09174,1.08926 2.10077,2.21161 3.02713,3.36697 0.92633,1.15537 1.76548,2.33823 2.51746,3.54853 0.75204,1.21035 1.41327,2.44235 1.98367,3.69598 0.57044,1.25363 1.04733,2.52289 1.43067,3.80774 0.38339,1.28491 0.67138,2.57922 0.86401,3.88293 C 479.90369,517.38306 480,518.68994 480,520 Z"
       style="fill:url(#linearGradient22);fill-opacity:1;fill-rule:nonzero;stroke:#82b366;stroke-width:1;stroke-linecap:butt;stroke-linejoin:miter;stroke-miterlimit:10;stroke-dasharray:none;stroke-opacity:1"
       transform="matrix(0.938903,0,0,0.938903,10.940975,-283.12102)" />
    <g
       id="g22" />
    <text
       id="text22"
       xml:space="preserve"
       transform="matrix(0.938903,0,0,0.938903,372.55067,208.39469)"><tspan
         id="tspan22"
         style="font-variant:normal;font-weight:normal;font-size:12px;font-family:Arial;writing-mode:lr-tb;fill:#000000;fill-opacity:1;fill-rule:nonzero;stroke:none"
         x="0"
         y="0">Real Sample</tspan></text>
    <path
       id="path22"
       d="m 420,660 v 53.63"
       style="fill:none;stroke:#000000;stroke-width:1;stroke-linecap:butt;stroke-linejoin:miter;stroke-miterlimit:10;stroke-dasharray:none;stroke-opacity:1"
       transform="matrix(0.938903,0,0,0.938903,10.940975,-283.12102)" />
    <path
       id="path23"
       d="m 420,718.88 -3.5,-7 3.5,1.75 3.5,-1.75 z"
       style="fill:#000000;fill-opacity:1;fill-rule:nonzero;stroke:#000000;stroke-width:1;stroke-linecap:butt;stroke-linejoin:miter;stroke-miterlimit:10;stroke-dasharray:none;stroke-opacity:1"
       transform="matrix(0.938903,0,0,0.938903,10.940975,-283.12102)" />
    <path
       id="path24"
       d="m 360,600 h 120 v 60 H 360 Z"
       style="fill:url(#linearGradient25);fill-opacity:1;fill-rule:nonzero;stroke:#666666;stroke-width:1;stroke-linecap:butt;stroke-linejoin:miter;stroke-miterlimit:10;stroke-dasharray:none;stroke-opacity:1"
       transform="matrix(0.938903,0,0,0.938903,10.940975,-283.12102)" />
    <g
       id="g25" />
    <text
       id="text25"
       xml:space="preserve"
       transform="matrix(0.938903,0,0,0.938903,351.57206,311.67402)"><tspan
         id="tspan25"
         style="font-variant:normal;font-weight:normal;font-size:12px;font-family:Arial;writing-mode:lr-tb;fill:#000000;fill-opacity:1;fill-rule:nonzero;stroke:none"
         x="0"
         y="0">Multilayer Perceptron</tspan></text>
    <path
       id="path25"
       d="m 480,760 c 0,1.31006 -0.0963,2.61694 -0.28894,3.92065 -0.19263,1.30378 -0.48062,2.59803 -0.86401,3.88288 -0.38334,1.28485 -0.86023,2.55414 -1.43067,3.8078 -0.5704,1.25366 -1.23163,2.48565 -1.98367,3.69592 -0.75198,1.21039 -1.59113,2.39319 -2.51746,3.54852 -0.92636,1.15534 -1.93539,2.27765 -3.02713,3.36695 -1.0917,1.08929 -2.26089,2.14026 -3.5075,3.15295 -1.24662,1.0127 -2.5647,1.98224 -3.95423,2.90857 -1.38952,0.92633 -2.84381,1.80505 -4.36282,2.63617 -1.51904,0.83105 -3.09552,1.61047 -4.7294,2.33826 -1.63388,0.72784 -3.31735,1.40051 -5.05039,2.01812 -1.73306,0.61756 -3.50732,1.17701 -5.32281,1.67829 -1.81546,0.5014 -3.66345,0.9422 -5.54392,1.32251 -1.88046,0.38025 -3.78433,0.69818 -5.71167,0.95373 -1.92727,0.25562 -3.86874,0.44764 -5.82437,0.57611 C 423.92542,799.93579 421.96506,800 420,800 c -1.96506,0 -3.92538,-0.0642 -5.88101,-0.19257 -1.9556,-0.12847 -3.8971,-0.32049 -5.82443,-0.57611 -1.92728,-0.25555 -3.83118,-0.57354 -5.71164,-0.95385 -1.88047,-0.38031 -3.72843,-0.82111 -5.54395,-1.32245 -1.81549,-0.50128 -3.58975,-1.06073 -5.32278,-1.67829 -1.73304,-0.61755 -3.41651,-1.29022 -5.05042,-2.01806 -1.63388,-0.72779 -3.21036,-1.50721 -4.72937,-2.33826 -1.51901,-0.83112 -2.9733,-1.70984 -4.36282,-2.63617 -1.3895,-0.92633 -2.70758,-1.89587 -3.9542,-2.90857 -1.24664,-1.01269 -2.41583,-2.06366 -3.50756,-3.15295 -1.09174,-1.0893 -2.10077,-2.21155 -3.02713,-3.36689 -0.9263,-1.15533 -1.76545,-2.33819 -2.51749,-3.54858 -0.75198,-1.21027 -1.41318,-2.44226 -1.98364,-3.69598 -0.57041,-1.2536 -1.04727,-2.52289 -1.43067,-3.80774 -0.38333,-1.28485 -0.67132,-2.5791 -0.86395,-3.88281 C 360.09631,762.61694 360,761.31006 360,760 c 0,-1.31 0.0963,-2.61688 0.28891,-3.92065 0.19266,-1.30378 0.48065,-2.59815 0.86398,-3.883 0.3834,-1.28485 0.86029,-2.55414 1.4307,-3.80774 0.57046,-1.2536 1.23166,-2.48559 1.98364,-3.69598 0.75201,-1.21027 1.59119,-2.39307 2.51752,-3.54853 0.92633,-1.15533 1.93536,-2.27764 3.02707,-3.36694 1.09173,-1.08929 2.26092,-2.14026 3.50756,-3.15295 1.24662,-1.01264 2.5647,-1.98218 3.9542,-2.90851 1.38952,-0.92633 2.84381,-1.80506 4.36282,-2.63611 1.51901,-0.83112 3.09549,-1.6106 4.72937,-2.33844 1.63391,-0.72784 3.31738,-1.40057 5.05042,-2.01807 1.73303,-0.61755 3.50729,-1.177 5.32278,-1.67834 1.81552,-0.50128 3.66348,-0.94208 5.54395,-1.32239 1.88049,-0.38025 3.78439,-0.69818 5.71167,-0.9538 1.92733,-0.25555 3.8688,-0.44751 5.8244,-0.57592 C 416.07462,720.06421 418.03494,720 420,720 c 1.96506,0 3.92538,0.0642 5.88098,0.19263 1.95563,0.12841 3.8971,0.32037 5.82437,0.57592 1.92734,0.25562 3.83121,0.57355 5.71167,0.95386 1.88047,0.38031 3.72843,0.82111 5.54392,1.32239 1.81549,0.50128 3.58975,1.06073 5.32281,1.67834 1.73307,0.61756 3.41651,1.29023 5.05039,2.01807 1.63391,0.72785 3.21039,1.50733 4.7294,2.33844 1.51904,0.83099 2.97333,1.70972 4.36285,2.63605 1.38953,0.92633 2.70758,1.89587 3.95419,2.90857 1.24665,1.01263 2.41584,2.0636 3.50754,3.15289 1.09174,1.0893 2.10077,2.21167 3.02713,3.36701 0.92633,1.15539 1.76548,2.33819 2.51746,3.54846 0.75204,1.21039 1.41327,2.44232 1.98367,3.69592 0.57044,1.25366 1.04733,2.52295 1.43067,3.8078 0.38339,1.28485 0.67138,2.57922 0.86401,3.883 C 479.90369,757.38312 480,758.69 480,760 Z"
       style="fill:url(#linearGradient27);fill-opacity:1;fill-rule:nonzero;stroke:#996185;stroke-width:1;stroke-linecap:butt;stroke-linejoin:miter;stroke-miterlimit:10;stroke-dasharray:none;stroke-opacity:1"
       transform="matrix(0.938903,0,0,0.938903,10.940975,-283.12102)" />
    <g
       id="g27" />
    <text
       id="text27"
       xml:space="preserve"
       transform="matrix(0.938903,0,0,0.938903,367.53341,427.15909)"><tspan
         id="tspan27"
         style="font-variant:normal;font-weight:normal;font-size:12px;font-family:Arial;writing-mode:lr-tb;fill:#000000;fill-opacity:1;fill-rule:nonzero;stroke:none"
         x="0"
         y="0">Probability that</tspan></text>
    <g
       id="g28" />
    <text
       id="text28"
       xml:space="preserve"
       transform="matrix(0.938903,0,0,0.938903,360.653,441.24264)"><tspan
         id="tspan28"
         style="font-variant:normal;font-weight:normal;font-size:12px;font-family:Arial;writing-mode:lr-tb;fill:#000000;fill-opacity:1;fill-rule:nonzero;stroke:none"
         x="0"
         y="0">the sample is real</tspan></text>
    <g
       id="g29" />
    <text
       id="text29"
       xml:space="preserve"
       transform="matrix(0.938903,0,0,0.938903,243.83294,59.109118)"><tspan
         id="tspan29"
         style="font-variant:normal;font-weight:normal;font-size:12px;font-family:Arial;writing-mode:lr-tb;fill:#000000;fill-opacity:1;fill-rule:nonzero;stroke:none"
         x="0"
         dx="0 -0.44531247"
         y="0">Train G to</tspan></text>
    <g
       id="g30" />
    <text
       id="text30"
       xml:space="preserve"
       transform="matrix(0.938903,0,0,0.938903,244.87453,72.25376)"><tspan
         id="tspan30"
         style="font-variant:normal;font-weight:normal;font-size:12px;font-family:Arial;writing-mode:lr-tb;fill:#000000;fill-opacity:1;fill-rule:nonzero;stroke:none"
         x="0"
         y="0">maximize</tspan></text>
    <path
       id="path30"
       d="M 42,46 H 26 V 0 h 8 c 13,3 88,3 111,3 23,0 98,-1 110,-3 h 8 v 46 h -16 c -20,0 -42,2 -49,3 -5,2 -10,7 -12,11 -1,2 -1,99 -1,319 v 315 h -3 c -2,0 -37,-3 -78,-6 -41,-2 -75,-5 -76,-5 -2,0 -2,-2 -2,-23 v -23 h 18 c 44,-2 55,-8 59,-34 0,-5 1,-140 1,-274 C 104,195 103,62 103,60 96,47 80,46 56,46 Z"
       style="fill:#000000;fill-opacity:1;fill-rule:nonzero;stroke:#000000;stroke-width:1;stroke-linecap:butt;stroke-linejoin:miter;stroke-miterlimit:10;stroke-dasharray:none;stroke-opacity:0.0297"
       transform="matrix(0.01320332,0,0,-0.01320332,232.08616,85.911862)" />
    <path
       id="path31"
       d="M 28,214 C 28,110 97,21 197,-4 c 19,-5 30,-6 53,-6 22,0 33,1 52,6 84,21 148,88 164,172 3,16 5,31 5,47 0,63 -28,127 -70,169 -41,41 -96,64 -151,64 -8,0 -17,-1 -25,-2 C 120,433 28,338 28,214 m 240,196 c 55,-12 87,-42 99,-97 5,-23 5,-33 5,-88 V 193 C 372,98 342,30 250,30 c -53,0 -86,25 -105,61 -17,36 -19,72 -19,135 0,28 1,55 2,64 8,57 27,89 67,109 18,8 38,12 57,12 5,0 11,0 16,-1 z"
       style="fill:#000000;fill-opacity:1;fill-rule:nonzero;stroke:#000000;stroke-width:1;stroke-linecap:butt;stroke-linejoin:miter;stroke-miterlimit:10;stroke-dasharray:none;stroke-opacity:0.0297"
       transform="matrix(0.01320332,0,0,-0.01320332,235.75669,85.911862)" />
    <path
       id="path32"
       d="m 329,409 -11,7 c -29,17 -61,26 -95,26 C 159,442 106,414 79,373 63,350 52,328 52,292 52,245 72,217 96,193 79,170 67,146 67,108 67,70 83,41 103,24 L 92,18 C 79,12 71,6 60,-5 41,-23 29,-43 29,-75 c 0,-8 0,-15 2,-21 9,-32 34,-59 76,-79 41,-21 81,-31 143,-31 62,0 102,10 142,31 42,20 67,47 76,79 2,6 2,15 2,24 0,44 -16,75 -39,98 -21,19 -57,35 -96,41 -25,5 -35,5 -108,6 -81,1 -77,0 -89,8 -15,10 -26,29 -26,52 0,15 5,27 11,38 29,-16 62,-28 99,-28 64,0 116,29 143,69 16,23 27,44 27,80 0,40 -13,64 -33,89 -2,3 -4,5 -4,5 0,1 3,4 8,7 13,10 28,17 44,20 5,1 9,2 9,2 0,-1 -1,-2 -1,-4 -3,-4 -4,-14 -3,-21 3,-18 15,-30 37,-30 21,0 36,15 36,36 0,34 -24,57 -56,57 -43,0 -77,-21 -100,-44 M 142,292 c 0,20 1,40 3,51 7,37 37,61 76,61 43,0 71,-24 78,-61 2,-11 3,-31 3,-51 0,-20 -1,-39 -3,-50 -6,-35 -34,-60 -77,-60 -65,0 -80,44 -80,110 M 375,-23 c 17,-11 28,-27 28,-52 0,-6 0,-13 -2,-18 -10,-31 -52,-60 -101,-70 -18,-4 -27,-4 -50,-4 -24,0 -33,0 -51,4 -49,10 -91,39 -101,69 -2,6 -3,13 -3,20 0,28 16,56 43,68 13,6 14,6 80,6 h 29 c 57,0 96,-1 128,-23 z"
       style="fill:#000000;fill-opacity:1;fill-rule:nonzero;stroke:#000000;stroke-width:1;stroke-linecap:butt;stroke-linejoin:miter;stroke-miterlimit:10;stroke-dasharray:none;stroke-opacity:0.0297"
       transform="matrix(0.01320332,0,0,-0.01320332,242.35835,85.911862)" />
    <path
       id="path33"
       d="M 287,628 C 287,605 149,65 146,61 142,54 137,51 127,49 116,48 89,46 67,46 41,46 41,46 36,25 34,17 33,13 33,11 33,9 34,8 35,6 37,1 28,0 125,0 h 111 l 194,1 14,2 c 85,14 163,56 230,125 57,59 98,129 117,205 9,36 12,60 12,98 0,132 -70,221 -173,245 -27,7 -12,6 -227,7 -165,0 -197,0 -199,-1 -4,-2 -5,-7 -9,-21 -3,-13 -3,-14 -2,-17 3,-6 4,-7 37,-7 30,-1 57,0 57,-9 M 703,469 C 703,432 697,394 683,339 657,234 629,176 581,128 538,85 484,58 421,48 c -10,-1 -19,-1 -91,-1 -86,0 -88,0 -88,5 0,4 142,570 144,575 3,5 8,8 18,9 5,0 40,1 75,1 35,0 70,-1 76,-1 91,-9 148,-66 148,-167 z"
       style="fill:#000000;fill-opacity:1;fill-rule:nonzero;stroke:#000000;stroke-width:1;stroke-linecap:butt;stroke-linejoin:miter;stroke-miterlimit:10;stroke-dasharray:none;stroke-opacity:0.0297"
       transform="matrix(0.01320332,0,0,-0.01320332,251.161,85.911862)" />
    <path
       id="path34"
       d="m 333,-241 c 0,4 -1,5 -11,15 -105,111 -155,263 -155,476 0,213 50,365 155,476 10,10 11,11 11,15 0,2 -1,4 -3,6 -3,3 -3,3 -15,3 H 302 L 274,726 C 205,663 153,575 123,473 103,403 94,342 94,250 94,39 160,-122 274,-226 l 28,-24 h 13 c 13,0 18,1 18,9 z"
       style="fill:#000000;fill-opacity:1;fill-rule:nonzero;stroke:#000000;stroke-width:1;stroke-linecap:butt;stroke-linejoin:miter;stroke-miterlimit:10;stroke-dasharray:none;stroke-opacity:0.0297"
       transform="matrix(0.01320332,0,0,-0.01320332,262.09335,85.911862)" />
    <path
       id="path35"
       d="m 322,-22 c 79,0 156,28 200,69 4,3 8,6 8,5 7,-13 33,-43 45,-50 2,-2 4,-3 6,-3 9,0 13,29 33,109 15,56 27,104 28,105 2,6 6,9 11,11 7,1 25,3 41,3 24,0 20,4 25,22 1,6 2,12 2,15 0,6 -3,8 -14,8 -33,0 -65,-1 -113,-1 -48,0 -100,0 -140,2 h -17 c -6,-6 -6,-5 -10,-19 -5,-22 -3,-20 4,-27 h 37 c 62,-1 73,-3 73,-13 0,-7 -24,-99 -27,-108 C 491,57 424,24 353,24 h -6 c -84,5 -141,40 -171,98 -13,27 -20,55 -20,99 0,15 1,30 2,39 23,177 101,316 237,374 37,15 79,25 115,25 91,0 141,-68 141,-178 0,-16 -1,-34 -2,-44 -4,-20 -2,-18 4,-24 h 16 c 20,0 21,1 23,8 1,3 17,66 36,140 27,112 32,132 32,137 0,5 -7,7 -14,7 h -6 l -15,-15 c -8,-8 -26,-27 -41,-41 -20,-22 -25,-26 -27,-26 -2,0 -18,24 -24,30 -27,26 -60,43 -101,50 -6,1 -27,1 -42,1 -43,0 -75,-8 -108,-18 C 273,650 183,575 125,485 76,411 50,328 50,252 50,82 168,-22 322,-22 Z"
       style="fill:#000000;fill-opacity:1;fill-rule:nonzero;stroke:#000000;stroke-width:1;stroke-linecap:butt;stroke-linejoin:miter;stroke-miterlimit:10;stroke-dasharray:none;stroke-opacity:0.0297"
       transform="matrix(0.01320332,0,0,-0.01320332,267.22944,85.911862)" />
    <path
       id="path36"
       d="m 333,-241 c 0,4 -1,5 -11,15 -105,111 -155,263 -155,476 0,213 50,365 155,476 10,10 11,11 11,15 0,2 -1,4 -3,6 -3,3 -3,3 -15,3 H 302 L 274,726 C 205,663 153,575 123,473 103,403 94,342 94,250 94,39 160,-122 274,-226 l 28,-24 h 13 c 13,0 18,1 18,9 z"
       style="fill:#000000;fill-opacity:1;fill-rule:nonzero;stroke:#000000;stroke-width:1;stroke-linecap:butt;stroke-linejoin:miter;stroke-miterlimit:10;stroke-dasharray:none;stroke-opacity:0.0297"
       transform="matrix(0.01320332,0,0,-0.01320332,277.60726,85.911862)" />
    <path
       id="path37"
       d="m 41,-11 h 13 c 15,0 17,0 22,8 15,26 43,60 79,60 6,0 17,-2 22,-5 8,-4 14,-9 31,-26 20,-19 26,-24 39,-30 10,-5 19,-7 31,-7 5,0 11,0 17,1 73,15 128,77 147,144 1,4 2,7 2,9 0,8 -7,10 -20,10 -16,0 -17,-1 -22,-13 -12,-39 -58,-69 -112,-69 -16,0 -35,4 -70,13 -27,7 -39,9 -57,9 l -15,1 12,12 c 21,23 54,54 109,103 75,67 110,102 142,140 17,20 38,49 48,65 6,11 9,17 9,20 0,3 -4,6 -6,8 h -13 c -19,0 -16,0 -24,-12 -19,-31 -32,-47 -44,-53 -5,-2 -7,-2 -14,-2 -18,0 -27,5 -53,30 -21,21 -36,37 -68,37 -6,0 -11,-1 -17,-2 -48,-8 -92,-49 -109,-101 -2,-6 -3,-11 -3,-14 0,-7 5,-8 21,-8 16,0 15,1 19,9 6,20 35,34 74,34 15,0 31,-3 63,-11 30,-8 47,-11 53,-11 7,0 7,-1 -7,-16 C 319,300 289,272 236,224 160,155 126,122 93,84 74,61 53,33 41,11 37,5 35,1 35,-2 c 0,-4 4,-7 6,-9 z"
       style="fill:#000000;fill-opacity:1;fill-rule:nonzero;stroke:#000000;stroke-width:1;stroke-linecap:butt;stroke-linejoin:miter;stroke-miterlimit:10;stroke-dasharray:none;stroke-opacity:0.0297"
       transform="matrix(0.01320332,0,0,-0.01320332,282.74333,85.911862)" />
    <path
       id="path38"
       d="m 60,749 c -3,-2 -5,-7 -5,-11 1,-1 6,-7 11,-13 C 172,615 221,462 221,250 221,38 172,-115 66,-225 c -5,-6 -10,-12 -11,-13 0,-11 4,-12 19,-12 h 12 l 28,24 c 69,63 121,151 151,254 20,68 29,131 29,222 0,211 -66,372 -180,476 L 86,750 H 74 c -8,0 -12,-1 -14,-1 z"
       style="fill:#000000;fill-opacity:1;fill-rule:nonzero;stroke:#000000;stroke-width:1;stroke-linecap:butt;stroke-linejoin:miter;stroke-miterlimit:10;stroke-dasharray:none;stroke-opacity:0.0297"
       transform="matrix(0.01320332,0,0,-0.01320332,288.92251,85.911862)" />
    <path
       id="path39"
       d="m 60,749 c -3,-2 -5,-7 -5,-11 1,-1 6,-7 11,-13 C 172,615 221,462 221,250 221,38 172,-115 66,-225 c -5,-6 -10,-12 -11,-13 0,-11 4,-12 19,-12 h 12 l 28,24 c 69,63 121,151 151,254 20,68 29,131 29,222 0,211 -66,372 -180,476 L 86,750 H 74 c -8,0 -12,-1 -14,-1 z"
       style="fill:#000000;fill-opacity:1;fill-rule:nonzero;stroke:#000000;stroke-width:1;stroke-linecap:butt;stroke-linejoin:miter;stroke-miterlimit:10;stroke-dasharray:none;stroke-opacity:0.0297"
       transform="matrix(0.01320332,0,0,-0.01320332,294.05862,85.911862)" />
    <g
       id="g39">
      <g
         id="g40" />
      <g
         id="g41" />
    </g>
    <text
       id="text41"
       xml:space="preserve"
       transform="matrix(0.938903,0,0,0.938903,299.12552,86.337305)"><tspan
         id="tspan41"
         style="font-variant:normal;font-weight:normal;font-size:12px;font-family:Arial;writing-mode:lr-tb;fill:#000000;fill-opacity:1;fill-rule:nonzero;stroke:none"
         x="0"
         y="0">  </tspan></text>
    <path
       id="path41"
       d="m 540,670 h 380 v 60 H 540 Z"
       style="fill:#f5f5f5;fill-opacity:1;fill-rule:nonzero;stroke:#666666;stroke-width:1;stroke-linecap:butt;stroke-linejoin:miter;stroke-miterlimit:10;stroke-dasharray:none;stroke-opacity:1"
       transform="matrix(0.938903,0,0,0.938903,10.940975,-283.12102)" />
    <path
       id="path42"
       d="m 59,637 h 17 11 c 23,0 46,-1 51,-11 2,-4 8,-59 39,-321 23,-200 38,-318 39,-320 0,-2 2,-4 4,-5 3,-2 5,-2 21,-2 l 18,1 5,3 c 6,3 374,600 374,600 2,2 5,6 7,10 3,3 8,9 12,13 22,20 48,30 86,32 13,0 14,0 17,3 2,3 9,26 9,32 0,5 -4,8 -7,11 h -7 c -18,-2 -51,-2 -87,-2 -36,0 -76,2 -110,2 -14,0 -15,-4 -19,-22 -2,-6 -3,-11 -3,-14 0,-8 5,-10 19,-10 20,-2 45,-10 45,-28 0,-4 -2,-9 -5,-15 -4,-9 -293,-477 -294,-476 -1,1 -59,500 -59,502 2,6 14,12 32,15 5,0 19,1 30,2 h 21 c 5,5 5,6 9,19 5,20 3,20 -4,27 h -10 c -21,-3 -104,-3 -139,-3 -39,0 -77,1 -105,3 H 65 c -4,-4 -13,-24 -13,-35 0,-5 4,-8 7,-11 z"
       style="fill:#333333;fill-opacity:1;fill-rule:nonzero;stroke:#333333;stroke-width:1;stroke-linecap:butt;stroke-linejoin:miter;stroke-miterlimit:10;stroke-dasharray:none;stroke-opacity:0.0297"
       transform="matrix(0.01321462,0,0,-0.01321462,526.91459,376.98026)" />
    <path
       id="path43"
       d="m 333,-241 c 0,4 -1,5 -11,15 -105,111 -155,263 -155,476 0,213 50,365 155,476 10,10 11,11 11,15 0,2 -1,4 -3,6 -3,3 -3,3 -15,3 H 302 L 274,726 C 205,663 153,575 123,473 103,403 94,342 94,250 94,39 160,-122 274,-226 l 28,-24 h 13 c 13,0 18,1 18,9 z"
       style="fill:#333333;fill-opacity:1;fill-rule:nonzero;stroke:#333333;stroke-width:1;stroke-linecap:butt;stroke-linejoin:miter;stroke-miterlimit:10;stroke-dasharray:none;stroke-opacity:0.0297"
       transform="matrix(0.01321462,0,0,-0.01321462,537.07662,376.98026)" />
    <path
       id="path44"
       d="M 287,628 C 287,605 149,65 146,61 142,54 137,51 127,49 116,48 89,46 67,46 41,46 41,46 36,25 34,17 33,13 33,11 33,9 34,8 35,6 37,1 28,0 125,0 h 111 l 194,1 14,2 c 85,14 163,56 230,125 57,59 98,129 117,205 9,36 12,60 12,98 0,132 -70,221 -173,245 -27,7 -12,6 -227,7 -165,0 -197,0 -199,-1 -4,-2 -5,-7 -9,-21 -3,-13 -3,-14 -2,-17 3,-6 4,-7 37,-7 30,-1 57,0 57,-9 M 703,469 C 703,432 697,394 683,339 657,234 629,176 581,128 538,85 484,58 421,48 c -10,-1 -19,-1 -91,-1 -86,0 -88,0 -88,5 0,4 142,570 144,575 3,5 8,8 18,9 5,0 40,1 75,1 35,0 70,-1 76,-1 91,-9 148,-66 148,-167 z"
       style="fill:#333333;fill-opacity:1;fill-rule:nonzero;stroke:#333333;stroke-width:1;stroke-linecap:butt;stroke-linejoin:miter;stroke-miterlimit:10;stroke-dasharray:none;stroke-opacity:0.0297"
       transform="matrix(0.01321462,0,0,-0.01321462,542.2171,376.98026)" />
    <path
       id="path45"
       d="m 78,60 c 0,-34 27,-60 62,-60 9,0 18,2 27,6 3,2 5,3 6,3 V -3 c -4,-59 -26,-111 -68,-154 -8,-8 -10,-12 -10,-15 0,-5 17,-22 22,-22 4,0 9,5 18,14 40,43 64,94 73,153 1,8 2,22 2,35 0,58 -19,113 -73,113 -35,0 -59,-28 -59,-61 z"
       style="fill:#333333;fill-opacity:1;fill-rule:nonzero;stroke:#333333;stroke-width:1;stroke-linecap:butt;stroke-linejoin:miter;stroke-miterlimit:10;stroke-dasharray:none;stroke-opacity:0.0297"
       transform="matrix(0.01321462,0,0,-0.01321462,553.15879,376.98026)" />
    <path
       id="path46"
       d="m 322,-22 c 79,0 156,28 200,69 4,3 8,6 8,5 7,-13 33,-43 45,-50 2,-2 4,-3 6,-3 9,0 13,29 33,109 15,56 27,104 28,105 2,6 6,9 11,11 7,1 25,3 41,3 24,0 20,4 25,22 1,6 2,12 2,15 0,6 -3,8 -14,8 -33,0 -65,-1 -113,-1 -48,0 -100,0 -140,2 h -17 c -6,-6 -6,-5 -10,-19 -5,-22 -3,-20 4,-27 h 37 c 62,-1 73,-3 73,-13 0,-7 -24,-99 -27,-108 C 491,57 424,24 353,24 h -6 c -84,5 -141,40 -171,98 -13,27 -20,55 -20,99 0,15 1,30 2,39 23,177 101,316 237,374 37,15 79,25 115,25 91,0 141,-68 141,-178 0,-16 -1,-34 -2,-44 -4,-20 -2,-18 4,-24 h 16 c 20,0 21,1 23,8 1,3 17,66 36,140 27,112 32,132 32,137 0,5 -7,7 -14,7 h -6 l -15,-15 c -8,-8 -26,-27 -41,-41 -20,-22 -25,-26 -27,-26 -2,0 -18,24 -24,30 -27,26 -60,43 -101,50 -6,1 -27,1 -42,1 -43,0 -75,-8 -108,-18 C 273,650 183,575 125,485 76,411 50,328 50,252 50,82 168,-22 322,-22 Z"
       style="fill:#333333;fill-opacity:1;fill-rule:nonzero;stroke:#333333;stroke-width:1;stroke-linecap:butt;stroke-linejoin:miter;stroke-miterlimit:10;stroke-dasharray:none;stroke-opacity:0.0297"
       transform="matrix(0.01321462,0,0,-0.01321462,559.03537,376.98026)" />
    <path
       id="path47"
       d="m 60,749 c -3,-2 -5,-7 -5,-11 1,-1 6,-7 11,-13 C 172,615 221,462 221,250 221,38 172,-115 66,-225 c -5,-6 -10,-12 -11,-13 0,-11 4,-12 19,-12 h 12 l 28,24 c 69,63 121,151 151,254 20,68 29,131 29,222 0,211 -66,372 -180,476 L 86,750 H 74 c -8,0 -12,-1 -14,-1 z"
       style="fill:#333333;fill-opacity:1;fill-rule:nonzero;stroke:#333333;stroke-width:1;stroke-linecap:butt;stroke-linejoin:miter;stroke-miterlimit:10;stroke-dasharray:none;stroke-opacity:0.0297"
       transform="matrix(0.01321462,0,0,-0.01321462,569.42206,376.98026)" />
    <path
       id="path48"
       d="m 56,347 c 0,-12 6,-17 16,-20 h 318 l 318,1 c 7,4 14,8 14,19 0,11 -7,16 -15,20 H 70 c -8,-4 -14,-9 -14,-20 m 0,-194 c 0,-11 6,-16 14,-20 h 637 c 8,4 15,9 15,20 0,12 -8,15 -14,20 H 72 C 62,170 56,165 56,153 Z"
       style="fill:#333333;fill-opacity:1;fill-rule:nonzero;stroke:#333333;stroke-width:1;stroke-linecap:butt;stroke-linejoin:miter;stroke-miterlimit:10;stroke-dasharray:none;stroke-opacity:0.0297"
       transform="matrix(0.01321462,0,0,-0.01321462,578.2322,376.98026)" />
    <path
       id="path49"
       d="m 437,197 c 7,0 9,2 14,6 4,5 4,7 4,158 0,138 0,156 -4,160 -5,7 -11,9 -20,7 -7,-2 -11,-11 -11,-22 0,-18 -9,-49 -16,-67 -22,-42 -58,-62 -127,-69 h -17 v 122 c 2,138 2,138 15,151 l 7,5 h 58 c 73,-2 95,-7 140,-29 15,-7 22,-13 37,-29 25,-24 36,-42 38,-73 5,-22 9,-27 20,-27 18,0 18,0 18,98 v 84 l -4,7 -7,4 H 24 l -7,-4 c -3,-4 -5,-9 -5,-13 0,-4 2,-8 5,-11 5,-5 9,-7 34,-7 31,-2 42,-7 46,-16 3,-6 5,-44 5,-291 C 102,95 100,57 97,52 93,41 82,37 51,35 26,35 22,32 17,28 14,24 12,20 12,16 12,12 14,7 17,3 l 7,-4 h 576 l 4,4 c 11,11 30,176 36,180 0,9 -9,20 -18,20 -11,0 -18,-6 -20,-24 C 580,115 516,73 449,50 413,39 386,35 331,35 h -49 c -6,5 -15,10 -18,22 -2,9 -2,20 -4,144 v 134 h 24 c 65,-5 102,-25 122,-65 7,-15 14,-40 14,-53 0,-14 5,-20 17,-20 M 235,648 c 0,0 -2,-7 -4,-13 l -5,-12 V 61 l 5,-13 c 2,-7 4,-13 4,-13 H 129 l 4,8 c 2,7 4,29 4,298 0,269 -2,291 -4,298 l -4,9 m 428,-45 -15,16 c -9,9 -22,18 -27,20 -6,4 -11,7 -11,9 h 53 M 420,317 409,328 c -7,4 -20,13 -27,18 -9,4 -16,9 -16,9 l 14,8 c 9,5 20,14 26,20 l 14,14 M 582,61 c -2,-13 -5,-24 -5,-26 h -35 l -31,2 15,9 c 18,9 49,31 56,37 2,3 2,5 4,5 z"
       style="fill:#333333;fill-opacity:1;fill-rule:nonzero;stroke:#333333;stroke-width:1;stroke-linecap:butt;stroke-linejoin:miter;stroke-miterlimit:10;stroke-dasharray:none;stroke-opacity:0.0297"
       transform="matrix(0.01321462,0,0,-0.01321462,592.18423,376.98026)" />
    <path
       id="path50"
       d="m 58,278 h 14 c 19,0 18,1 21,12 15,53 59,114 124,114 31,0 49,-20 49,-52 0,-11 -2,-23 -5,-39 C 251,282 215,107 194,71 177,42 155,26 132,26 c -7,0 -19,2 -26,5 -5,2 -15,8 -15,9 0,0 2,1 3,1 2,1 8,3 13,6 19,9 35,28 35,54 0,28 -17,42 -43,42 -39,0 -64,-34 -64,-72 0,-14 3,-28 10,-40 14,-24 40,-41 82,-41 15,0 17,0 26,2 29,10 55,31 74,60 20,-35 53,-63 106,-63 43,0 71,15 99,37 31,27 58,65 70,108 1,5 2,8 2,11 0,7 -5,8 -19,8 -17,0 -18,0 -22,-13 C 449,89 401,26 341,26 c -31,0 -51,20 -51,52 0,9 1,20 3,30 3,16 53,217 57,228 11,31 34,57 56,66 6,2 8,2 19,2 13,0 21,-1 29,-6 6,-3 11,-6 11,-7 -26,-9 -50,-28 -50,-63 0,-24 17,-40 43,-40 39,0 64,33 64,73 0,44 -36,81 -92,81 -31,0 -61,-15 -85,-42 -8,-8 -11,-14 -16,-21 -17,35 -59,63 -107,63 -7,0 -14,-1 -21,-2 -45,-7 -88,-37 -118,-82 -13,-20 -29,-55 -31,-69 0,-6 3,-8 6,-11 z"
       style="fill:#333333;fill-opacity:1;fill-rule:nonzero;stroke:#333333;stroke-width:1;stroke-linecap:butt;stroke-linejoin:miter;stroke-miterlimit:10;stroke-dasharray:none;stroke-opacity:0.021"
       transform="matrix(0.00934274,0,0,-0.00934274,601.43447,379.3153)" />
    <path
       id="path51"
       d="m 69,133 c 30,0 -12,82 76,153 22,16 50,25 78,25 30,0 54,-9 81,-25 21,-12 38,-26 78,-61 59,-52 87,-71 122,-83 19,-7 29,-8 50,-8 h 8 c 22,0 36,4 58,15 50,24 87,80 98,147 3,15 4,28 4,38 0,15 -3,33 -14,33 -7,0 -14,-12 -14,-29 0,-50 -28,-99 -62,-124 -22,-16 -50,-25 -78,-25 -31,0 -54,9 -81,25 -21,12 -38,26 -78,61 -45,40 -86,77 -142,89 -8,2 -20,3 -31,3 -8,0 -16,-1 -21,-2 C 122,353 66,282 56,184 c -1,-7 -1,-13 -1,-18 0,-14 3,-33 14,-33 z"
       style="fill:#333333;fill-opacity:1;fill-rule:nonzero;stroke:#333333;stroke-width:1;stroke-linecap:butt;stroke-linejoin:miter;stroke-miterlimit:10;stroke-dasharray:none;stroke-opacity:0.021"
       transform="matrix(0.00934274,0,0,-0.00934274,606.77853,379.3153)" />
    <path
       id="path52"
       d="m 29,278 h 14 c 19,0 16,0 20,9 18,69 30,97 48,111 6,5 13,7 20,7 21,0 25,-18 25,-41 0,-4 0,-9 -1,-14 -3,-17 -118,-478 -122,-486 -4,-9 -9,-11 -39,-12 h -20 l -4,-3 c -2,-3 -9,-26 -9,-32 0,-5 4,-8 7,-11 h 8 c 19,2 53,2 89,2 36,0 74,-2 107,-2 14,0 15,4 19,19 5,20 3,19 -3,27 h -25 c -28,1 -45,-1 -45,10 0,1 41,172 43,174 0,0 24,-29 49,-40 14,-5 20,-6 39,-6 19,0 30,1 48,6 77,24 148,95 181,183 12,35 19,69 19,102 0,87 -46,143 -114,159 -6,1 -15,2 -25,2 -10,0 -19,-1 -25,-2 -38,-9 -65,-27 -93,-53 l -10,-9 c -12,37 -45,64 -96,64 -25,0 -37,-8 -53,-24 C 63,400 49,374 36,334 30,316 23,290 23,287 c 0,-3 4,-7 6,-9 m 382,47 C 411,298 407,275 393,219 379,161 370,133 356,107 333,61 296,26 252,26 c -25,0 -47,15 -61,41 -4,7 -11,28 -13,35 0,3 5,24 26,110 15,59 28,108 28,110 1,1 4,6 8,10 30,40 65,65 98,72 3,0 8,1 12,1 45,0 61,-33 61,-80 z"
       style="fill:#333333;fill-opacity:1;fill-rule:nonzero;stroke:#333333;stroke-width:1;stroke-linecap:butt;stroke-linejoin:miter;stroke-miterlimit:10;stroke-dasharray:none;stroke-opacity:0.021"
       transform="matrix(0.00934274,0,0,-0.00934274,614.04717,379.3153)" />
    <path
       id="path53"
       d="m 438,688 c -38,-2 -70,-5 -72,-5 -8,0 -10,-7 -13,-19 -5,-22 -3,-20 4,-27 h 21 c 22,-1 34,-3 40,-5 5,-3 6,-7 6,-16 -1,-6 -53,-215 -55,-220 0,-2 -1,-1 -5,4 -17,25 -50,42 -84,42 -13,0 -27,-2 -41,-6 C 188,423 141,390 101,341 68,297 33,230 33,157 33,109 42,76 63,45 c 24,-31 55,-55 109,-55 10,0 19,0 25,1 32,7 64,26 95,55 7,6 7,7 8,5 0,-2 3,-7 5,-12 15,-29 46,-49 88,-49 15,0 16,0 24,2 12,5 21,10 32,21 22,22 39,58 54,116 2,8 3,12 3,16 0,7 -5,8 -19,8 h -4 c -15,0 -14,-1 -20,-22 -14,-54 -25,-81 -41,-96 -7,-5 -12,-8 -20,-9 -23,0 -28,18 -28,42 0,5 0,10 1,15 2,14 148,591 148,603 0,6 -7,8 -12,8 -3,0 -36,-3 -73,-6 M 352,326 298,109 290,98 C 265,67 223,26 179,26 c -42,0 -61,34 -61,80 0,8 1,16 1,23 5,36 27,126 41,164 18,50 59,112 117,112 44,0 63,-36 75,-79 z"
       style="fill:#333333;fill-opacity:1;fill-rule:nonzero;stroke:#333333;stroke-width:1;stroke-linecap:butt;stroke-linejoin:miter;stroke-miterlimit:10;stroke-dasharray:none;stroke-opacity:0.0149"
       transform="matrix(0.00660532,0,0,-0.00660532,619.05489,380.7167)" />
    <path
       id="path54"
       d="m 487,153 h -4 c -15,0 -14,-1 -20,-22 -14,-54 -25,-81 -41,-96 -7,-5 -12,-8 -20,-9 -23,0 -28,18 -28,42 0,34 75,299 75,326 0,17 -17,28 -33,28 -21,0 -37,-13 -46,-30 -21,26 -47,49 -90,49 -47,0 -87,-18 -122,-45 C 97,350 44,267 34,179 c -1,-6 -1,-14 -1,-22 0,-48 9,-81 30,-112 24,-31 55,-55 109,-55 10,0 19,0 25,1 32,7 64,26 95,55 7,6 7,7 8,5 0,-2 3,-7 5,-12 15,-29 46,-49 88,-49 15,0 16,0 24,2 12,5 21,10 32,21 22,22 39,58 54,116 2,8 3,12 3,15 0,9 -4,9 -19,9 M 118,106 c 0,8 1,16 1,23 5,36 27,126 41,164 18,50 59,112 117,112 30,0 50,-17 63,-43 4,-8 11,-25 11,-34 0,-11 -50,-213 -53,-218 -5,-10 -40,-49 -57,-60 -22,-16 -43,-24 -62,-24 -42,0 -61,34 -61,80 z"
       style="fill:#333333;fill-opacity:1;fill-rule:nonzero;stroke:#333333;stroke-width:1;stroke-linecap:butt;stroke-linejoin:miter;stroke-miterlimit:10;stroke-dasharray:none;stroke-opacity:0.0149"
       transform="matrix(0.00660532,0,0,-0.00660532,622.50951,380.7167)" />
    <path
       id="path55"
       d="m 26,385 h 51 c 48,0 51,0 51,-2 -1,-1 -17,-65 -36,-142 L 57,101 V 83 c 0,-17 0,-19 2,-27 12,-39 46,-67 96,-67 32,0 58,12 79,28 32,24 70,72 85,116 2,5 4,9 4,12 0,7 -7,8 -20,8 -16,0 -17,-1 -20,-9 -4,-10 -12,-27 -18,-37 -26,-45 -59,-74 -91,-80 -5,-1 -9,-1 -12,-1 -22,0 -27,19 -27,42 0,5 0,10 1,15 1,7 15,64 38,157 l 36,145 h 107 c 4,4 13,23 13,35 0,5 -4,8 -7,11 h -51 c -47,0 -50,0 -50,2 0,0 39,148 39,163 0,18 -15,29 -32,30 -23,0 -39,-12 -46,-28 -3,-6 -8,-25 -24,-87 L 140,431 H 87 c -58,0 -57,0 -60,-6 -2,-2 -8,-25 -8,-30 0,-5 4,-7 7,-10 z"
       style="fill:#333333;fill-opacity:1;fill-rule:nonzero;stroke:#333333;stroke-width:1;stroke-linecap:butt;stroke-linejoin:miter;stroke-miterlimit:10;stroke-dasharray:none;stroke-opacity:0.0149"
       transform="matrix(0.00660532,0,0,-0.00660532,626.00369,380.7167)" />
    <path
       id="path56"
       d="m 487,153 h -4 c -15,0 -14,-1 -20,-22 -14,-54 -25,-81 -41,-96 -7,-5 -12,-8 -20,-9 -23,0 -28,18 -28,42 0,34 75,299 75,326 0,17 -17,28 -33,28 -21,0 -37,-13 -46,-30 -21,26 -47,49 -90,49 -47,0 -87,-18 -122,-45 C 97,350 44,267 34,179 c -1,-6 -1,-14 -1,-22 0,-48 9,-81 30,-112 24,-31 55,-55 109,-55 10,0 19,0 25,1 32,7 64,26 95,55 7,6 7,7 8,5 0,-2 3,-7 5,-12 15,-29 46,-49 88,-49 15,0 16,0 24,2 12,5 21,10 32,21 22,22 39,58 54,116 2,8 3,12 3,15 0,9 -4,9 -19,9 M 118,106 c 0,8 1,16 1,23 5,36 27,126 41,164 18,50 59,112 117,112 30,0 50,-17 63,-43 4,-8 11,-25 11,-34 0,-11 -50,-213 -53,-218 -5,-10 -40,-49 -57,-60 -22,-16 -43,-24 -62,-24 -42,0 -61,34 -61,80 z"
       style="fill:#333333;fill-opacity:1;fill-rule:nonzero;stroke:#333333;stroke-width:1;stroke-linecap:butt;stroke-linejoin:miter;stroke-miterlimit:10;stroke-dasharray:none;stroke-opacity:0.0149"
       transform="matrix(0.00660532,0,0,-0.00660532,628.38823,380.7167)" />
    <path
       id="path57"
       d="m 333,-241 c 0,4 -1,5 -11,15 -105,111 -155,263 -155,476 0,213 50,365 155,476 10,10 11,11 11,15 0,2 -1,4 -3,6 -3,3 -3,3 -15,3 H 302 L 274,726 C 205,663 153,575 123,473 103,403 94,342 94,250 94,39 160,-122 274,-226 l 28,-24 h 13 c 13,0 18,1 18,9 z"
       style="fill:#333333;fill-opacity:1;fill-rule:nonzero;stroke:#333333;stroke-width:1;stroke-linecap:butt;stroke-linejoin:miter;stroke-miterlimit:10;stroke-dasharray:none;stroke-opacity:0.021"
       transform="matrix(0.00934274,0,0,-0.00934274,632.35146,379.3153)" />
    <path
       id="path58"
       d="m 58,278 h 14 c 19,0 18,1 21,12 15,53 59,114 124,114 31,0 49,-20 49,-52 0,-11 -2,-23 -5,-39 C 251,282 215,107 194,71 177,42 155,26 132,26 c -7,0 -19,2 -26,5 -5,2 -15,8 -15,9 0,0 2,1 3,1 2,1 8,3 13,6 19,9 35,28 35,54 0,28 -17,42 -43,42 -39,0 -64,-34 -64,-72 0,-14 3,-28 10,-40 14,-24 40,-41 82,-41 15,0 17,0 26,2 29,10 55,31 74,60 20,-35 53,-63 106,-63 43,0 71,15 99,37 31,27 58,65 70,108 1,5 2,8 2,11 0,7 -5,8 -19,8 -17,0 -18,0 -22,-13 C 449,89 401,26 341,26 c -31,0 -51,20 -51,52 0,9 1,20 3,30 3,16 53,217 57,228 11,31 34,57 56,66 6,2 8,2 19,2 13,0 21,-1 29,-6 6,-3 11,-6 11,-7 -26,-9 -50,-28 -50,-63 0,-24 17,-40 43,-40 39,0 64,33 64,73 0,44 -36,81 -92,81 -31,0 -61,-15 -85,-42 -8,-8 -11,-14 -16,-21 -17,35 -59,63 -107,63 -7,0 -14,-1 -21,-2 -45,-7 -88,-37 -118,-82 -13,-20 -29,-55 -31,-69 0,-6 3,-8 6,-11 z"
       style="fill:#333333;fill-opacity:1;fill-rule:nonzero;stroke:#333333;stroke-width:1;stroke-linecap:butt;stroke-linejoin:miter;stroke-miterlimit:10;stroke-dasharray:none;stroke-opacity:0.021"
       transform="matrix(0.00934274,0,0,-0.00934274,635.98583,379.3153)" />
    <path
       id="path59"
       d="m 60,749 c -3,-2 -5,-7 -5,-11 1,-1 6,-7 11,-13 C 172,615 221,462 221,250 221,38 172,-115 66,-225 c -5,-6 -10,-12 -11,-13 0,-11 4,-12 19,-12 h 12 l 28,24 c 69,63 121,151 151,254 20,68 29,131 29,222 0,211 -66,372 -180,476 L 86,750 H 74 c -8,0 -12,-1 -14,-1 z"
       style="fill:#333333;fill-opacity:1;fill-rule:nonzero;stroke:#333333;stroke-width:1;stroke-linecap:butt;stroke-linejoin:miter;stroke-miterlimit:10;stroke-dasharray:none;stroke-opacity:0.021"
       transform="matrix(0.00934274,0,0,-0.00934274,641.32986,379.3153)" />
    <path
       id="path60"
       d="m 118,-250 h 137 v 40 h -97 v 920 h 97 v 40 H 118 Z"
       style="fill:#333333;fill-opacity:1;fill-rule:nonzero;stroke:#333333;stroke-width:1;stroke-linecap:butt;stroke-linejoin:miter;stroke-miterlimit:10;stroke-dasharray:none;stroke-opacity:0.0297"
       transform="matrix(0.01321462,0,0,-0.01321462,645.63213,376.98026)" />
    <path
       id="path61"
       d="M 42,46 H 26 V 0 h 8 c 13,3 88,3 111,3 23,0 98,-1 110,-3 h 8 v 46 h -16 c -20,0 -42,2 -49,3 -5,2 -10,7 -12,11 -1,2 -1,99 -1,319 v 315 h -3 c -2,0 -37,-3 -78,-6 -41,-2 -75,-5 -76,-5 -2,0 -2,-2 -2,-23 v -23 h 18 c 44,-2 55,-8 59,-34 0,-5 1,-140 1,-274 C 104,195 103,62 103,60 96,47 80,46 56,46 Z"
       style="fill:#333333;fill-opacity:1;fill-rule:nonzero;stroke:#333333;stroke-width:1;stroke-linecap:butt;stroke-linejoin:miter;stroke-miterlimit:10;stroke-dasharray:none;stroke-opacity:0.0297"
       transform="matrix(0.01321462,0,0,-0.01321462,649.30576,376.98026)" />
    <path
       id="path62"
       d="M 28,214 C 28,110 97,21 197,-4 c 19,-5 30,-6 53,-6 22,0 33,1 52,6 84,21 148,88 164,172 3,16 5,31 5,47 0,63 -28,127 -70,169 -41,41 -96,64 -151,64 -8,0 -17,-1 -25,-2 C 120,433 28,338 28,214 m 240,196 c 55,-12 87,-42 99,-97 5,-23 5,-33 5,-88 V 193 C 372,98 342,30 250,30 c -53,0 -86,25 -105,61 -17,36 -19,72 -19,135 0,28 1,55 2,64 8,57 27,89 67,109 18,8 38,12 57,12 5,0 11,0 16,-1 z"
       style="fill:#333333;fill-opacity:1;fill-rule:nonzero;stroke:#333333;stroke-width:1;stroke-linecap:butt;stroke-linejoin:miter;stroke-miterlimit:10;stroke-dasharray:none;stroke-opacity:0.0297"
       transform="matrix(0.01321462,0,0,-0.01321462,652.97946,376.98026)" />
    <path
       id="path63"
       d="m 329,409 -11,7 c -29,17 -61,26 -95,26 C 159,442 106,414 79,373 63,350 52,328 52,292 52,245 72,217 96,193 79,170 67,146 67,108 67,70 83,41 103,24 L 92,18 C 79,12 71,6 60,-5 41,-23 29,-43 29,-75 c 0,-8 0,-15 2,-21 9,-32 34,-59 76,-79 41,-21 81,-31 143,-31 62,0 102,10 142,31 42,20 67,47 76,79 2,6 2,15 2,24 0,44 -16,75 -39,98 -21,19 -57,35 -96,41 -25,5 -35,5 -108,6 -81,1 -77,0 -89,8 -15,10 -26,29 -26,52 0,15 5,27 11,38 29,-16 62,-28 99,-28 64,0 116,29 143,69 16,23 27,44 27,80 0,40 -13,64 -33,89 -2,3 -4,5 -4,5 0,1 3,4 8,7 13,10 28,17 44,20 5,1 9,2 9,2 0,-1 -1,-2 -1,-4 -3,-4 -4,-14 -3,-21 3,-18 15,-30 37,-30 21,0 36,15 36,36 0,34 -24,57 -56,57 -43,0 -77,-21 -100,-44 M 142,292 c 0,20 1,40 3,51 7,37 37,61 76,61 43,0 71,-24 78,-61 2,-11 3,-31 3,-51 0,-20 -1,-39 -3,-50 -6,-35 -34,-60 -77,-60 -65,0 -80,44 -80,110 M 375,-23 c 17,-11 28,-27 28,-52 0,-6 0,-13 -2,-18 -10,-31 -52,-60 -101,-70 -18,-4 -27,-4 -50,-4 -24,0 -33,0 -51,4 -49,10 -91,39 -101,69 -2,6 -3,13 -3,20 0,28 16,56 43,68 13,6 14,6 80,6 h 29 c 57,0 96,-1 128,-23 z"
       style="fill:#333333;fill-opacity:1;fill-rule:nonzero;stroke:#333333;stroke-width:1;stroke-linecap:butt;stroke-linejoin:miter;stroke-miterlimit:10;stroke-dasharray:none;stroke-opacity:0.0297"
       transform="matrix(0.01321462,0,0,-0.01321462,659.58676,376.98026)" />
    <path
       id="path64"
       d="M 287,628 C 287,605 149,65 146,61 142,54 137,51 127,49 116,48 89,46 67,46 41,46 41,46 36,25 34,17 33,13 33,11 33,9 34,8 35,6 37,1 28,0 125,0 h 111 l 194,1 14,2 c 85,14 163,56 230,125 57,59 98,129 117,205 9,36 12,60 12,98 0,132 -70,221 -173,245 -27,7 -12,6 -227,7 -165,0 -197,0 -199,-1 -4,-2 -5,-7 -9,-21 -3,-13 -3,-14 -2,-17 3,-6 4,-7 37,-7 30,-1 57,0 57,-9 M 703,469 C 703,432 697,394 683,339 657,234 629,176 581,128 538,85 484,58 421,48 c -10,-1 -19,-1 -91,-1 -86,0 -88,0 -88,5 0,4 142,570 144,575 3,5 8,8 18,9 5,0 40,1 75,1 35,0 70,-1 76,-1 91,-9 148,-66 148,-167 z"
       style="fill:#333333;fill-opacity:1;fill-rule:nonzero;stroke:#333333;stroke-width:1;stroke-linecap:butt;stroke-linejoin:miter;stroke-miterlimit:10;stroke-dasharray:none;stroke-opacity:0.0297"
       transform="matrix(0.01321462,0,0,-0.01321462,668.39559,376.98026)" />
    <path
       id="path65"
       d="m 333,-241 c 0,4 -1,5 -11,15 -105,111 -155,263 -155,476 0,213 50,365 155,476 10,10 11,11 11,15 0,2 -1,4 -3,6 -3,3 -3,3 -15,3 H 302 L 274,726 C 205,663 153,575 123,473 103,403 94,342 94,250 94,39 160,-122 274,-226 l 28,-24 h 13 c 13,0 18,1 18,9 z"
       style="fill:#333333;fill-opacity:1;fill-rule:nonzero;stroke:#333333;stroke-width:1;stroke-linecap:butt;stroke-linejoin:miter;stroke-miterlimit:10;stroke-dasharray:none;stroke-opacity:0.0297"
       transform="matrix(0.01321462,0,0,-0.01321462,679.33732,376.98026)" />
    <path
       id="path66"
       d="m 58,278 h 14 c 19,0 18,1 21,12 15,53 59,114 124,114 31,0 49,-20 49,-52 0,-11 -2,-23 -5,-39 C 251,282 215,107 194,71 177,42 155,26 132,26 c -7,0 -19,2 -26,5 -5,2 -15,8 -15,9 0,0 2,1 3,1 2,1 8,3 13,6 19,9 35,28 35,54 0,28 -17,42 -43,42 -39,0 -64,-34 -64,-72 0,-14 3,-28 10,-40 14,-24 40,-41 82,-41 15,0 17,0 26,2 29,10 55,31 74,60 20,-35 53,-63 106,-63 43,0 71,15 99,37 31,27 58,65 70,108 1,5 2,8 2,11 0,7 -5,8 -19,8 -17,0 -18,0 -22,-13 C 449,89 401,26 341,26 c -31,0 -51,20 -51,52 0,9 1,20 3,30 3,16 53,217 57,228 11,31 34,57 56,66 6,2 8,2 19,2 13,0 21,-1 29,-6 6,-3 11,-6 11,-7 -26,-9 -50,-28 -50,-63 0,-24 17,-40 43,-40 39,0 64,33 64,73 0,44 -36,81 -92,81 -31,0 -61,-15 -85,-42 -8,-8 -11,-14 -16,-21 -17,35 -59,63 -107,63 -7,0 -14,-1 -21,-2 -45,-7 -88,-37 -118,-82 -13,-20 -29,-55 -31,-69 0,-6 3,-8 6,-11 z"
       style="fill:#333333;fill-opacity:1;fill-rule:nonzero;stroke:#333333;stroke-width:1;stroke-linecap:butt;stroke-linejoin:miter;stroke-miterlimit:10;stroke-dasharray:none;stroke-opacity:0.0297"
       transform="matrix(0.01321462,0,0,-0.01321462,684.4778,376.98026)" />
    <path
       id="path67"
       d="m 60,749 c -3,-2 -5,-7 -5,-11 1,-1 6,-7 11,-13 C 172,615 221,462 221,250 221,38 172,-115 66,-225 c -5,-6 -10,-12 -11,-13 0,-11 4,-12 19,-12 h 12 l 28,24 c 69,63 121,151 151,254 20,68 29,131 29,222 0,211 -66,372 -180,476 L 86,750 H 74 c -8,0 -12,-1 -14,-1 z"
       style="fill:#333333;fill-opacity:1;fill-rule:nonzero;stroke:#333333;stroke-width:1;stroke-linecap:butt;stroke-linejoin:miter;stroke-miterlimit:10;stroke-dasharray:none;stroke-opacity:0.0297"
       transform="matrix(0.01321462,0,0,-0.01321462,692.03661,376.98026)" />
    <path
       id="path68"
       d="m 22,710 h 97 V -210 H 22 v -40 H 159 V 750 H 22 Z"
       style="fill:#333333;fill-opacity:1;fill-rule:nonzero;stroke:#333333;stroke-width:1;stroke-linecap:butt;stroke-linejoin:miter;stroke-miterlimit:10;stroke-dasharray:none;stroke-opacity:0.0297"
       transform="matrix(0.01321462,0,0,-0.01321462,697.17709,376.98026)" />
    <path
       id="path69"
       d="m 56,250 c 0,-11 6,-16 14,-20 H 369 V -68 c 4,-8 9,-14 20,-14 11,0 16,6 20,14 v 298 h 298 c 8,4 15,9 15,20 0,11 -7,16 -15,20 H 409 v 298 c -4,8 -10,15 -20,15 -10,0 -15,-8 -19,-13 L 369,420 V 270 H 70 c -8,-4 -14,-9 -14,-20 z"
       style="fill:#333333;fill-opacity:1;fill-rule:nonzero;stroke:#333333;stroke-width:1;stroke-linecap:butt;stroke-linejoin:miter;stroke-miterlimit:10;stroke-dasharray:none;stroke-opacity:0.0297"
       transform="matrix(0.01321462,0,0,-0.01321462,703.78832,376.98026)" />
    <path
       id="path70"
       d="m 437,197 c 7,0 9,2 14,6 4,5 4,7 4,158 0,138 0,156 -4,160 -5,7 -11,9 -20,7 -7,-2 -11,-11 -11,-22 0,-18 -9,-49 -16,-67 -22,-42 -58,-62 -127,-69 h -17 v 122 c 2,138 2,138 15,151 l 7,5 h 58 c 73,-2 95,-7 140,-29 15,-7 22,-13 37,-29 25,-24 36,-42 38,-73 5,-22 9,-27 20,-27 18,0 18,0 18,98 v 84 l -4,7 -7,4 H 24 l -7,-4 c -3,-4 -5,-9 -5,-13 0,-4 2,-8 5,-11 5,-5 9,-7 34,-7 31,-2 42,-7 46,-16 3,-6 5,-44 5,-291 C 102,95 100,57 97,52 93,41 82,37 51,35 26,35 22,32 17,28 14,24 12,20 12,16 12,12 14,7 17,3 l 7,-4 h 576 l 4,4 c 11,11 30,176 36,180 0,9 -9,20 -18,20 -11,0 -18,-6 -20,-24 C 580,115 516,73 449,50 413,39 386,35 331,35 h -49 c -6,5 -15,10 -18,22 -2,9 -2,20 -4,144 v 134 h 24 c 65,-5 102,-25 122,-65 7,-15 14,-40 14,-53 0,-14 5,-20 17,-20 M 235,648 c 0,0 -2,-7 -4,-13 l -5,-12 V 61 l 5,-13 c 2,-7 4,-13 4,-13 H 129 l 4,8 c 2,7 4,29 4,298 0,269 -2,291 -4,298 l -4,9 m 428,-45 -15,16 c -9,9 -22,18 -27,20 -6,4 -11,7 -11,9 h 53 M 420,317 409,328 c -7,4 -20,13 -27,18 -9,4 -16,9 -16,9 l 14,8 c 9,5 20,14 26,20 l 14,14 M 582,61 c -2,-13 -5,-24 -5,-26 h -35 l -31,2 15,9 c 18,9 49,31 56,37 2,3 2,5 4,5 z"
       style="fill:#333333;fill-opacity:1;fill-rule:nonzero;stroke:#333333;stroke-width:1;stroke-linecap:butt;stroke-linejoin:miter;stroke-miterlimit:10;stroke-dasharray:none;stroke-opacity:0.0297"
       transform="matrix(0.01321462,0,0,-0.01321462,717.00567,376.98026)" />
    <path
       id="path71"
       d="m 41,-11 h 13 c 15,0 17,0 22,8 15,26 43,60 79,60 6,0 17,-2 22,-5 8,-4 14,-9 31,-26 20,-19 26,-24 39,-30 10,-5 19,-7 31,-7 5,0 11,0 17,1 73,15 128,77 147,144 1,4 2,7 2,9 0,8 -7,10 -20,10 -16,0 -17,-1 -22,-13 -12,-39 -58,-69 -112,-69 -16,0 -35,4 -70,13 -27,7 -39,9 -57,9 l -15,1 12,12 c 21,23 54,54 109,103 75,67 110,102 142,140 17,20 38,49 48,65 6,11 9,17 9,20 0,3 -4,6 -6,8 h -13 c -19,0 -16,0 -24,-12 -19,-31 -32,-47 -44,-53 -5,-2 -7,-2 -14,-2 -18,0 -27,5 -53,30 -21,21 -36,37 -68,37 -6,0 -11,-1 -17,-2 -48,-8 -92,-49 -109,-101 -2,-6 -3,-11 -3,-14 0,-7 5,-8 21,-8 16,0 15,1 19,9 6,20 35,34 74,34 15,0 31,-3 63,-11 30,-8 47,-11 53,-11 7,0 7,-1 -7,-16 C 319,300 289,272 236,224 160,155 126,122 93,84 74,61 53,33 41,11 37,5 35,1 35,-2 c 0,-4 4,-7 6,-9 z"
       style="fill:#333333;fill-opacity:1;fill-rule:nonzero;stroke:#333333;stroke-width:1;stroke-linecap:butt;stroke-linejoin:miter;stroke-miterlimit:10;stroke-dasharray:none;stroke-opacity:0.021"
       transform="matrix(0.00934274,0,0,-0.00934274,726.25584,379.3153)" />
    <path
       id="path72"
       d="m 69,133 c 30,0 -12,82 76,153 22,16 50,25 78,25 30,0 54,-9 81,-25 21,-12 38,-26 78,-61 59,-52 87,-71 122,-83 19,-7 29,-8 50,-8 h 8 c 22,0 36,4 58,15 50,24 87,80 98,147 3,15 4,28 4,38 0,15 -3,33 -14,33 -7,0 -14,-12 -14,-29 0,-50 -28,-99 -62,-124 -22,-16 -50,-25 -78,-25 -31,0 -54,9 -81,25 -21,12 -38,26 -78,61 -45,40 -86,77 -142,89 -8,2 -20,3 -31,3 -8,0 -16,-1 -21,-2 C 122,353 66,282 56,184 c -1,-7 -1,-13 -1,-18 0,-14 3,-33 14,-33 z"
       style="fill:#333333;fill-opacity:1;fill-rule:nonzero;stroke:#333333;stroke-width:1;stroke-linecap:butt;stroke-linejoin:miter;stroke-miterlimit:10;stroke-dasharray:none;stroke-opacity:0.021"
       transform="matrix(0.00934274,0,0,-0.00934274,730.62826,379.3153)" />
    <path
       id="path73"
       d="m 29,278 h 14 c 19,0 16,0 20,9 18,69 30,97 48,111 6,5 13,7 20,7 21,0 25,-18 25,-41 0,-4 0,-9 -1,-14 -3,-17 -118,-478 -122,-486 -4,-9 -9,-11 -39,-12 h -20 l -4,-3 c -2,-3 -9,-26 -9,-32 0,-5 4,-8 7,-11 h 8 c 19,2 53,2 89,2 36,0 74,-2 107,-2 14,0 15,4 19,19 5,20 3,19 -3,27 h -25 c -28,1 -45,-1 -45,10 0,1 41,172 43,174 0,0 24,-29 49,-40 14,-5 20,-6 39,-6 19,0 30,1 48,6 77,24 148,95 181,183 12,35 19,69 19,102 0,87 -46,143 -114,159 -6,1 -15,2 -25,2 -10,0 -19,-1 -25,-2 -38,-9 -65,-27 -93,-53 l -10,-9 c -12,37 -45,64 -96,64 -25,0 -37,-8 -53,-24 C 63,400 49,374 36,334 30,316 23,290 23,287 c 0,-3 4,-7 6,-9 m 382,47 C 411,298 407,275 393,219 379,161 370,133 356,107 333,61 296,26 252,26 c -25,0 -47,15 -61,41 -4,7 -11,28 -13,35 0,3 5,24 26,110 15,59 28,108 28,110 1,1 4,6 8,10 30,40 65,65 98,72 3,0 8,1 12,1 45,0 61,-33 61,-80 z"
       style="fill:#333333;fill-opacity:1;fill-rule:nonzero;stroke:#333333;stroke-width:1;stroke-linecap:butt;stroke-linejoin:miter;stroke-miterlimit:10;stroke-dasharray:none;stroke-opacity:0.021"
       transform="matrix(0.00934274,0,0,-0.00934274,737.89683,379.3153)" />
    <path
       id="path74"
       d="m 41,-11 h 13 c 15,0 17,0 22,8 15,26 43,60 79,60 6,0 17,-2 22,-5 8,-4 14,-9 31,-26 20,-19 26,-24 39,-30 10,-5 19,-7 31,-7 5,0 11,0 17,1 73,15 128,77 147,144 1,4 2,7 2,9 0,8 -7,10 -20,10 -16,0 -17,-1 -22,-13 -12,-39 -58,-69 -112,-69 -16,0 -35,4 -70,13 -27,7 -39,9 -57,9 l -15,1 12,12 c 21,23 54,54 109,103 75,67 110,102 142,140 17,20 38,49 48,65 6,11 9,17 9,20 0,3 -4,6 -6,8 h -13 c -19,0 -16,0 -24,-12 -19,-31 -32,-47 -44,-53 -5,-2 -7,-2 -14,-2 -18,0 -27,5 -53,30 -21,21 -36,37 -68,37 -6,0 -11,-1 -17,-2 -48,-8 -92,-49 -109,-101 -2,-6 -3,-11 -3,-14 0,-7 5,-8 21,-8 16,0 15,1 19,9 6,20 35,34 74,34 15,0 31,-3 63,-11 30,-8 47,-11 53,-11 7,0 7,-1 -7,-16 C 319,300 289,272 236,224 160,155 126,122 93,84 74,61 53,33 41,11 37,5 35,1 35,-2 c 0,-4 4,-7 6,-9 z"
       style="fill:#333333;fill-opacity:1;fill-rule:nonzero;stroke:#333333;stroke-width:1;stroke-linecap:butt;stroke-linejoin:miter;stroke-miterlimit:10;stroke-dasharray:none;stroke-opacity:0.0149"
       transform="matrix(0.00660532,0,0,-0.00660532,742.90464,380.7167)" />
    <path
       id="path75"
       d="m 333,-241 c 0,4 -1,5 -11,15 -105,111 -155,263 -155,476 0,213 50,365 155,476 10,10 11,11 11,15 0,2 -1,4 -3,6 -3,3 -3,3 -15,3 H 302 L 274,726 C 205,663 153,575 123,473 103,403 94,342 94,250 94,39 160,-122 274,-226 l 28,-24 h 13 c 13,0 18,1 18,9 z"
       style="fill:#333333;fill-opacity:1;fill-rule:nonzero;stroke:#333333;stroke-width:1;stroke-linecap:butt;stroke-linejoin:miter;stroke-miterlimit:10;stroke-dasharray:none;stroke-opacity:0.021"
       transform="matrix(0.00934274,0,0,-0.00934274,746.46326,379.3153)" />
    <path
       id="path76"
       d="m 41,-11 h 13 c 15,0 17,0 22,8 15,26 43,60 79,60 6,0 17,-2 22,-5 8,-4 14,-9 31,-26 20,-19 26,-24 39,-30 10,-5 19,-7 31,-7 5,0 11,0 17,1 73,15 128,77 147,144 1,4 2,7 2,9 0,8 -7,10 -20,10 -16,0 -17,-1 -22,-13 -12,-39 -58,-69 -112,-69 -16,0 -35,4 -70,13 -27,7 -39,9 -57,9 l -15,1 12,12 c 21,23 54,54 109,103 75,67 110,102 142,140 17,20 38,49 48,65 6,11 9,17 9,20 0,3 -4,6 -6,8 h -13 c -19,0 -16,0 -24,-12 -19,-31 -32,-47 -44,-53 -5,-2 -7,-2 -14,-2 -18,0 -27,5 -53,30 -21,21 -36,37 -68,37 -6,0 -11,-1 -17,-2 -48,-8 -92,-49 -109,-101 -2,-6 -3,-11 -3,-14 0,-7 5,-8 21,-8 16,0 15,1 19,9 6,20 35,34 74,34 15,0 31,-3 63,-11 30,-8 47,-11 53,-11 7,0 7,-1 -7,-16 C 319,300 289,272 236,224 160,155 126,122 93,84 74,61 53,33 41,11 37,5 35,1 35,-2 c 0,-4 4,-7 6,-9 z"
       style="fill:#333333;fill-opacity:1;fill-rule:nonzero;stroke:#333333;stroke-width:1;stroke-linecap:butt;stroke-linejoin:miter;stroke-miterlimit:10;stroke-dasharray:none;stroke-opacity:0.021"
       transform="matrix(0.00934274,0,0,-0.00934274,750.09754,379.3153)" />
    <path
       id="path77"
       d="m 60,749 c -3,-2 -5,-7 -5,-11 1,-1 6,-7 11,-13 C 172,615 221,462 221,250 221,38 172,-115 66,-225 c -5,-6 -10,-12 -11,-13 0,-11 4,-12 19,-12 h 12 l 28,24 c 69,63 121,151 151,254 20,68 29,131 29,222 0,211 -66,372 -180,476 L 86,750 H 74 c -8,0 -12,-1 -14,-1 z"
       style="fill:#333333;fill-opacity:1;fill-rule:nonzero;stroke:#333333;stroke-width:1;stroke-linecap:butt;stroke-linejoin:miter;stroke-miterlimit:10;stroke-dasharray:none;stroke-opacity:0.021"
       transform="matrix(0.00934274,0,0,-0.00934274,754.46998,379.3153)" />
    <path
       id="path78"
       d="m 118,-250 h 137 v 40 h -97 v 920 h 97 v 40 H 118 Z"
       style="fill:#333333;fill-opacity:1;fill-rule:nonzero;stroke:#333333;stroke-width:1;stroke-linecap:butt;stroke-linejoin:miter;stroke-miterlimit:10;stroke-dasharray:none;stroke-opacity:0.0297"
       transform="matrix(0.01321462,0,0,-0.01321462,758.77043,376.98026)" />
    <path
       id="path79"
       d="M 42,46 H 26 V 0 h 8 c 13,3 88,3 111,3 23,0 98,-1 110,-3 h 8 v 46 h -16 c -20,0 -42,2 -49,3 -5,2 -10,7 -12,11 -1,2 -1,99 -1,319 v 315 h -3 c -2,0 -37,-3 -78,-6 -41,-2 -75,-5 -76,-5 -2,0 -2,-2 -2,-23 v -23 h 18 c 44,-2 55,-8 59,-34 0,-5 1,-140 1,-274 C 104,195 103,62 103,60 96,47 80,46 56,46 Z"
       style="fill:#333333;fill-opacity:1;fill-rule:nonzero;stroke:#333333;stroke-width:1;stroke-linecap:butt;stroke-linejoin:miter;stroke-miterlimit:10;stroke-dasharray:none;stroke-opacity:0.0297"
       transform="matrix(0.01321462,0,0,-0.01321462,762.4441,376.98026)" />
    <path
       id="path80"
       d="M 28,214 C 28,110 97,21 197,-4 c 19,-5 30,-6 53,-6 22,0 33,1 52,6 84,21 148,88 164,172 3,16 5,31 5,47 0,63 -28,127 -70,169 -41,41 -96,64 -151,64 -8,0 -17,-1 -25,-2 C 120,433 28,338 28,214 m 240,196 c 55,-12 87,-42 99,-97 5,-23 5,-33 5,-88 V 193 C 372,98 342,30 250,30 c -53,0 -86,25 -105,61 -17,36 -19,72 -19,135 0,28 1,55 2,64 8,57 27,89 67,109 18,8 38,12 57,12 5,0 11,0 16,-1 z"
       style="fill:#333333;fill-opacity:1;fill-rule:nonzero;stroke:#333333;stroke-width:1;stroke-linecap:butt;stroke-linejoin:miter;stroke-miterlimit:10;stroke-dasharray:none;stroke-opacity:0.0297"
       transform="matrix(0.01321462,0,0,-0.01321462,766.11779,376.98026)" />
    <path
       id="path81"
       d="m 329,409 -11,7 c -29,17 -61,26 -95,26 C 159,442 106,414 79,373 63,350 52,328 52,292 52,245 72,217 96,193 79,170 67,146 67,108 67,70 83,41 103,24 L 92,18 C 79,12 71,6 60,-5 41,-23 29,-43 29,-75 c 0,-8 0,-15 2,-21 9,-32 34,-59 76,-79 41,-21 81,-31 143,-31 62,0 102,10 142,31 42,20 67,47 76,79 2,6 2,15 2,24 0,44 -16,75 -39,98 -21,19 -57,35 -96,41 -25,5 -35,5 -108,6 -81,1 -77,0 -89,8 -15,10 -26,29 -26,52 0,15 5,27 11,38 29,-16 62,-28 99,-28 64,0 116,29 143,69 16,23 27,44 27,80 0,40 -13,64 -33,89 -2,3 -4,5 -4,5 0,1 3,4 8,7 13,10 28,17 44,20 5,1 9,2 9,2 0,-1 -1,-2 -1,-4 -3,-4 -4,-14 -3,-21 3,-18 15,-30 37,-30 21,0 36,15 36,36 0,34 -24,57 -56,57 -43,0 -77,-21 -100,-44 M 142,292 c 0,20 1,40 3,51 7,37 37,61 76,61 43,0 71,-24 78,-61 2,-11 3,-31 3,-51 0,-20 -1,-39 -3,-50 -6,-35 -34,-60 -77,-60 -65,0 -80,44 -80,110 M 375,-23 c 17,-11 28,-27 28,-52 0,-6 0,-13 -2,-18 -10,-31 -52,-60 -101,-70 -18,-4 -27,-4 -50,-4 -24,0 -33,0 -51,4 -49,10 -91,39 -101,69 -2,6 -3,13 -3,20 0,28 16,56 43,68 13,6 14,6 80,6 h 29 c 57,0 96,-1 128,-23 z"
       style="fill:#333333;fill-opacity:1;fill-rule:nonzero;stroke:#333333;stroke-width:1;stroke-linecap:butt;stroke-linejoin:miter;stroke-miterlimit:10;stroke-dasharray:none;stroke-opacity:0.0297"
       transform="matrix(0.01321462,0,0,-0.01321462,772.72506,376.98026)" />
    <path
       id="path82"
       d="m 333,-241 c 0,4 -1,5 -11,15 -105,111 -155,263 -155,476 0,213 50,365 155,476 10,10 11,11 11,15 0,2 -1,4 -3,6 -3,3 -3,3 -15,3 H 302 L 274,726 C 205,663 153,575 123,473 103,403 94,342 94,250 94,39 160,-122 274,-226 l 28,-24 h 13 c 13,0 18,1 18,9 z"
       style="fill:#333333;fill-opacity:1;fill-rule:nonzero;stroke:#333333;stroke-width:1;stroke-linecap:butt;stroke-linejoin:miter;stroke-miterlimit:10;stroke-dasharray:none;stroke-opacity:0.0297"
       transform="matrix(0.01321462,0,0,-0.01321462,779.33238,376.98026)" />
    <path
       id="path83"
       d="m 416,0 h 11 v 46 h -26 -33 c -30,0 -51,1 -65,15 l -1,300 v 299 c -6,5 -4,6 -17,6 -9,0 -10,0 -12,-3 -5,-5 -22,-18 -31,-23 -37,-23 -84,-36 -140,-38 H 83 v -46 h 19 c 38,1 74,8 103,19 4,2 7,3 8,3 V 61 C 206,56 201,50 189,49 178,47 143,46 114,46 H 88 V 0 h 12 c 17,3 125,3 157,3 32,0 142,0 159,-3 z"
       style="fill:#333333;fill-opacity:1;fill-rule:nonzero;stroke:#333333;stroke-width:1;stroke-linecap:butt;stroke-linejoin:miter;stroke-miterlimit:10;stroke-dasharray:none;stroke-opacity:0.0297"
       transform="matrix(0.01321462,0,0,-0.01321462,784.47286,376.98026)" />
    <path
       id="path84"
       d="m 84,250 c 0,-11 6,-16 14,-20 h 581 c 8,4 15,9 15,20 0,11 -7,16 -15,20 H 98 c -8,-4 -14,-9 -14,-20 z"
       style="fill:#333333;fill-opacity:1;fill-rule:nonzero;stroke:#333333;stroke-width:1;stroke-linecap:butt;stroke-linejoin:miter;stroke-miterlimit:10;stroke-dasharray:none;stroke-opacity:0.0297"
       transform="matrix(0.01321462,0,0,-0.01321462,794.01645,376.98026)" />
    <path
       id="path85"
       d="M 287,628 C 287,605 149,65 146,61 142,54 137,51 127,49 116,48 89,46 67,46 41,46 41,46 36,25 34,17 33,13 33,11 33,9 34,8 35,6 37,1 28,0 125,0 h 111 l 194,1 14,2 c 85,14 163,56 230,125 57,59 98,129 117,205 9,36 12,60 12,98 0,132 -70,221 -173,245 -27,7 -12,6 -227,7 -165,0 -197,0 -199,-1 -4,-2 -5,-7 -9,-21 -3,-13 -3,-14 -2,-17 3,-6 4,-7 37,-7 30,-1 57,0 57,-9 M 703,469 C 703,432 697,394 683,339 657,234 629,176 581,128 538,85 484,58 421,48 c -10,-1 -19,-1 -91,-1 -86,0 -88,0 -88,5 0,4 142,570 144,575 3,5 8,8 18,9 5,0 40,1 75,1 35,0 70,-1 76,-1 91,-9 148,-66 148,-167 z"
       style="fill:#333333;fill-opacity:1;fill-rule:nonzero;stroke:#333333;stroke-width:1;stroke-linecap:butt;stroke-linejoin:miter;stroke-miterlimit:10;stroke-dasharray:none;stroke-opacity:0.0297"
       transform="matrix(0.01321462,0,0,-0.01321462,807.23373,376.98026)" />
    <path
       id="path86"
       d="m 333,-241 c 0,4 -1,5 -11,15 -105,111 -155,263 -155,476 0,213 50,365 155,476 10,10 11,11 11,15 0,2 -1,4 -3,6 -3,3 -3,3 -15,3 H 302 L 274,726 C 205,663 153,575 123,473 103,403 94,342 94,250 94,39 160,-122 274,-226 l 28,-24 h 13 c 13,0 18,1 18,9 z"
       style="fill:#333333;fill-opacity:1;fill-rule:nonzero;stroke:#333333;stroke-width:1;stroke-linecap:butt;stroke-linejoin:miter;stroke-miterlimit:10;stroke-dasharray:none;stroke-opacity:0.0297"
       transform="matrix(0.01321462,0,0,-0.01321462,818.17542,376.98026)" />
    <path
       id="path87"
       d="m 322,-22 c 79,0 156,28 200,69 4,3 8,6 8,5 7,-13 33,-43 45,-50 2,-2 4,-3 6,-3 9,0 13,29 33,109 15,56 27,104 28,105 2,6 6,9 11,11 7,1 25,3 41,3 24,0 20,4 25,22 1,6 2,12 2,15 0,6 -3,8 -14,8 -33,0 -65,-1 -113,-1 -48,0 -100,0 -140,2 h -17 c -6,-6 -6,-5 -10,-19 -5,-22 -3,-20 4,-27 h 37 c 62,-1 73,-3 73,-13 0,-7 -24,-99 -27,-108 C 491,57 424,24 353,24 h -6 c -84,5 -141,40 -171,98 -13,27 -20,55 -20,99 0,15 1,30 2,39 23,177 101,316 237,374 37,15 79,25 115,25 91,0 141,-68 141,-178 0,-16 -1,-34 -2,-44 -4,-20 -2,-18 4,-24 h 16 c 20,0 21,1 23,8 1,3 17,66 36,140 27,112 32,132 32,137 0,5 -7,7 -14,7 h -6 l -15,-15 c -8,-8 -26,-27 -41,-41 -20,-22 -25,-26 -27,-26 -2,0 -18,24 -24,30 -27,26 -60,43 -101,50 -6,1 -27,1 -42,1 -43,0 -75,-8 -108,-18 C 273,650 183,575 125,485 76,411 50,328 50,252 50,82 168,-22 322,-22 Z"
       style="fill:#333333;fill-opacity:1;fill-rule:nonzero;stroke:#333333;stroke-width:1;stroke-linecap:butt;stroke-linejoin:miter;stroke-miterlimit:10;stroke-dasharray:none;stroke-opacity:0.0297"
       transform="matrix(0.01321462,0,0,-0.01321462,823.31597,376.98026)" />
    <path
       id="path88"
       d="m 333,-241 c 0,4 -1,5 -11,15 -105,111 -155,263 -155,476 0,213 50,365 155,476 10,10 11,11 11,15 0,2 -1,4 -3,6 -3,3 -3,3 -15,3 H 302 L 274,726 C 205,663 153,575 123,473 103,403 94,342 94,250 94,39 160,-122 274,-226 l 28,-24 h 13 c 13,0 18,1 18,9 z"
       style="fill:#333333;fill-opacity:1;fill-rule:nonzero;stroke:#333333;stroke-width:1;stroke-linecap:butt;stroke-linejoin:miter;stroke-miterlimit:10;stroke-dasharray:none;stroke-opacity:0.0297"
       transform="matrix(0.01321462,0,0,-0.01321462,833.70269,376.98026)" />
    <path
       id="path89"
       d="m 41,-11 h 13 c 15,0 17,0 22,8 15,26 43,60 79,60 6,0 17,-2 22,-5 8,-4 14,-9 31,-26 20,-19 26,-24 39,-30 10,-5 19,-7 31,-7 5,0 11,0 17,1 73,15 128,77 147,144 1,4 2,7 2,9 0,8 -7,10 -20,10 -16,0 -17,-1 -22,-13 -12,-39 -58,-69 -112,-69 -16,0 -35,4 -70,13 -27,7 -39,9 -57,9 l -15,1 12,12 c 21,23 54,54 109,103 75,67 110,102 142,140 17,20 38,49 48,65 6,11 9,17 9,20 0,3 -4,6 -6,8 h -13 c -19,0 -16,0 -24,-12 -19,-31 -32,-47 -44,-53 -5,-2 -7,-2 -14,-2 -18,0 -27,5 -53,30 -21,21 -36,37 -68,37 -6,0 -11,-1 -17,-2 -48,-8 -92,-49 -109,-101 -2,-6 -3,-11 -3,-14 0,-7 5,-8 21,-8 16,0 15,1 19,9 6,20 35,34 74,34 15,0 31,-3 63,-11 30,-8 47,-11 53,-11 7,0 7,-1 -7,-16 C 319,300 289,272 236,224 160,155 126,122 93,84 74,61 53,33 41,11 37,5 35,1 35,-2 c 0,-4 4,-7 6,-9 z"
       style="fill:#333333;fill-opacity:1;fill-rule:nonzero;stroke:#333333;stroke-width:1;stroke-linecap:butt;stroke-linejoin:miter;stroke-miterlimit:10;stroke-dasharray:none;stroke-opacity:0.0297"
       transform="matrix(0.01321462,0,0,-0.01321462,838.84317,376.98026)" />
    <path
       id="path90"
       d="m 60,749 c -3,-2 -5,-7 -5,-11 1,-1 6,-7 11,-13 C 172,615 221,462 221,250 221,38 172,-115 66,-225 c -5,-6 -10,-12 -11,-13 0,-11 4,-12 19,-12 h 12 l 28,24 c 69,63 121,151 151,254 20,68 29,131 29,222 0,211 -66,372 -180,476 L 86,750 H 74 c -8,0 -12,-1 -14,-1 z"
       style="fill:#333333;fill-opacity:1;fill-rule:nonzero;stroke:#333333;stroke-width:1;stroke-linecap:butt;stroke-linejoin:miter;stroke-miterlimit:10;stroke-dasharray:none;stroke-opacity:0.0297"
       transform="matrix(0.01321462,0,0,-0.01321462,845.02755,376.98026)" />
    <path
       id="path91"
       d="m 60,749 c -3,-2 -5,-7 -5,-11 1,-1 6,-7 11,-13 C 172,615 221,462 221,250 221,38 172,-115 66,-225 c -5,-6 -10,-12 -11,-13 0,-11 4,-12 19,-12 h 12 l 28,24 c 69,63 121,151 151,254 20,68 29,131 29,222 0,211 -66,372 -180,476 L 86,750 H 74 c -8,0 -12,-1 -14,-1 z"
       style="fill:#333333;fill-opacity:1;fill-rule:nonzero;stroke:#333333;stroke-width:1;stroke-linecap:butt;stroke-linejoin:miter;stroke-miterlimit:10;stroke-dasharray:none;stroke-opacity:0.0297"
       transform="matrix(0.01321462,0,0,-0.01321462,850.16809,376.98026)" />
    <path
       id="path92"
       d="m 60,749 c -3,-2 -5,-7 -5,-11 1,-1 6,-7 11,-13 C 172,615 221,462 221,250 221,38 172,-115 66,-225 c -5,-6 -10,-12 -11,-13 0,-11 4,-12 19,-12 h 12 l 28,24 c 69,63 121,151 151,254 20,68 29,131 29,222 0,211 -66,372 -180,476 L 86,750 H 74 c -8,0 -12,-1 -14,-1 z"
       style="fill:#333333;fill-opacity:1;fill-rule:nonzero;stroke:#333333;stroke-width:1;stroke-linecap:butt;stroke-linejoin:miter;stroke-miterlimit:10;stroke-dasharray:none;stroke-opacity:0.0297"
       transform="matrix(0.01321462,0,0,-0.01321462,855.30857,376.98026)" />
    <path
       id="path93"
       d="m 22,710 h 97 V -210 H 22 v -40 H 159 V 750 H 22 Z"
       style="fill:#333333;fill-opacity:1;fill-rule:nonzero;stroke:#333333;stroke-width:1;stroke-linecap:butt;stroke-linejoin:miter;stroke-miterlimit:10;stroke-dasharray:none;stroke-opacity:0.0297"
       transform="matrix(0.01321462,0,0,-0.01321462,860.44902,376.98026)" />
    <path
       id="path94"
       d="m 675,655.5 h 48 V 645 l 12,15 -12,15 v -10.5 h -48 z"
       style="fill:#f8cecc;fill-opacity:1;fill-rule:nonzero;stroke:#b85450;stroke-width:1;stroke-linecap:butt;stroke-linejoin:miter;stroke-miterlimit:10;stroke-dasharray:none;stroke-opacity:1"
       transform="matrix(0,0.938903,-0.938903,0,1292.5436,-325.37167)" />
    <path
       id="path95"
       d="m 835,655.5 h 48 V 645 l 12,15 -12,15 v -10.5 h -48 z"
       style="fill:#f8cecc;fill-opacity:1;fill-rule:nonzero;stroke:#b85450;stroke-width:1;stroke-linecap:butt;stroke-linejoin:miter;stroke-miterlimit:10;stroke-dasharray:none;stroke-opacity:1"
       transform="matrix(0,0.938903,-0.938903,0,1442.7681,-475.59615)" />
    <g
       id="g95" />
    <text
       id="text95"
       xml:space="preserve"
       transform="matrix(0.938903,0,0,0.938903,638.89104,297.59048)"><tspan
         id="tspan95"
         style="font-variant:normal;font-weight:700;font-size:12px;font-family:Arial;writing-mode:lr-tb;fill:#000000;fill-opacity:1;fill-rule:nonzero;stroke:none"
         x="0"
         y="0">Real Sample</tspan></text>
    <g
       id="g96" />
    <text
       id="text96"
       xml:space="preserve"
       transform="matrix(0.938903,0,0,0.938903,788.17662,297.59048)"><tspan
         id="tspan96"
         style="font-variant:normal;font-weight:700;font-size:12px;font-family:Arial;writing-mode:lr-tb;fill:#000000;fill-opacity:1;fill-rule:nonzero;stroke:none"
         x="0"
         y="0">Fake Sample</tspan></text>
    <g
       id="g97" />
    <text
       id="text97"
       xml:space="preserve"
       transform="matrix(0.938903,0,0,0.938903,244.14101,519.17159)"><tspan
         id="tspan97"
         style="font-variant:normal;font-weight:normal;font-size:12px;font-family:Arial;writing-mode:lr-tb;fill:#000000;fill-opacity:1;fill-rule:nonzero;stroke:none"
         x="0"
         dx="0 -0.44531247"
         y="0">Train D to</tspan></text>
    <g
       id="g98" />
    <text
       id="text98"
       xml:space="preserve"
       transform="matrix(0.938903,0,0,0.938903,244.87453,532.31623)"><tspan
         id="tspan98"
         style="font-variant:normal;font-weight:normal;font-size:12px;font-family:Arial;writing-mode:lr-tb;fill:#000000;fill-opacity:1;fill-rule:nonzero;stroke:none"
         x="0"
         y="0">maximize</tspan></text>
    <path
       id="path98"
       d="m 59,637 h 17 11 c 23,0 46,-1 51,-11 2,-4 8,-59 39,-321 23,-200 38,-318 39,-320 0,-2 2,-4 4,-5 3,-2 5,-2 21,-2 l 18,1 5,3 c 6,3 374,600 374,600 2,2 5,6 7,10 3,3 8,9 12,13 22,20 48,30 86,32 13,0 14,0 17,3 2,3 9,26 9,32 0,5 -4,8 -7,11 h -7 c -18,-2 -51,-2 -87,-2 -36,0 -76,2 -110,2 -14,0 -15,-4 -19,-22 -2,-6 -3,-11 -3,-14 0,-8 5,-10 19,-10 20,-2 45,-10 45,-28 0,-4 -2,-9 -5,-15 -4,-9 -293,-477 -294,-476 -1,1 -59,500 -59,502 2,6 14,12 32,15 5,0 19,1 30,2 h 21 c 5,5 5,6 9,19 5,20 3,20 -4,27 h -10 c -21,-3 -104,-3 -139,-3 -39,0 -77,1 -105,3 H 65 c -4,-4 -13,-24 -13,-35 0,-5 4,-8 7,-11 z"
       style="fill:#000000;fill-opacity:1;fill-rule:nonzero;stroke:#000000;stroke-width:1;stroke-linecap:butt;stroke-linejoin:miter;stroke-miterlimit:10;stroke-dasharray:none;stroke-opacity:0.0297"
       transform="matrix(0.01320332,0,0,-0.01320332,241.4627,545.97435)" />
    <path
       id="path99"
       d="m 333,-241 c 0,4 -1,5 -11,15 -105,111 -155,263 -155,476 0,213 50,365 155,476 10,10 11,11 11,15 0,2 -1,4 -3,6 -3,3 -3,3 -15,3 H 302 L 274,726 C 205,663 153,575 123,473 103,403 94,342 94,250 94,39 160,-122 274,-226 l 28,-24 h 13 c 13,0 18,1 18,9 z"
       style="fill:#000000;fill-opacity:1;fill-rule:nonzero;stroke:#000000;stroke-width:1;stroke-linecap:butt;stroke-linejoin:miter;stroke-miterlimit:10;stroke-dasharray:none;stroke-opacity:0.0297"
       transform="matrix(0.01320332,0,0,-0.01320332,251.61608,545.97435)" />
    <path
       id="path100"
       d="M 287,628 C 287,605 149,65 146,61 142,54 137,51 127,49 116,48 89,46 67,46 41,46 41,46 36,25 34,17 33,13 33,11 33,9 34,8 35,6 37,1 28,0 125,0 h 111 l 194,1 14,2 c 85,14 163,56 230,125 57,59 98,129 117,205 9,36 12,60 12,98 0,132 -70,221 -173,245 -27,7 -12,6 -227,7 -165,0 -197,0 -199,-1 -4,-2 -5,-7 -9,-21 -3,-13 -3,-14 -2,-17 3,-6 4,-7 37,-7 30,-1 57,0 57,-9 M 703,469 C 703,432 697,394 683,339 657,234 629,176 581,128 538,85 484,58 421,48 c -10,-1 -19,-1 -91,-1 -86,0 -88,0 -88,5 0,4 142,570 144,575 3,5 8,8 18,9 5,0 40,1 75,1 35,0 70,-1 76,-1 91,-9 148,-66 148,-167 z"
       style="fill:#000000;fill-opacity:1;fill-rule:nonzero;stroke:#000000;stroke-width:1;stroke-linecap:butt;stroke-linejoin:miter;stroke-miterlimit:10;stroke-dasharray:none;stroke-opacity:0.0297"
       transform="matrix(0.01320332,0,0,-0.01320332,256.75218,545.97435)" />
    <path
       id="path101"
       d="m 78,60 c 0,-34 27,-60 62,-60 9,0 18,2 27,6 3,2 5,3 6,3 V -3 c -4,-59 -26,-111 -68,-154 -8,-8 -10,-12 -10,-15 0,-5 17,-22 22,-22 4,0 9,5 18,14 40,43 64,94 73,153 1,8 2,22 2,35 0,58 -19,113 -73,113 -35,0 -59,-28 -59,-61 z"
       style="fill:#000000;fill-opacity:1;fill-rule:nonzero;stroke:#000000;stroke-width:1;stroke-linecap:butt;stroke-linejoin:miter;stroke-miterlimit:10;stroke-dasharray:none;stroke-opacity:0.0297"
       transform="matrix(0.01320332,0,0,-0.01320332,267.68452,545.97435)" />
    <path
       id="path102"
       d="m 322,-22 c 79,0 156,28 200,69 4,3 8,6 8,5 7,-13 33,-43 45,-50 2,-2 4,-3 6,-3 9,0 13,29 33,109 15,56 27,104 28,105 2,6 6,9 11,11 7,1 25,3 41,3 24,0 20,4 25,22 1,6 2,12 2,15 0,6 -3,8 -14,8 -33,0 -65,-1 -113,-1 -48,0 -100,0 -140,2 h -17 c -6,-6 -6,-5 -10,-19 -5,-22 -3,-20 4,-27 h 37 c 62,-1 73,-3 73,-13 0,-7 -24,-99 -27,-108 C 491,57 424,24 353,24 h -6 c -84,5 -141,40 -171,98 -13,27 -20,55 -20,99 0,15 1,30 2,39 23,177 101,316 237,374 37,15 79,25 115,25 91,0 141,-68 141,-178 0,-16 -1,-34 -2,-44 -4,-20 -2,-18 4,-24 h 16 c 20,0 21,1 23,8 1,3 17,66 36,140 27,112 32,132 32,137 0,5 -7,7 -14,7 h -6 l -15,-15 c -8,-8 -26,-27 -41,-41 -20,-22 -25,-26 -27,-26 -2,0 -18,24 -24,30 -27,26 -60,43 -101,50 -6,1 -27,1 -42,1 -43,0 -75,-8 -108,-18 C 273,650 183,575 125,485 76,411 50,328 50,252 50,82 168,-22 322,-22 Z"
       style="fill:#000000;fill-opacity:1;fill-rule:nonzero;stroke:#000000;stroke-width:1;stroke-linecap:butt;stroke-linejoin:miter;stroke-miterlimit:10;stroke-dasharray:none;stroke-opacity:0.0297"
       transform="matrix(0.01320332,0,0,-0.01320332,273.55604,545.97435)" />
    <path
       id="path103"
       d="m 60,749 c -3,-2 -5,-7 -5,-11 1,-1 6,-7 11,-13 C 172,615 221,462 221,250 221,38 172,-115 66,-225 c -5,-6 -10,-12 -11,-13 0,-11 4,-12 19,-12 h 12 l 28,24 c 69,63 121,151 151,254 20,68 29,131 29,222 0,211 -66,372 -180,476 L 86,750 H 74 c -8,0 -12,-1 -14,-1 z"
       style="fill:#000000;fill-opacity:1;fill-rule:nonzero;stroke:#000000;stroke-width:1;stroke-linecap:butt;stroke-linejoin:miter;stroke-miterlimit:10;stroke-dasharray:none;stroke-opacity:0.0297"
       transform="matrix(0.01320332,0,0,-0.01320332,283.93385,545.97435)" />
    <g
       id="g103">
      <g
         id="g104" />
      <g
         id="g105" />
    </g>
    <text
       id="text105"
       xml:space="preserve"
       transform="matrix(0.938903,0,0,0.938903,289.35506,546.39977)"><tspan
         id="tspan105"
         style="font-variant:normal;font-weight:normal;font-size:12px;font-family:Arial;writing-mode:lr-tb;fill:#000000;fill-opacity:1;fill-rule:nonzero;stroke:none"
         x="0"
         y="0">  </tspan></text>
    <g
       id="g106" />
    <text
       id="text106"
       xml:space="preserve"
       transform="matrix(0.938903,0,0,0.938903,503.80637,113.56549)"><tspan
         id="tspan106"
         style="font-variant:normal;font-weight:700;font-size:30px;font-family:Arial;writing-mode:lr-tb;fill:#000000;fill-opacity:1;fill-rule:nonzero;stroke:none"
         x="0"
         dx="0 0 0 0 0 0 0 0 0 0 0 -1.1132801"
         y="0">Generative Adversarial Nets</tspan></text>
    <g
       id="g107">
      <g
         id="g108" />
    </g>
    <text
       id="text108"
       xml:space="preserve"
       transform="matrix(0.938903,0,0,0.938903,646.57831,147.366)"><tspan
         id="tspan108"
         style="font-variant:normal;font-weight:700;font-size:30px;font-family:Arial;writing-mode:lr-tb;fill:#000000;fill-opacity:1;fill-rule:nonzero;stroke:none"
         x="0"
         y="0">(GAN) </tspan></text>
    <g
       id="g109" />
    <text
       id="text109"
       xml:space="preserve"
       transform="matrix(0.938903,0,0,0.938903,148.49027,260.03436)"><tspan
         id="tspan109"
         style="font-variant:normal;font-weight:normal;font-size:12px;font-family:Arial;writing-mode:lr-tb;fill:#000000;fill-opacity:1;fill-rule:nonzero;stroke:none"
         x="0"
         y="0">z</tspan></text>
    <g
       id="g110" />
    <text
       id="text110"
       xml:space="preserve"
       transform="matrix(0.938903,0,0,0.938903,414.19981,261.91217)"><tspan
         id="tspan110"
         style="font-variant:normal;font-weight:normal;font-size:12px;font-family:Arial;writing-mode:lr-tb;fill:#000000;fill-opacity:1;fill-rule:nonzero;stroke:none"
         x="0"
         y="0">x</tspan></text>
    <g
       id="g111" />
    <text
       id="text111"
       xml:space="preserve"
       transform="matrix(0.938903,0,0,0.938903,145.04273,363.31369)"><tspan
         id="tspan111"
         style="font-variant:normal;font-weight:normal;font-size:12px;font-family:Arial;writing-mode:lr-tb;fill:#000000;fill-opacity:1;fill-rule:nonzero;stroke:none"
         x="0"
         y="0">G(z)</tspan></text>
    <g
       id="g112">
      <g
         id="g113" />
      <g
         id="g114" />
    </g>
    <text
       id="text114"
       xml:space="preserve"
       transform="matrix(0.938903,0,0,0.938903,364.12988,364.25259)"><tspan
         id="tspan114"
         style="font-variant:normal;font-weight:normal;font-size:12px;font-family:Arial;writing-mode:lr-tb;fill:#000000;fill-opacity:1;fill-rule:nonzero;stroke:none"
         x="0"
         y="0">D(G(z))   D(x)</tspan></text>
  </g>
</svg>
