<?xml version="1.0" encoding="UTF-8" standalone="no"?>
<!-- Created with Inkscape (http://www.inkscape.org/) -->

<svg
   version="1.1"
   id="svg1"
   width="3190.72"
   height="1422.7198"
   viewBox="0 0 3190.72 1422.7198"
   sodipodi:docname="Unet.pdf"
   xmlns:inkscape="http://www.inkscape.org/namespaces/inkscape"
   xmlns:sodipodi="http://sodipodi.sourceforge.net/DTD/sodipodi-0.dtd"
   xmlns="http://www.w3.org/2000/svg"
   xmlns:svg="http://www.w3.org/2000/svg">
  <defs
     id="defs1">
    <clipPath
       clipPathUnits="userSpaceOnUse"
       id="clipPath4">
      <path
         d="M -482.07456,-122.05871 H 2842.2933 V 1363.3197 H -482.07456 Z"
         clip-rule="evenodd"
         id="path4" />
    </clipPath>
    <clipPath
       clipPathUnits="userSpaceOnUse"
       id="clipPath5">
      <path
         d="M 0,0 H 3190.078 V 1422.7187 H 0 Z"
         clip-rule="evenodd"
         id="path5" />
    </clipPath>
    <linearGradient
       x1="0"
       y1="0"
       x2="0"
       y2="1"
       gradientUnits="userSpaceOnUse"
       gradientTransform="matrix(1439.9999,0,0,59.999997,430.00006,179.99997)"
       spreadMethod="pad"
       id="linearGradient60">
      <stop
         style="stop-opacity:1;stop-color:#f5f5f5"
         offset="0"
         id="stop59" />
      <stop
         style="stop-opacity:1;stop-color:#b3b3b3"
         offset="1"
         id="stop60" />
    </linearGradient>
    <linearGradient
       x1="0"
       y1="0"
       x2="0"
       y2="1"
       gradientUnits="userSpaceOnUse"
       gradientTransform="matrix(1209.9999,0,0,59.999997,480.00001,460.00001)"
       spreadMethod="pad"
       id="linearGradient62">
      <stop
         style="stop-opacity:1;stop-color:#f5f5f5"
         offset="0"
         id="stop61" />
      <stop
         style="stop-opacity:1;stop-color:#b3b3b3"
         offset="1"
         id="stop62" />
    </linearGradient>
    <linearGradient
       x1="0"
       y1="0"
       x2="0"
       y2="1"
       gradientUnits="userSpaceOnUse"
       gradientTransform="matrix(789.99998,0,0,59.999997,680.00005,639.99998)"
       spreadMethod="pad"
       id="linearGradient64">
      <stop
         style="stop-opacity:1;stop-color:#f5f5f5"
         offset="0"
         id="stop63" />
      <stop
         style="stop-opacity:1;stop-color:#b3b3b3"
         offset="1"
         id="stop64" />
    </linearGradient>
    <linearGradient
       x1="0"
       y1="0"
       x2="0"
       y2="1"
       gradientUnits="userSpaceOnUse"
       gradientTransform="matrix(479.99999,0,0,59.999997,830.00005,819.99995)"
       spreadMethod="pad"
       id="linearGradient66">
      <stop
         style="stop-opacity:1;stop-color:#f5f5f5"
         offset="0"
         id="stop65" />
      <stop
         style="stop-opacity:1;stop-color:#b3b3b3"
         offset="1"
         id="stop66" />
    </linearGradient>
  </defs>
  <sodipodi:namedview
     id="namedview1"
     pagecolor="#ffffff"
     bordercolor="#000000"
     borderopacity="0.25"
     inkscape:showpageshadow="2"
     inkscape:pageopacity="0.0"
     inkscape:pagecheckerboard="0"
     inkscape:deskcolor="#d1d1d1">
    <inkscape:page
       x="0"
       y="0"
       inkscape:label="1"
       id="page1"
       width="3190.72"
       height="1422.7198"
       margin="0"
       bleed="0" />
  </sodipodi:namedview>
  <g
     id="g1"
     inkscape:groupmode="layer"
     inkscape:label="1">
    <g
       id="g2"
       clip-path="url(#clipPath5)">
      <path
         id="path2"
         d="M 0,0 H 3190 V 1423 H 0 Z"
         style="fill:#ffffff;fill-opacity:1;fill-rule:nonzero;stroke:none" />
      <path
         id="path3"
         d="m -258,-120 h 2876 c 3.6331,1e-5 7.2639,0.0891 10.8928,0.26742 3.6287,0.17827 7.251,0.44546 10.867,0.80158 3.6154,0.35612 7.2202,0.80073 10.8139,1.33382 3.594,0.53311 7.1729,1.15406 10.7361,1.86286 3.5632,0.7088 7.1072,1.5046 10.6314,2.3874 3.5244,0.88279 7.0249,1.85151 10.5017,2.90618 3.4768,1.05466 6.9258,2.19398 10.3464,3.41797 3.4209,1.22399 6.8096,2.53116 10.1663,3.92153 3.3567,1.39036 6.677,2.86223 9.9614,4.415632 3.2844,1.553383 6.5286,3.186417 9.7329,4.899094 3.2041,1.712677 6.3643,3.502937 9.4805,5.370773 3.1162,1.867836 6.1848,3.811005 9.2058,5.829498 3.0207,2.018494 5.9905,4.109886 8.9087,6.274178 2.9182,2.164291 5.7817,4.398872 8.5903,6.70375 2.8084,2.304879 5.5586,4.677269 8.2507,7.117169 2.6922,2.439903 5.3225,4.944385 7.8916,7.513443 2.5691,2.569057 5.0735,5.199592 7.5135,7.891613 2.4397,2.69202 4.8122,5.442284 7.1172,8.250782 2.3046,2.808498 4.539,5.671856 6.7033,8.590063 2.1643,2.918211 4.2559,5.887762 6.2744,8.908653 2.0186,3.020893 3.9617,6.089487 5.8296,9.205781 1.8679,3.116298 3.6582,6.276542 5.3709,9.4807346 1.7126,3.20419313 3.3454,6.4484747 4.8989,9.7328448 1.5535,3.2843706 3.0254,6.6048726 4.4158,9.9615086 1.3904,3.356634 2.6975,6.74536 3.9218,10.166176 1.2239,3.420815 2.3631,6.869598 3.418,10.346352 1.0545,3.476749 2.0232,6.977279 2.906,10.50159 0.8826,3.524315 1.6785,7.068165 2.3872,10.63155 0.7088,3.563389 1.3299,7.142018 1.8628,10.735882 0.5332,3.593872 0.9778,7.198662 1.334,10.814362 0.356,3.615699 0.6231,7.237968 0.8015,10.86679 C 2839.9109,94.735794 2840,98.366798 2840,102 v 1036 c 0,3.6332 -0.089,7.2642 -0.2676,10.8929 -0.1784,3.6288 -0.4455,7.2511 -0.8015,10.8669 -0.3562,3.6156 -0.8008,7.2204 -1.3337,10.8143 -0.5332,3.5939 -1.1543,7.1725 -1.8631,10.7358 -0.7087,3.5634 -1.5046,7.1073 -2.3872,10.6316 -0.8828,3.5243 -1.8515,7.0249 -2.906,10.5016 -1.0549,3.4767 -2.1941,6.9256 -3.418,10.3463 -1.2243,3.4209 -2.5314,6.8096 -3.9218,10.1662 -1.3904,3.3565 -2.8623,6.6771 -4.4158,9.9615 -1.5535,3.2843 -3.1863,6.5287 -4.8989,9.7329 -1.7127,3.2042 -3.503,6.3644 -5.3709,9.4806 -1.8679,3.1164 -3.8113,6.185 -5.8298,9.2058 -2.0186,3.0209 -4.1099,5.9905 -6.2742,8.9087 -2.1643,2.9182 -4.3989,5.7816 -6.7036,8.5902 -2.3049,2.8085 -4.6772,5.5587 -7.1169,8.2508 -2.44,2.692 -4.9444,5.3225 -7.5135,7.8916 -2.5691,2.5689 -5.1994,5.0735 -7.8916,7.5134 -2.6921,2.4398 -5.4423,4.8122 -8.2507,7.1172 -2.8086,2.3048 -5.6721,4.5394 -8.5903,6.7037 -2.9182,2.1642 -5.888,4.2556 -8.9087,6.2742 -3.021,2.0184 -6.0896,3.9617 -9.2056,5.8295 -3.1164,1.8679 -6.2766,3.6582 -9.4805,5.3708 -3.2043,1.7127 -6.4487,3.3456 -9.7331,4.8989 -3.2844,1.5535 -6.6047,3.0254 -9.9614,4.4158 -3.3567,1.3904 -6.7454,2.6976 -10.166,3.9216 -3.4209,1.224 -6.8697,2.3633 -10.3465,3.418 -3.4768,1.0546 -6.9773,2.0233 -10.5017,2.9061 -3.5244,0.8827 -7.0684,1.6785 -10.6316,2.3874 -3.5632,0.7088 -7.1421,1.3298 -10.7361,1.8629 -3.5937,0.5331 -7.1985,0.9778 -10.8139,1.3338 -3.616,0.3561 -7.2383,0.6233 -10.867,0.8015 -3.6289,0.1784 -7.2597,0.2675 -10.8928,0.2675 H -258 c -3.63321,0 -7.26419,-0.089 -10.89301,-0.2675 -3.62881,-0.1782 -7.25109,-0.4454 -10.86682,-0.8015 -3.61569,-0.356 -7.22046,-0.8007 -10.81433,-1.3338 -3.59387,-0.5331 -7.17248,-1.1541 -10.73587,-1.8629 -3.56338,-0.7089 -7.10724,-1.5047 -10.63156,-2.3874 -3.52429,-0.8828 -7.02481,-1.8515 -10.50159,-2.9061 -3.47674,-1.0547 -6.92553,-2.1941 -10.34634,-3.4181 -3.42081,-1.224 -6.80954,-2.5311 -10.16617,-3.9215 -3.35663,-1.3904 -6.67715,-2.8623 -9.96155,-4.4156 -3.28433,-1.5534 -6.52859,-3.1864 -9.73278,-4.8991 -3.2042,-1.7126 -6.36445,-3.5029 -9.48075,-5.3707 -3.1163,-1.8679 -6.18487,-3.8112 -9.20578,-5.8296 -3.0209,-2.0186 -5.99042,-4.11 -8.9086,-6.2742 -2.91824,-2.1642 -5.78161,-4.3988 -8.59012,-6.7036 -2.8085,-2.3051 -5.55874,-4.6775 -8.25076,-7.1173 -2.69202,-2.4399 -5.32257,-4.9445 -7.89166,-7.5134 -2.56906,-2.5691 -5.07352,-5.1996 -7.51343,-7.8916 -2.43991,-2.6921 -4.81232,-5.4423 -7.11719,-8.2508 -2.30487,-2.8086 -4.53943,-5.672 -6.7037,-8.5902 -2.16431,-2.9182 -4.25571,-5.8878 -6.2742,-8.9087 -2.0185,-3.0208 -3.96167,-6.0894 -5.8295,-9.2058 -1.86783,-3.1162 -3.65811,-6.2764 -5.37079,-9.4806 -1.71265,-3.2042 -3.34567,-6.4486 -4.89908,-9.7329 -1.55337,-3.2844 -3.02524,-6.605 -4.41562,-9.9615 -1.39035,-3.3566 -2.69754,-6.7453 -3.92151,-10.1662 -1.22402,-3.4207 -2.36334,-6.8696 -3.41799,-10.3463 -1.05466,-3.4767 -2.02338,-6.9773 -2.90616,-10.5016 -0.88278,-3.5243 -1.67859,-7.0682 -2.38742,-10.6316 -0.70877,-3.5633 -1.32975,-7.1419 -1.86286,-10.7358 -0.53311,-3.5939 -0.97772,-7.1987 -1.33386,-10.8143 -0.35611,-3.6158 -0.62329,-7.2381 -0.80157,-10.8669 -0.17826,-3.6287 -0.2674,-7.2597 -0.26743,-10.8929 V 102 c 3e-5,-3.633202 0.0892,-7.264206 0.26743,-10.893021 0.17828,-3.628822 0.44546,-7.251091 0.80157,-10.86679 0.35614,-3.6157 0.80078,-7.22049 1.33389,-10.814362 0.53311,-3.593864 1.15406,-7.172493 1.86286,-10.735882 0.7088,-3.563385 1.50461,-7.107235 2.38742,-10.631546 0.88278,-3.524311 1.85147,-7.024845 2.90613,-10.501594 1.05465,-3.476754 2.19397,-6.925537 3.41799,-10.346352 1.22397,-3.420816 2.53116,-6.809542 3.92151,-10.166176 1.39038,-3.356636 2.86225,-6.677138 4.41562,-9.9615086 1.55341,-3.2843699 3.18643,-6.52865144 4.89908,-9.7328446 1.71268,-3.2041928 3.50296,-6.3644368 5.37082,-9.4807338 1.86783,-3.116295 3.81097,-6.184889 5.82947,-9.205782 2.01849,-3.020891 4.10989,-5.990442 6.2742,-8.908651 2.16427,-2.918209 4.39883,-5.781567 6.7037,-8.590065 2.30487,-2.808498 4.67728,-5.558762 7.11719,-8.250782 2.43991,-2.692021 4.94437,-5.322556 7.51343,-7.891613 2.56909,-2.569058 5.19964,-5.07354 7.89163,-7.513447 2.69205,-2.439903 5.44229,-4.812294 8.25079,-7.117172 2.80851,-2.304878 5.67188,-4.539467 8.59009,-6.703751 2.91818,-2.164291 5.88773,-4.255684 8.90863,-6.274177 3.02091,-2.018494 6.08948,-3.961663 9.20578,-5.829499 3.1163,-1.867836 6.27655,-3.658088 9.48075,-5.370773 3.20419,-1.712669 6.44845,-3.345703 9.73278,-4.899086 3.2844,-1.553402 6.60492,-3.025272 9.96155,-4.415632 3.35663,-1.39037 6.74536,-2.69754 10.16617,-3.92153 3.42081,-1.22399 6.8696,-2.36331 10.34634,-3.41797 3.47678,-1.05467 6.9773,-2.02339 10.50159,-2.90618 3.52432,-0.8828 7.06818,-1.6786 10.63156,-2.3874 3.56339,-0.7088 7.142,-1.32975 10.73587,-1.86286 3.59387,-0.53309 7.19864,-0.9777 10.81433,-1.33382 3.61573,-0.35612 7.23801,-0.62331 10.86682,-0.80158 3.62882,-0.17828 7.2598,-0.26741 10.89301,-0.26742 z"
         style="fill:#ffffff;fill-opacity:1;fill-rule:nonzero;stroke:#000000;stroke-width:1;stroke-linecap:butt;stroke-linejoin:miter;stroke-miterlimit:10;stroke-dasharray:none;stroke-opacity:1"
         transform="matrix(0.94454044,0,0,0.94454044,480.33892,125.28939)"
         clip-path="url(#clipPath4)" />
    </g>
    <path
       id="path6"
       d="M 210,0 H 960 V 1260 H -410 V 620 Z"
       style="fill:#b1ddf0;fill-opacity:1;fill-rule:nonzero;stroke:#10739e;stroke-width:1;stroke-linecap:butt;stroke-linejoin:miter;stroke-miterlimit:10;stroke-dasharray:none;stroke-opacity:1"
       transform="matrix(-0.94454044,0,0,0.94454044,999.83612,125.28939)" />
    <path
       id="path7"
       d="m 1800,0 h 970 V 1260 H 1180 V 620 Z"
       style="fill:#fad7ac;fill-opacity:1;fill-rule:nonzero;stroke:#b46504;stroke-width:1;stroke-linecap:butt;stroke-linejoin:miter;stroke-miterlimit:10;stroke-dasharray:none;stroke-opacity:1"
       transform="matrix(0.94454044,0,0,0.94454044,480.33892,125.28939)" />
    <path
       id="path8"
       d="m 100,40 h 230 l 20,20 V 340 H 120 l -20,-20 z"
       style="fill:#dae8fc;fill-opacity:1;fill-rule:nonzero;stroke:#6c8ebf;stroke-width:1;stroke-linecap:butt;stroke-linejoin:miter;stroke-miterlimit:10;stroke-dasharray:none;stroke-opacity:1"
       transform="matrix(-0.94454044,0,0,0.94454044,905.38207,125.28939)" />
    <path
       id="path9"
       d="m 100,40 h 230 l 20,20 H 120 Z"
       style="fill:#000000;fill-opacity:0.05;fill-rule:nonzero;stroke:none"
       transform="matrix(-0.94454044,0,0,0.94454044,905.38207,125.28939)" />
    <path
       id="path10"
       d="m 100,40 20,20 v 280 l -20,-20 z"
       style="fill:#000000;fill-opacity:0.1;fill-rule:nonzero;stroke:none"
       transform="matrix(-0.94454044,0,0,0.94454044,905.38207,125.28939)" />
    <path
       id="path11"
       d="M 120,340 V 60 L 100,40 m 20,20 h 230"
       style="fill:none;stroke:#6c8ebf;stroke-width:1;stroke-linecap:butt;stroke-linejoin:miter;stroke-miterlimit:10;stroke-dasharray:none;stroke-opacity:1"
       transform="matrix(-0.94454044,0,0,0.94454044,905.38207,125.28939)" />
    <path
       id="path12"
       d="m -120,200 c 1e-5,1.96388 -0.0482,3.92659 -0.14454,5.88812 -0.0964,1.9615 -0.24079,3.91948 -0.43329,5.87393 -0.1925,1.95443 -0.43282,3.90296 -0.72098,5.84559 -0.28816,1.94262 -0.62381,3.87701 -1.00694,5.80317 -0.38313,1.92617 -0.81329,3.84175 -1.29047,5.74678 -0.47719,1.90505 -1.00083,3.79723 -1.57093,5.67656 -0.57009,1.87932 -1.18593,3.74353 -1.84754,5.59261 -0.66161,1.84909 -1.3682,3.68083 -2.11974,5.49522 -0.75154,1.81441 -1.54715,3.60927 -2.38682,5.38461 -0.83968,1.77535 -1.72242,3.52901 -2.64818,5.26101 -0.92577,1.73199 -1.89347,3.44024 -2.90311,5.12472 -1.00964,1.68448 -2.06,3.34317 -3.15108,4.97608 -1.09108,1.6329 -2.22157,3.23809 -3.39145,4.81552 -1.16989,1.57739 -2.37777,3.12515 -3.62365,4.64325 -1.24588,1.51809 -2.52826,3.0047 -3.84713,4.45987 -1.31886,1.45514 -2.67263,2.87704 -4.06132,4.26574 -1.38869,1.38864 -2.81059,2.7424 -4.26575,4.06128 -1.45515,1.31888 -2.94177,2.60129 -4.45988,3.84717 -1.51811,1.24588 -3.06586,2.45374 -4.64327,3.62363 -1.57741,1.16989 -3.18255,2.30038 -4.81547,3.39145 -1.63292,1.09106 -3.29161,2.14141 -4.97611,3.15106 -1.68448,1.00964 -3.39271,1.97735 -5.12472,2.90317 -1.732,0.92575 -3.48566,1.80847 -5.261,2.64813 -1.77533,0.83966 -3.5702,1.63525 -5.3846,2.38681 -1.81439,0.75155 -3.64614,1.45816 -5.49524,2.11978 -1.84908,0.66159 -3.71329,1.27744 -5.59261,1.84753 -1.87933,0.5701 -3.77151,1.09372 -5.67656,1.57093 -1.90501,0.47717 -3.8206,0.90732 -5.74676,1.29046 -1.92615,0.38315 -3.86054,0.71878 -5.80318,1.00693 -1.94264,0.28818 -3.89117,0.52853 -5.84563,0.72104 -1.95442,0.19247 -3.91239,0.33691 -5.87393,0.43329 -1.96153,0.0963 -3.92424,0.14453 -5.88812,0.14456 -1.9639,-3e-5 -3.92661,-0.0482 -5.88814,-0.14456 -1.9615,-0.0964 -3.91948,-0.24082 -5.87391,-0.43329 -1.95443,-0.19251 -3.90294,-0.43283 -5.84559,-0.72101 -1.94262,-0.28818 -3.87701,-0.62381 -5.80316,-1.00696 -1.92614,-0.38314 -3.84173,-0.81329 -5.74679,-1.29049 -1.90503,-0.47718 -3.79721,-1.0008 -5.67655,-1.5709 -1.8793,-0.57009 -3.74353,-1.18594 -5.59262,-1.84753 -1.84909,-0.66162 -3.68081,-1.36823 -5.49521,-2.11978 -1.81439,-0.75156 -3.60925,-1.54715 -5.38458,-2.38681 -1.77536,-0.83966 -3.52902,-1.72238 -5.26102,-2.64813 -1.73199,-0.92582 -3.44024,-1.89353 -5.12472,-2.90317 -1.68448,-1.00965 -3.34317,-2.06 -4.97608,-3.15106 -1.6329,-1.09107 -3.23809,-2.22156 -4.81552,-3.39145 -1.57742,-1.16989 -3.12518,-2.37775 -4.64328,-3.62363 -1.51809,-1.24588 -3.00473,-2.52829 -4.4599,-3.84717 -1.45517,-1.31888 -2.87707,-2.67264 -4.26574,-4.06128 -1.38868,-1.3887 -2.74244,-2.8106 -4.06131,-4.26574 -1.31888,-1.45517 -2.60126,-2.94178 -3.84714,-4.45987 -1.24588,-1.5181 -2.45374,-3.06586 -3.62363,-4.64328 -1.16989,-1.57743 -2.30038,-3.18259 -3.39148,-4.81549 -1.09109,-1.63291 -2.14148,-3.29163 -3.15109,-4.97611 -1.00964,-1.68448 -1.97736,-3.3927 -2.90311,-5.12469 -0.92575,-1.732 -1.80847,-3.48566 -2.64816,-5.26101 -0.83966,-1.77534 -1.63525,-3.5702 -2.38681,-5.38461 -0.75156,-1.81439 -1.45813,-3.64613 -2.11978,-5.49522 -0.66159,-1.84908 -1.27744,-3.71329 -1.84754,-5.59261 -0.57006,-1.87933 -1.09368,-3.77151 -1.57089,-5.67656 -0.4772,-1.90503 -0.90735,-3.82061 -1.29049,-5.74678 -0.38312,-1.92616 -0.71878,-3.86055 -1.00696,-5.80316 -0.28818,-1.94264 -0.52851,-3.89117 -0.72101,-5.8456 -0.19248,-1.95445 -0.33688,-3.91243 -0.43323,-5.87394 C -359.95181,203.92659 -360,201.96388 -360,200 c 0,-1.9639 0.0482,-3.92661 0.14456,-5.88814 0.0963,-1.9615 0.24079,-3.91948 0.43326,-5.87391 0.1925,-1.95444 0.43283,-3.90299 0.72101,-5.84563 0.28818,-1.94263 0.62381,-3.87702 1.00693,-5.80318 0.38314,-1.92615 0.81329,-3.84173 1.29049,-5.74678 0.47721,-1.90504 1.00083,-3.79721 1.57089,-5.67653 0.5701,-1.87933 1.18598,-3.74354 1.84757,-5.59263 0.66162,-1.84909 1.36819,-3.68084 2.11975,-5.49524 0.75156,-1.8144 1.54715,-3.60926 2.38681,-5.38459 0.83969,-1.77534 1.72241,-3.529 2.64816,-5.261 0.92578,-1.73199 1.8935,-3.44023 2.90314,-5.12472 1.00964,-1.6845 2.06,-3.34319 3.15109,-4.97611 1.09107,-1.63292 2.22156,-3.23808 3.39145,-4.81549 1.16989,-1.5774 2.37775,-3.12515 3.62363,-4.64326 1.24588,-1.51811 2.52826,-3.00473 3.84714,-4.45988 1.31887,-1.45515 2.67263,-2.87705 4.06131,-4.26573 1.38867,-1.38868 2.81057,-2.74246 4.26571,-4.06133 1.45517,-1.31886 2.94184,-2.60123 4.45993,-3.8471 1.5181,-1.24588 3.06589,-2.45377 4.64331,-3.62366 1.57743,-1.16988 3.18256,-2.30037 4.81546,-3.39145 1.63291,-1.091079 3.2916,-2.141441 4.97608,-3.151077 1.68448,-1.009643 3.39273,-1.977356 5.12472,-2.903129 1.73203,-0.925774 3.48569,-1.808495 5.26102,-2.648163 1.77536,-0.839669 3.57022,-1.635277 5.38461,-2.386826 1.8144,-0.751549 3.64615,-1.458137 5.49524,-2.119751 1.84909,-0.661613 3.71329,-1.277458 5.59259,-1.847542 1.87934,-0.570091 3.77152,-1.093727 5.67655,-1.570907 1.90506,-0.477188 3.82065,-0.907349 5.74679,-1.290482 1.92615,-0.383133 3.86054,-0.718788 5.80316,-1.006958 1.94265,-0.288154 3.89116,-0.52848 5.84559,-0.72097 1.95443,-0.192497 3.91241,-0.336922 5.87393,-0.433288 C -243.92661,80.04818 -241.9639,80 -240,80 c 1.96388,0 3.92659,0.04818 5.88812,0.144547 1.96154,0.09637 3.91951,0.240791 5.87393,0.433288 1.95446,0.19249 3.90299,0.432816 5.84563,0.720978 1.94264,0.28817 3.87703,0.623817 5.80318,1.00695 1.92616,0.383133 3.84175,0.813294 5.74678,1.290482 1.90503,0.47718 3.79719,1.000816 5.67651,1.570907 1.87935,0.570084 3.74356,1.185936 5.59265,1.84755 1.84909,0.661613 3.68084,1.368194 5.49523,2.119743 1.8144,0.751549 3.60927,1.547157 5.38461,2.386826 1.77533,0.839668 3.52899,1.722389 5.26099,2.648163 1.73201,0.925773 3.44024,1.893478 5.12472,2.903122 1.6845,1.009635 3.34319,2.059997 4.97611,3.151074 1.63292,1.09108 3.23806,2.22157 4.81547,3.39145 1.57741,1.16989 3.12516,2.37778 4.64327,3.62367 1.51811,1.24587 3.00473,2.52824 4.45988,3.84711 1.45516,1.31886 2.87706,2.67264 4.26575,4.06132 1.38869,1.38868 2.74245,2.81058 4.06131,4.26572 1.31886,1.45515 2.60124,2.94178 3.84712,4.45989 1.24588,1.5181 2.45377,3.06586 3.62367,4.64326 1.16988,1.57742 2.30037,3.18259 3.39145,4.81551 1.09108,1.63292 2.14144,3.29161 3.15108,4.9761 1.00964,1.6845 1.97736,3.39273 2.90312,5.12471 0.92577,1.73201 1.80849,3.48567 2.64817,5.261 0.83967,1.77535 1.63528,3.57021 2.38682,5.3846 0.75154,1.81441 1.45813,3.64615 2.11974,5.49524 0.66161,1.84909 1.27745,3.7133 1.84754,5.59262 0.5701,1.87932 1.09373,3.77149 1.57092,5.67653 0.47718,1.90505 0.90734,3.82063 1.29047,5.74678 0.38314,1.92616 0.71879,3.86055 1.00695,5.80318 0.28816,1.94264 0.52848,3.89119 0.72098,5.84563 0.1925,1.95443 0.33692,3.91241 0.43329,5.87393 0.0964,1.96151 0.14455,3.92422 0.14454,5.88812 z"
       style="fill:#f5f5f5;fill-opacity:1;fill-rule:nonzero;stroke:#666666;stroke-width:1;stroke-linecap:butt;stroke-linejoin:miter;stroke-miterlimit:10;stroke-dasharray:none;stroke-opacity:1"
       transform="matrix(0.94454044,0,0,0.94454044,480.33892,125.28939)" />
    <g
       id="g12">
      <text
         id="text12"
         xml:space="preserve"
         transform="matrix(0.94454044,0,0,0.94454044,221.65288,307.11342)"><tspan
           id="tspan12"
           style="font-variant:normal;font-weight:normal;font-size:30px;font-family:Arial;writing-mode:lr-tb;fill:#333333;fill-opacity:1;fill-rule:nonzero;stroke:none"
           x="0"
           y="0">Input</tspan></text>
    </g>
    <g
       id="g13">
      <text
         id="text13"
         xml:space="preserve"
         transform="matrix(0.94454044,0,0,0.94454044,213.78662,341.11688)"><tspan
           id="tspan13"
           style="font-variant:normal;font-weight:normal;font-size:30px;font-family:Arial;writing-mode:lr-tb;fill:#333333;fill-opacity:1;fill-rule:nonzero;stroke:none"
           x="0"
           y="0">Image</tspan></text>
    </g>
    <path
       id="path13"
       d="m 700,1030 h 120 l 80,80 v 120 H 780 l -80,-80 z"
       style="fill:#dae8fc;fill-opacity:1;fill-rule:nonzero;stroke:#6c8ebf;stroke-width:1;stroke-linecap:butt;stroke-linejoin:miter;stroke-miterlimit:10;stroke-dasharray:none;stroke-opacity:1"
       transform="matrix(-0.94454044,0,0,0.94454044,1991.6035,125.28939)" />
    <path
       id="path14"
       d="m 700,1030 h 120 l 80,80 H 780 Z"
       style="fill:#000000;fill-opacity:0.05;fill-rule:nonzero;stroke:none"
       transform="matrix(-0.94454044,0,0,0.94454044,1991.6035,125.28939)" />
    <path
       id="path15"
       d="m 700,1030 80,80 v 120 l -80,-80 z"
       style="fill:#000000;fill-opacity:0.1;fill-rule:nonzero;stroke:none"
       transform="matrix(-0.94454044,0,0,0.94454044,1991.6035,125.28939)" />
    <path
       id="path16"
       d="m 780,1230 v -120 l -80,-80 m 80,80 h 120"
       style="fill:none;stroke:#6c8ebf;stroke-width:1;stroke-linecap:butt;stroke-linejoin:miter;stroke-miterlimit:10;stroke-dasharray:none;stroke-opacity:1"
       transform="matrix(-0.94454044,0,0,0.94454044,1991.6035,125.28939)" />
    <path
       id="path17"
       d="m 1210,980 h 120 l 130,130 v 120 h -120 l -130,-130 z"
       style="fill:#dae8fc;fill-opacity:1;fill-rule:nonzero;stroke:#6c8ebf;stroke-width:1;stroke-linecap:butt;stroke-linejoin:miter;stroke-miterlimit:10;stroke-dasharray:none;stroke-opacity:1"
       transform="matrix(-0.94454044,0,0,0.94454044,3002.2618,125.28939)" />
    <path
       id="path18"
       d="m 1210,980 h 120 l 130,130 h -120 z"
       style="fill:#000000;fill-opacity:0.05;fill-rule:nonzero;stroke:none"
       transform="matrix(-0.94454044,0,0,0.94454044,3002.2618,125.28939)" />
    <path
       id="path19"
       d="m 1210,980 130,130 v 120 l -130,-130 z"
       style="fill:#000000;fill-opacity:0.1;fill-rule:nonzero;stroke:none"
       transform="matrix(-0.94454044,0,0,0.94454044,3002.2618,125.28939)" />
    <path
       id="path20"
       d="M 1340,1230 V 1110 L 1210,980 m 130,130 h 120"
       style="fill:none;stroke:#6c8ebf;stroke-width:1;stroke-linecap:butt;stroke-linejoin:miter;stroke-miterlimit:10;stroke-dasharray:none;stroke-opacity:1"
       transform="matrix(-0.94454044,0,0,0.94454044,3002.2618,125.28939)" />
    <path
       id="path21"
       d="m 2740,190 c 0,1.96388 -0.048,3.92659 -0.1443,5.88811 -0.096,1.96153 -0.241,3.91952 -0.4333,5.87394 -0.1927,1.95443 -0.4329,3.90294 -0.7212,5.84559 -0.2884,1.94262 -0.6241,3.87701 -1.0071,5.80317 -0.3831,1.92617 -0.8132,3.84175 -1.2905,5.7468 -0.4773,1.90504 -1.0008,3.79722 -1.5708,5.67654 -0.5701,1.87932 -1.1861,3.74352 -1.8477,5.59262 -0.6616,1.84908 -1.3682,3.6808 -2.1196,5.49521 -0.7515,1.81439 -1.5471,3.60925 -2.3867,5.3846 -0.8399,1.77534 -1.7227,3.52901 -2.6482,5.261 -0.9256,1.73198 -1.8933,3.44022 -2.9031,5.12471 -1.0098,1.6845 -2.0601,3.34319 -3.1511,4.97611 -1.0911,1.6329 -2.2217,3.23806 -3.3914,4.81549 -1.1702,1.57742 -2.3779,3.12515 -3.6238,4.64325 -1.2458,1.51812 -2.5283,3.00476 -3.8471,4.4599 -1.3189,1.45514 -2.6726,2.87704 -4.0613,4.26574 -1.3887,1.38871 -2.8106,2.74247 -4.2659,4.06134 -1.4551,1.31888 -2.9416,2.60126 -4.4597,3.84714 -1.5183,1.24588 -3.0662,2.45377 -4.6436,3.62366 -1.5773,1.16986 -3.1826,2.30032 -4.8154,3.39142 -1.633,1.09109 -3.292,2.14145 -4.9763,3.15109 -1.6843,1.00967 -3.3926,1.97739 -5.1245,2.90314 -1.7322,0.92575 -3.4859,1.80847 -5.261,2.64813 -1.7754,0.83969 -3.5703,1.63528 -5.3848,2.38684 -1.8142,0.75156 -3.646,1.45813 -5.4951,2.11975 -1.8491,0.66162 -3.7134,1.27747 -5.5925,1.84757 -1.8794,0.57009 -3.7715,1.09371 -5.6765,1.57089 -1.9051,0.4772 -3.8208,0.90735 -5.7469,1.29046 -1.926,0.38312 -3.8606,0.71878 -5.8032,1.00696 -1.9426,0.28818 -3.8908,0.52854 -5.8452,0.72101 -1.9546,0.19247 -3.9126,0.33691 -5.8743,0.43326 -1.9614,0.0964 -3.924,0.14456 -5.8879,0.14456 -1.9639,0 -3.9265,-0.0482 -5.8882,-0.14456 -1.9617,-0.0963 -3.9197,-0.24079 -5.874,-0.43326 -1.9544,-0.19247 -3.9031,-0.43283 -5.8457,-0.72101 -1.9426,-0.28818 -3.8772,-0.62384 -5.8032,-1.00696 -1.9261,-0.38311 -3.8418,-0.81326 -5.7469,-1.29046 -1.905,-0.47718 -3.7971,-1.0008 -5.6762,-1.57089 -1.8794,-0.5701 -3.7437,-1.18595 -5.5928,-1.8476 -1.8494,-0.66159 -3.6812,-1.36816 -5.4954,-2.11972 -1.8142,-0.75156 -3.6091,-1.54715 -5.3847,-2.38684 -1.7752,-0.83966 -3.5286,-1.72238 -5.2608,-2.64813 -1.7319,-0.92575 -3.4402,-1.89347 -5.1247,-2.90314 -1.6844,-1.00964 -3.343,-2.06 -4.9761,-3.15109 -1.6331,-1.0911 -3.238,-2.22156 -4.8154,-3.39142 -1.5774,-1.16989 -3.1253,-2.37778 -4.6431,-3.62366 -1.5181,-1.24588 -3.0046,-2.52826 -4.46,-3.84714 -1.455,-1.31887 -2.8769,-2.67263 -4.2656,-4.06134 -1.3889,-1.3887 -2.7427,-2.8106 -4.0613,-4.26574 -1.3188,-1.45514 -2.6013,-2.94178 -3.8471,-4.4599 -1.2459,-1.5181 -2.4539,-3.06583 -3.6241,-4.64325 -1.1696,-1.57743 -2.3002,-3.18259 -3.3913,-4.81549 -1.0911,-1.63292 -2.1414,-3.29161 -3.1509,-4.97611 -1.0095,-1.68448 -1.9773,-3.39271 -2.9028,-5.12469 -0.926,-1.73201 -1.8089,-3.48568 -2.6485,-5.26102 -0.8398,-1.77535 -1.6355,-3.57021 -2.3869,-5.3846 -0.7515,-1.81441 -1.458,-3.64613 -2.1197,-5.49521 -0.6613,-1.8491 -1.2771,-3.7133 -1.8471,-5.59262 -0.5701,-1.87932 -1.094,-3.7715 -1.5713,-5.67654 -0.4773,-1.90505 -0.9075,-3.82063 -1.2905,-5.7468 -0.3831,-1.92616 -0.7188,-3.86055 -1.0069,-5.80317 -0.2881,-1.94265 -0.5283,-3.89116 -0.7207,-5.84559 -0.1926,-1.95442 -0.3371,-3.91241 -0.4336,-5.87394 C 2500.0481,193.92659 2500,191.96388 2500,190 c 0,-1.96388 0.048,-3.92657 0.1445,-5.88809 0.097,-1.96153 0.241,-3.91953 0.4336,-5.87395 0.1924,-1.95444 0.4326,-3.90297 0.7207,-5.84561 0.2881,-1.94264 0.6238,-3.87703 1.0069,-5.80319 0.383,-1.92615 0.8132,-3.84174 1.2905,-5.74678 0.4773,-1.90505 1.0012,-3.79723 1.5713,-5.67655 0.57,-1.87932 1.1858,-3.74353 1.8471,-5.59263 0.6617,-1.84908 1.3682,-3.68082 2.1197,-5.49523 0.7514,-1.81441 1.5471,-3.60927 2.3867,-5.3846 0.8398,-1.77533 1.7227,-3.52899 2.6487,-5.261 0.9258,-1.73199 1.8935,-3.44023 2.9031,-5.12472 1.0095,-1.68447 2.0598,-3.34317 3.1508,-4.97608 1.0911,-1.63292 2.2215,-3.23809 3.3914,-4.81549 1.1702,-1.57741 2.3779,-3.12517 3.6238,-4.64328 1.2458,-1.51811 2.5283,-3.00473 3.8471,-4.45988 1.3186,-1.45515 2.6724,-2.87706 4.0613,-4.26574 1.3887,-1.38868 2.8106,-2.74246 4.2656,-4.06133 1.4554,-1.318867 2.9419,-2.601231 4.4602,-3.847103 1.5179,-1.24588 3.0655,-2.453766 4.6429,-3.62365 1.5774,-1.169891 3.1826,-2.300377 4.8156,-3.391457 1.6331,-1.091079 3.2915,-2.141441 4.9759,-3.151077 1.6845,-1.009636 3.3928,-1.977341 5.1247,-2.903114 1.7322,-0.925774 3.4856,-1.808495 5.2608,-2.648163 1.7756,-0.839668 3.5705,-1.635284 5.3847,-2.386833 1.8142,-0.751549 3.646,-1.45813 5.4952,-2.119751 1.8493,-0.661614 3.7136,-1.277458 5.593,-1.847542 1.8791,-0.570091 3.7712,-1.093727 5.6762,-1.570915 1.9051,-0.477181 3.8208,-0.907341 5.7469,-1.290482 1.926,-0.38314 3.8606,-0.718788 5.8032,-1.00695 1.9426,-0.288155 3.8913,-0.528481 5.8457,-0.720978 1.9543,-0.192497 3.9123,-0.336922 5.874,-0.433288 C 2616.0735,70.04818 2618.0361,70 2620,70 c 1.9639,0 3.9265,0.04818 5.8879,0.144547 1.9617,0.09637 3.9197,0.240791 5.8743,0.433288 1.9544,0.192497 3.9026,0.432823 5.8452,0.720978 1.9426,0.288162 3.8772,0.62381 5.8032,1.00695 1.9261,0.383141 3.8418,0.813301 5.7469,1.290482 1.905,0.477188 3.7971,1.000824 5.6765,1.570915 1.8791,0.570084 3.7434,1.185936 5.5925,1.847549 1.8491,0.661614 3.6809,1.368195 5.4951,2.119744 1.8145,0.751549 3.6094,1.547157 5.3848,2.386825 1.7751,0.839676 3.5288,1.722397 5.261,2.648171 1.7319,0.925773 3.4402,1.893471 5.1245,2.903107 1.6843,1.009643 3.343,2.060005 4.9761,3.151084 1.6328,1.09108 3.238,2.221566 4.8154,3.391457 1.5776,1.169884 3.1255,2.37777 4.6438,3.62365 1.5181,1.245872 3.0046,2.528236 4.4597,3.847103 1.4553,1.31887 2.8772,2.67265 4.2659,4.06133 1.3887,1.38868 2.7424,2.81059 4.0613,4.26574 1.3188,1.45515 2.6013,2.94177 3.8471,4.45988 1.2459,1.51811 2.4536,3.06587 3.6238,4.64328 1.1697,1.5774 2.3003,3.18257 3.3914,4.81548 1.091,1.63291 2.1413,3.29161 3.1511,4.97609 1.0098,1.68449 1.9775,3.39273 2.9031,5.12472 0.9255,1.73201 1.8083,3.48567 2.6482,5.261 0.8396,1.77533 1.6352,3.57019 2.3867,5.3846 0.7514,1.81441 1.458,3.64615 2.1199,5.49524 0.6613,1.84909 1.2773,3.7133 1.8476,5.59264 0.5701,1.87932 1.0935,3.77148 1.5706,5.67653 0.4773,1.90504 0.9074,3.82063 1.2905,5.74678 0.383,1.92616 0.7187,3.86055 1.0071,5.80317 0.2883,1.94265 0.5285,3.89118 0.7212,5.84562 0.1923,1.95442 0.3369,3.91241 0.4333,5.87394 0.096,1.96154 0.1443,3.92423 0.1443,5.88811 z"
       style="fill:#f5f5f5;fill-opacity:1;fill-rule:nonzero;stroke:#666666;stroke-width:1;stroke-linecap:butt;stroke-linejoin:miter;stroke-miterlimit:10;stroke-dasharray:none;stroke-opacity:1"
       transform="matrix(0.94454044,0,0,0.94454044,480.33892,125.28939)" />
    <g
       id="g21">
      <text
         id="text21"
         xml:space="preserve"
         transform="matrix(0.94454044,0,0,0.94454044,2912.014,280.66629)"><tspan
           id="tspan21"
           style="font-variant:normal;font-weight:normal;font-size:30px;font-family:Arial;writing-mode:lr-tb;fill:#333333;fill-opacity:1;fill-rule:nonzero;stroke:none"
           x="0"
           y="0">Output</tspan></text>
    </g>
    <g
       id="g22">
      <text
         id="text22"
         xml:space="preserve"
         transform="matrix(0.94454044,0,0,0.94454044,2867.1188,314.66974)"><tspan
           id="tspan22"
           style="font-variant:normal;font-weight:normal;font-size:30px;font-family:Arial;writing-mode:lr-tb;fill:#333333;fill-opacity:1;fill-rule:nonzero;stroke:none"
           x="0"
           y="0">Segmentation</tspan></text>
    </g>
    <g
       id="g23">
      <text
         id="text23"
         xml:space="preserve"
         transform="matrix(0.94454044,0,0,0.94454044,2926.9938,348.6732)"><tspan
           id="tspan23"
           style="font-variant:normal;font-weight:normal;font-size:30px;font-family:Arial;writing-mode:lr-tb;fill:#333333;fill-opacity:1;fill-rule:nonzero;stroke:none"
           x="0"
           y="0">Map</tspan></text>
    </g>
    <path
       id="path23"
       d="m 1940,30 h 230 l 20,20 v 280 h -230 l -20,-20 z"
       style="fill:#dae8fc;fill-opacity:1;fill-rule:nonzero;stroke:#6c8ebf;stroke-width:1;stroke-linecap:butt;stroke-linejoin:miter;stroke-miterlimit:10;stroke-dasharray:none;stroke-opacity:1"
       transform="matrix(-0.94454044,0,0,0.94454044,4381.2908,125.28939)" />
    <path
       id="path24"
       d="m 1940,30 h 230 l 20,20 h -230 z"
       style="fill:#000000;fill-opacity:0.05;fill-rule:nonzero;stroke:none"
       transform="matrix(-0.94454044,0,0,0.94454044,4381.2908,125.28939)" />
    <path
       id="path25"
       d="m 1940,30 20,20 v 280 l -20,-20 z"
       style="fill:#000000;fill-opacity:0.1;fill-rule:nonzero;stroke:none"
       transform="matrix(-0.94454044,0,0,0.94454044,4381.2908,125.28939)" />
    <path
       id="path26"
       d="M 1960,330 V 50 l -20,-20 m 20,20 h 230"
       style="fill:none;stroke:#6c8ebf;stroke-width:1;stroke-linecap:butt;stroke-linejoin:miter;stroke-miterlimit:10;stroke-dasharray:none;stroke-opacity:1"
       transform="matrix(-0.94454044,0,0,0.94454044,4381.2908,125.28939)" />
    <path
       id="path27"
       d="m 1920,50 h 230 l 20,20 v 280 h -230 l -20,-20 z"
       style="fill:#f5f5f5;fill-opacity:1;fill-rule:nonzero;stroke:#666666;stroke-width:1;stroke-linecap:butt;stroke-linejoin:miter;stroke-miterlimit:10;stroke-dasharray:none;stroke-opacity:1"
       transform="matrix(-0.94454044,0,0,0.94454044,4343.5092,125.28939)" />
    <path
       id="path28"
       d="m 1920,50 h 230 l 20,20 h -230 z"
       style="fill:#000000;fill-opacity:0.05;fill-rule:nonzero;stroke:none"
       transform="matrix(-0.94454044,0,0,0.94454044,4343.5092,125.28939)" />
    <path
       id="path29"
       d="m 1920,50 20,20 v 280 l -20,-20 z"
       style="fill:#000000;fill-opacity:0.1;fill-rule:nonzero;stroke:none"
       transform="matrix(-0.94454044,0,0,0.94454044,4343.5092,125.28939)" />
    <path
       id="path30"
       d="M 1940,350 V 70 l -20,-20 m 20,20 h 230"
       style="fill:none;stroke:#666666;stroke-width:1;stroke-linecap:butt;stroke-linejoin:miter;stroke-miterlimit:10;stroke-dasharray:none;stroke-opacity:1"
       transform="matrix(-0.94454044,0,0,0.94454044,4343.5092,125.28939)" />
    <g
       id="g30">
      <text
         id="text30"
         xml:space="preserve"
         transform="matrix(0.94454044,0,0,0.94454044,2357.0964,299.5571)"><tspan
           id="tspan30"
           style="font-variant:normal;font-weight:normal;font-size:30px;font-family:Arial;writing-mode:lr-tb;fill:#333333;fill-opacity:1;fill-rule:nonzero;stroke:none"
           x="0"
           y="0">Copied</tspan></text>
    </g>
    <g
       id="g31">
      <text
         id="text31"
         xml:space="preserve"
         transform="matrix(0.94454044,0,0,0.94454044,2353.1707,333.56055)"><tspan
           id="tspan31"
           style="font-variant:normal;font-weight:normal;font-size:30px;font-family:Arial;writing-mode:lr-tb;fill:#333333;fill-opacity:1;fill-rule:nonzero;stroke:none"
           x="0"
           y="0">Feature</tspan></text>
    </g>
    <g
       id="g32">
      <text
         id="text32"
         xml:space="preserve"
         transform="matrix(0.94454044,0,0,0.94454044,2367.3536,367.56401)"><tspan
           id="tspan32"
           style="font-variant:normal;font-weight:normal;font-size:30px;font-family:Arial;writing-mode:lr-tb;fill:#333333;fill-opacity:1;fill-rule:nonzero;stroke:none"
           x="0"
           y="0">Maps</tspan></text>
    </g>
    <path
       id="path32"
       d="m -100,201 h 64 v -21 l 16,30 -16,30 v -21 h -64 z"
       style="fill:#0050ef;fill-opacity:1;fill-rule:nonzero;stroke:#001dbc;stroke-width:1;stroke-linecap:butt;stroke-linejoin:miter;stroke-miterlimit:10;stroke-dasharray:none;stroke-opacity:1"
       transform="matrix(0.94454044,0,0,0.94454044,480.33892,125.28939)" />
    <path
       id="path33"
       d="m 10,201 h 64 v -21 l 16,30 -16,30 V 219 H 10 Z"
       style="fill:#0050ef;fill-opacity:1;fill-rule:nonzero;stroke:#001dbc;stroke-width:1;stroke-linecap:butt;stroke-linejoin:miter;stroke-miterlimit:10;stroke-dasharray:none;stroke-opacity:1"
       transform="matrix(0.94454044,0,0,0.94454044,480.33892,125.28939)" />
    <path
       id="path34"
       d="m 150,491 h 64 v -21 l 16,30 -16,30 v -21 h -64 z"
       style="fill:#0050ef;fill-opacity:1;fill-rule:nonzero;stroke:#001dbc;stroke-width:1;stroke-linecap:butt;stroke-linejoin:miter;stroke-miterlimit:10;stroke-dasharray:none;stroke-opacity:1"
       transform="matrix(0.94454044,0,0,0.94454044,480.33892,125.28939)" />
    <path
       id="path35"
       d="m 260,491 h 64 v -21 l 16,30 -16,30 v -21 h -64 z"
       style="fill:#0050ef;fill-opacity:1;fill-rule:nonzero;stroke:#001dbc;stroke-width:1;stroke-linecap:butt;stroke-linejoin:miter;stroke-miterlimit:10;stroke-dasharray:none;stroke-opacity:1"
       transform="matrix(0.94454044,0,0,0.94454044,480.33892,125.28939)" />
    <path
       id="path36"
       d="m 340,661 h 64 v -21 l 16,30 -16,30 v -21 h -64 z"
       style="fill:#0050ef;fill-opacity:1;fill-rule:nonzero;stroke:#001dbc;stroke-width:1;stroke-linecap:butt;stroke-linejoin:miter;stroke-miterlimit:10;stroke-dasharray:none;stroke-opacity:1"
       transform="matrix(0.94454044,0,0,0.94454044,480.33892,125.28939)" />
    <path
       id="path37"
       d="m 450,661 h 64 v -21 l 16,30 -16,30 v -21 h -64 z"
       style="fill:#0050ef;fill-opacity:1;fill-rule:nonzero;stroke:#001dbc;stroke-width:1;stroke-linecap:butt;stroke-linejoin:miter;stroke-miterlimit:10;stroke-dasharray:none;stroke-opacity:1"
       transform="matrix(0.94454044,0,0,0.94454044,480.33892,125.28939)" />
    <path
       id="path38"
       d="m 530,851 h 64 v -21 l 16,30 -16,30 v -21 h -64 z"
       style="fill:#0050ef;fill-opacity:1;fill-rule:nonzero;stroke:#001dbc;stroke-width:1;stroke-linecap:butt;stroke-linejoin:miter;stroke-miterlimit:10;stroke-dasharray:none;stroke-opacity:1"
       transform="matrix(0.94454044,0,0,0.94454044,480.33892,125.28939)" />
    <path
       id="path39"
       d="m 640,851 h 64 v -21 l 16,30 -16,30 v -21 h -64 z"
       style="fill:#0050ef;fill-opacity:1;fill-rule:nonzero;stroke:#001dbc;stroke-width:1;stroke-linecap:butt;stroke-linejoin:miter;stroke-miterlimit:10;stroke-dasharray:none;stroke-opacity:1"
       transform="matrix(0.94454044,0,0,0.94454044,480.33892,125.28939)" />
    <path
       id="path40"
       d="m 970,1121 h 64 v -21 l 16,30 -16,30 v -21 h -64 z"
       style="fill:#0050ef;fill-opacity:1;fill-rule:nonzero;stroke:#001dbc;stroke-width:1;stroke-linecap:butt;stroke-linejoin:miter;stroke-miterlimit:10;stroke-dasharray:none;stroke-opacity:1"
       transform="matrix(0.94454044,0,0,0.94454044,480.33892,125.28939)" />
    <path
       id="path41"
       d="m 1080,1121 h 64 v -21 l 16,30 -16,30 v -21 h -64 z"
       style="fill:#0050ef;fill-opacity:1;fill-rule:nonzero;stroke:#001dbc;stroke-width:1;stroke-linecap:butt;stroke-linejoin:miter;stroke-miterlimit:10;stroke-dasharray:none;stroke-opacity:1"
       transform="matrix(0.94454044,0,0,0.94454044,480.33892,125.28939)" />
    <path
       id="path42"
       d="m 1410,841 h 64 v -21 l 16,30 -16,30 v -21 h -64 z"
       style="fill:#0050ef;fill-opacity:1;fill-rule:nonzero;stroke:#001dbc;stroke-width:1;stroke-linecap:butt;stroke-linejoin:miter;stroke-miterlimit:10;stroke-dasharray:none;stroke-opacity:1"
       transform="matrix(0.94454044,0,0,0.94454044,480.33892,125.28939)" />
    <path
       id="path43"
       d="m 1520,841 h 64 v -21 l 16,30 -16,30 v -21 h -64 z"
       style="fill:#0050ef;fill-opacity:1;fill-rule:nonzero;stroke:#001dbc;stroke-width:1;stroke-linecap:butt;stroke-linejoin:miter;stroke-miterlimit:10;stroke-dasharray:none;stroke-opacity:1"
       transform="matrix(0.94454044,0,0,0.94454044,480.33892,125.28939)" />
    <path
       id="path44"
       d="m 1600,661 h 64 v -21 l 16,30 -16,30 v -21 h -64 z"
       style="fill:#0050ef;fill-opacity:1;fill-rule:nonzero;stroke:#001dbc;stroke-width:1;stroke-linecap:butt;stroke-linejoin:miter;stroke-miterlimit:10;stroke-dasharray:none;stroke-opacity:1"
       transform="matrix(0.94454044,0,0,0.94454044,480.33892,125.28939)" />
    <path
       id="path45"
       d="m 1710,661 h 64 v -21 l 16,30 -16,30 v -21 h -64 z"
       style="fill:#0050ef;fill-opacity:1;fill-rule:nonzero;stroke:#001dbc;stroke-width:1;stroke-linecap:butt;stroke-linejoin:miter;stroke-miterlimit:10;stroke-dasharray:none;stroke-opacity:1"
       transform="matrix(0.94454044,0,0,0.94454044,480.33892,125.28939)" />
    <path
       id="path46"
       d="m 1790,491 h 64 v -21 l 16,30 -16,30 v -21 h -64 z"
       style="fill:#0050ef;fill-opacity:1;fill-rule:nonzero;stroke:#001dbc;stroke-width:1;stroke-linecap:butt;stroke-linejoin:miter;stroke-miterlimit:10;stroke-dasharray:none;stroke-opacity:1"
       transform="matrix(0.94454044,0,0,0.94454044,480.33892,125.28939)" />
    <path
       id="path47"
       d="m 1900,491 h 64 v -21 l 16,30 -16,30 v -21 h -64 z"
       style="fill:#0050ef;fill-opacity:1;fill-rule:nonzero;stroke:#001dbc;stroke-width:1;stroke-linecap:butt;stroke-linejoin:miter;stroke-miterlimit:10;stroke-dasharray:none;stroke-opacity:1"
       transform="matrix(0.94454044,0,0,0.94454044,480.33892,125.28939)" />
    <path
       id="path48"
       d="m 130,401 h 64 v -21 l 16,30 -16,30 v -21 h -64 z"
       style="fill:#d80073;fill-opacity:1;fill-rule:nonzero;stroke:#a50040;stroke-width:1;stroke-linecap:butt;stroke-linejoin:miter;stroke-miterlimit:10;stroke-dasharray:none;stroke-opacity:1"
       transform="matrix(0,0.94454044,-0.94454044,0,1028.1724,351.97909)" />
    <path
       id="path49"
       d="m 290,581 h 64 v -21 l 16,30 -16,30 v -21 h -64 z"
       style="fill:#d80073;fill-opacity:1;fill-rule:nonzero;stroke:#a50040;stroke-width:1;stroke-linecap:butt;stroke-linejoin:miter;stroke-miterlimit:10;stroke-dasharray:none;stroke-opacity:1"
       transform="matrix(0,0.94454044,-0.94454044,0,1349.316,370.86991)" />
    <path
       id="path50"
       d="m 480,761 h 64 v -21 l 16,30 -16,30 v -21 h -64 z"
       style="fill:#d80073;fill-opacity:1;fill-rule:nonzero;stroke:#a50040;stroke-width:1;stroke-linecap:butt;stroke-linejoin:miter;stroke-miterlimit:10;stroke-dasharray:none;stroke-opacity:1"
       transform="matrix(0,0.94454044,-0.94454044,0,1698.796,361.42452)" />
    <path
       id="path51"
       d="m 680,951 h 64 v -21 l 16,30 -16,30 v -21 h -64 z"
       style="fill:#d80073;fill-opacity:1;fill-rule:nonzero;stroke:#a50040;stroke-width:1;stroke-linecap:butt;stroke-linejoin:miter;stroke-miterlimit:10;stroke-dasharray:none;stroke-opacity:1"
       transform="matrix(0,0.94454044,-0.94454044,0,2067.1668,351.97909)" />
    <path
       id="path52"
       d="m 1350,921 h 64 v -21 l 16,30 -16,30 v -21 h -64 z"
       style="fill:#008a00;fill-opacity:1;fill-rule:nonzero;stroke:#005700;stroke-width:1;stroke-linecap:butt;stroke-linejoin:miter;stroke-miterlimit:10;stroke-dasharray:none;stroke-opacity:1"
       transform="matrix(0,-0.94454044,0.94454044,0,914.82745,2316.6232)" />
    <path
       id="path53"
       d="m 1540,751 h 64 v -21 l 16,30 -16,30 v -21 h -64 z"
       style="fill:#008a00;fill-opacity:1;fill-rule:nonzero;stroke:#005700;stroke-width:1;stroke-linecap:butt;stroke-linejoin:miter;stroke-miterlimit:10;stroke-dasharray:none;stroke-opacity:1"
       transform="matrix(0,-0.94454044,0.94454044,0,1254.862,2335.5141)" />
    <path
       id="path54"
       d="m 1750,581 h 64 v -21 l 16,30 -16,30 v -21 h -64 z"
       style="fill:#008a00;fill-opacity:1;fill-rule:nonzero;stroke:#005700;stroke-width:1;stroke-linecap:butt;stroke-linejoin:miter;stroke-miterlimit:10;stroke-dasharray:none;stroke-opacity:1"
       transform="matrix(0,-0.94454044,0.94454044,0,1613.7874,2373.2955)" />
    <path
       id="path55"
       d="m 1940,411 h 64 v -21 l 16,30 -16,30 v -21 h -64 z"
       style="fill:#008a00;fill-opacity:1;fill-rule:nonzero;stroke:#005700;stroke-width:1;stroke-linecap:butt;stroke-linejoin:miter;stroke-miterlimit:10;stroke-dasharray:none;stroke-opacity:1"
       transform="matrix(0,-0.94454044,0.94454044,0,1953.8219,2392.1865)" />
    <path
       id="path56"
       d="m 2200,191 h 64 v -21 l 16,30 -16,30 v -21 h -64 z"
       style="fill:#0050ef;fill-opacity:1;fill-rule:nonzero;stroke:#001dbc;stroke-width:1;stroke-linecap:butt;stroke-linejoin:miter;stroke-miterlimit:10;stroke-dasharray:none;stroke-opacity:1"
       transform="matrix(0.94454044,0,0,0.94454044,480.33892,125.28939)" />
    <path
       id="path57"
       d="m 2310,191 h 64 v -21 l 16,30 -16,30 v -21 h -64 z"
       style="fill:#0050ef;fill-opacity:1;fill-rule:nonzero;stroke:#001dbc;stroke-width:1;stroke-linecap:butt;stroke-linejoin:miter;stroke-miterlimit:10;stroke-dasharray:none;stroke-opacity:1"
       transform="matrix(0.94454044,0,0,0.94454044,480.33892,125.28939)" />
    <path
       id="path58"
       d="m 2410,191 h 64 v -21 l 16,30 -16,30 v -21 h -64 z"
       style="fill:#b0e3e6;fill-opacity:1;fill-rule:nonzero;stroke:#0e8088;stroke-width:1;stroke-linecap:butt;stroke-linejoin:miter;stroke-miterlimit:10;stroke-dasharray:none;stroke-opacity:1"
       transform="matrix(0.94454044,0,0,0.94454044,480.33892,125.28939)" />
    <path
       id="path59"
       d="m 430,200 h 1357.15 v -20 l 82.85,30 -82.85,30 V 220 H 430 Z"
       style="fill:url(#linearGradient60);fill-opacity:1;fill-rule:nonzero;stroke:#666666;stroke-width:1;stroke-linecap:butt;stroke-linejoin:miter;stroke-miterlimit:10;stroke-dasharray:none;stroke-opacity:1"
       transform="matrix(0.94454044,0,0,0.94454044,480.33892,125.28939)" />
    <path
       id="path60"
       d="m 480,480 h 1140.38 v -20 l 69.62,30 -69.62,30 V 500 H 480 Z"
       style="fill:url(#linearGradient62);fill-opacity:1;fill-rule:nonzero;stroke:#666666;stroke-width:1;stroke-linecap:butt;stroke-linejoin:miter;stroke-miterlimit:10;stroke-dasharray:none;stroke-opacity:1"
       transform="matrix(0.94454044,0,0,0.94454044,480.33892,125.28939)" />
    <path
       id="path62"
       d="m 680,660 h 744.5501 V 640 L 1470,670 1424.5501,700 V 680 H 680 Z"
       style="fill:url(#linearGradient64);fill-opacity:1;fill-rule:nonzero;stroke:#666666;stroke-width:1;stroke-linecap:butt;stroke-linejoin:miter;stroke-miterlimit:10;stroke-dasharray:none;stroke-opacity:1"
       transform="matrix(0.94454044,0,0,0.94454044,480.33892,125.28939)" />
    <path
       id="path64"
       d="m 830,838 h 416.6801 V 820 L 1310,850 1246.6801,880 V 862 H 830 Z"
       style="fill:url(#linearGradient66);fill-opacity:1;fill-rule:nonzero;stroke:#666666;stroke-width:1;stroke-linecap:butt;stroke-linejoin:miter;stroke-miterlimit:10;stroke-dasharray:none;stroke-opacity:1"
       transform="matrix(0.94454044,0,0,0.94454044,480.33892,125.28939)" />
    <g
       id="g66">
      <text
         id="text66"
         xml:space="preserve"
         transform="matrix(0.94454044,0,0,0.94454044,152.42101,840.77877)"><tspan
           id="tspan66"
           style="font-variant:normal;font-weight:700;font-size:60px;font-family:Arial;writing-mode:lr-tb;fill:#000000;fill-opacity:1;fill-rule:nonzero;stroke:none"
           x="0"
           y="0">Contracting Path</tspan></text>
    </g>
    <g
       id="g67">
      <text
         id="text67"
         xml:space="preserve"
         transform="matrix(0.94454044,0,0,0.94454044,2551.4652,802.99715)"><tspan
           id="tspan67"
           style="font-variant:normal;font-weight:700;font-size:60px;font-family:Arial;writing-mode:lr-tb;fill:#000000;fill-opacity:1;fill-rule:nonzero;stroke:none"
           x="0"
           y="0">Expansive Path</tspan></text>
    </g>
    <g
       id="g68">
      <text
         id="text68"
         xml:space="preserve"
         transform="matrix(0.94454044,0,0,0.94454044,1388.2046,154.09787)"><tspan
           id="tspan68"
           style="font-variant:normal;font-weight:700;font-size:100px;font-family:Arial;writing-mode:lr-tb;fill:#000000;fill-opacity:1;fill-rule:nonzero;stroke:none"
           x="0"
           y="0">U-Net</tspan></text>
    </g>
    <path
       id="path68"
       d="m 1960,870 h 800 v 380 h -800 z"
       style="fill:#ffffff;fill-opacity:1;fill-rule:nonzero;stroke:#000000;stroke-width:1;stroke-linecap:butt;stroke-linejoin:miter;stroke-miterlimit:10;stroke-dasharray:none;stroke-opacity:1"
       transform="matrix(0.94454044,0,0,0.94454044,480.33892,125.28939)" />
    <path
       id="path69"
       d="m 1991,921 h 64 v -21 l 16,30 -16,30 v -21 h -64 z"
       style="fill:#0050ef;fill-opacity:1;fill-rule:nonzero;stroke:#001dbc;stroke-width:1;stroke-linecap:butt;stroke-linejoin:miter;stroke-miterlimit:10;stroke-dasharray:none;stroke-opacity:1"
       transform="matrix(0.94454044,0,0,0.94454044,480.33892,125.28939)" />
    <path
       id="path70"
       d="m 1996,1001 h 64 v -21 l 16,30 -16,30 v -21 h -64 z"
       style="fill:#d80073;fill-opacity:1;fill-rule:nonzero;stroke:#a50040;stroke-width:1;stroke-linecap:butt;stroke-linejoin:miter;stroke-miterlimit:10;stroke-dasharray:none;stroke-opacity:1"
       transform="matrix(0,0.94454044,-0.94454044,0,3357.4089,-843.80912)" />
    <path
       id="path71"
       d="m 1996,1101 h 64 v -21 l 16,30 -16,30 v -21 h -64 z"
       style="fill:#008a00;fill-opacity:1;fill-rule:nonzero;stroke:#005700;stroke-width:1;stroke-linecap:butt;stroke-linejoin:miter;stroke-miterlimit:10;stroke-dasharray:none;stroke-opacity:1"
       transform="matrix(0,-0.94454044,0.94454044,0,1354.9834,3096.8136)" />
    <path
       id="path72"
       d="m 1991,1191 h 64 v -21 l 16,30 -16,30 v -21 h -64 z"
       style="fill:#b0e3e6;fill-opacity:1;fill-rule:nonzero;stroke:#0e8088;stroke-width:1;stroke-linecap:butt;stroke-linejoin:miter;stroke-miterlimit:10;stroke-dasharray:none;stroke-opacity:1"
       transform="matrix(0.94454044,0,0,0.94454044,480.33892,125.28939)" />
    <g
       id="g72">
      <text
         id="text72"
         xml:space="preserve"
         transform="matrix(0.94454044,0,0,0.94454044,1395.2149,366.61947)"><tspan
           id="tspan72"
           style="font-variant:normal;font-weight:normal;font-size:30px;font-family:Arial;writing-mode:lr-tb;fill:#000000;fill-opacity:1;fill-rule:nonzero;stroke:none"
           x="0"
           y="0">Copy and Crop</tspan></text>
    </g>
    <g
       id="g73">
      <text
         id="text73"
         xml:space="preserve"
         transform="matrix(0.94454044,0,0,0.94454044,1395.2149,631.09079)"><tspan
           id="tspan73"
           style="font-variant:normal;font-weight:normal;font-size:30px;font-family:Arial;writing-mode:lr-tb;fill:#000000;fill-opacity:1;fill-rule:nonzero;stroke:none"
           x="0"
           y="0">Copy and Crop</tspan></text>
    </g>
    <g
       id="g74">
      <text
         id="text74"
         xml:space="preserve"
         transform="matrix(0.94454044,0,0,0.94454044,1395.2149,801.10807)"><tspan
           id="tspan74"
           style="font-variant:normal;font-weight:normal;font-size:30px;font-family:Arial;writing-mode:lr-tb;fill:#000000;fill-opacity:1;fill-rule:nonzero;stroke:none"
           x="0"
           y="0">Copy and Crop</tspan></text>
    </g>
    <g
       id="g75">
      <text
         id="text75"
         xml:space="preserve"
         transform="matrix(0.94454044,0,0,0.94454044,1395.2149,971.12535)"><tspan
           id="tspan75"
           style="font-variant:normal;font-weight:normal;font-size:30px;font-family:Arial;writing-mode:lr-tb;fill:#000000;fill-opacity:1;fill-rule:nonzero;stroke:none"
           x="0"
           y="0">Copy and Crop</tspan></text>
    </g>
    <g
       id="g76">
      <text
         id="text76"
         xml:space="preserve"
         transform="matrix(0.94454044,0,0,0.94454044,2465.2906,1008.907)"><tspan
           id="tspan76"
           style="font-variant:normal;font-weight:normal;font-size:30px;font-family:Arial;writing-mode:lr-tb;fill:#000000;fill-opacity:1;fill-rule:nonzero;stroke:none"
           x="0"
           y="0">3x3 unpadded convoluntion followed by a ReLU</tspan></text>
    </g>
    <g
       id="g77">
      <text
         id="text77"
         xml:space="preserve"
         transform="matrix(0.94454044,0,0,0.94454044,2465.2906,1084.4702)"><tspan
           id="tspan77"
           style="font-variant:normal;font-weight:normal;font-size:30px;font-family:Arial;writing-mode:lr-tb;fill:#000000;fill-opacity:1;fill-rule:nonzero;stroke:none"
           x="0"
           y="0">2x2 max pooling with stride 2</tspan></text>
    </g>
    <g
       id="g78">
      <text
         id="text78"
         xml:space="preserve"
         transform="matrix(0.94454044,0,0,0.94454044,2465.2906,1178.9242)"><tspan
           id="tspan78"
           style="font-variant:normal;font-weight:normal;font-size:30px;font-family:Arial;writing-mode:lr-tb;fill:#000000;fill-opacity:1;fill-rule:nonzero;stroke:none"
           x="0"
           y="0">2x2 up-convolution</tspan></text>
    </g>
    <g
       id="g79">
      <text
         id="text79"
         xml:space="preserve"
         transform="matrix(0.94454044,0,0,0.94454044,2465.2906,1263.9329)"><tspan
           id="tspan79"
           style="font-variant:normal;font-weight:normal;font-size:30px;font-family:Arial;writing-mode:lr-tb;fill:#000000;fill-opacity:1;fill-rule:nonzero;stroke:none"
           x="0"
           y="0">1x1 convolution</tspan></text>
    </g>
    <g
       id="g80">
      <text
         id="text80"
         xml:space="preserve"
         transform="matrix(0.94454044,0,0,0.94454044,638.78555,470.51892)"><tspan
           id="tspan80"
           style="font-variant:normal;font-weight:normal;font-size:30px;font-family:Arial;writing-mode:lr-tb;fill:#000000;fill-opacity:1;fill-rule:nonzero;stroke:none"
           x="0"
           y="0">568x568x64</tspan></text>
    </g>
    <g
       id="g81">
      <text
         id="text81"
         xml:space="preserve"
         transform="matrix(0.94454044,0,0,0.94454044,1147.273,1311.1599)"><tspan
           id="tspan81"
           style="font-variant:normal;font-weight:normal;font-size:30px;font-family:Arial;writing-mode:lr-tb;fill:#000000;fill-opacity:1;fill-rule:nonzero;stroke:none"
           x="0"
           y="0">32x32x512</tspan></text>
    </g>
    <g
       id="g82">
      <text
         id="text82"
         xml:space="preserve"
         transform="matrix(0.94454044,0,0,0.94454044,1630.553,1311.1599)"><tspan
           id="tspan82"
           style="font-variant:normal;font-weight:normal;font-size:30px;font-family:Arial;writing-mode:lr-tb;fill:#000000;fill-opacity:1;fill-rule:nonzero;stroke:none"
           x="0"
           y="0">28x28x1024</tspan></text>
    </g>
    <g
       id="g83">
      <text
         id="text83"
         xml:space="preserve"
         transform="matrix(0.94454044,0,0,0.94454044,2340.5375,479.96432)"><tspan
           id="tspan83"
           style="font-variant:normal;font-weight:normal;font-size:30px;font-family:Arial;writing-mode:lr-tb;fill:#000000;fill-opacity:1;fill-rule:nonzero;stroke:none"
           x="0"
           y="0">392x392x128</tspan></text>
    </g>
  </g>
</svg>
